<svg width="385" height="400" viewBox="0 0 385 400" fill="none" xmlns="http://www.w3.org/2000/svg">
<path d="M281.05 68C284.018 70.4849 285.596 73.0213 286.644 76.875C286.734 77.9269 286.734 77.9269 286.825 79C288.105 79.0928 288.105 79.0928 289.412 79.1875C293.407 80.2056 294.83 81.721 297.412 85C299.868 89.3731 299.883 94.0693 299.337 99C298.386 102.257 296.945 105.151 295.247 108.062C294.189 110.903 294.938 113.033 295.487 116C295.742 121.56 295.253 125.73 293.562 131C292.927 131 292.292 131 291.637 131C291.59 129.854 291.543 128.708 291.494 127.527C291.422 125.997 291.349 124.467 291.276 122.938C291.232 121.809 291.232 121.809 291.186 120.658C290.944 115.81 290.202 111.617 288.75 107C286.836 109.243 284.933 111.493 283.035 113.75C282.492 114.384 281.949 115.018 281.39 115.672C280.872 116.291 280.354 116.909 279.82 117.547C279.342 118.112 278.863 118.678 278.369 119.261C277.054 121.217 276.545 122.641 276.237 125C276.555 125.99 276.873 126.98 277.2 128C277.851 135.849 275.584 141.073 271.786 147.75C267.073 152.388 261.553 155.289 255.002 155.438C251.729 155.294 248.975 154.631 245.858 153.625C243.103 152.905 241.944 152.846 239.29 153.992C234.733 157.013 231.31 160.499 228.112 165C229.912 165.989 231.718 166.966 233.526 167.938C234.531 168.483 235.536 169.028 236.572 169.59C243.126 172.58 248.365 172.08 255.062 170C261.089 167.434 266.188 163.967 271.425 160C272.06 160 272.695 160 273.35 160C273.032 156.7 272.715 153.4 272.387 150C273.34 150 274.293 150 275.275 150C277.803 156.034 278.751 161.684 276.467 168.04C275.175 171.107 273.792 174.122 272.387 177.135C269.583 183.309 268.441 188.636 267.913 195.473C267.802 196.307 267.69 197.141 267.575 198C266.94 198.33 266.304 198.66 265.65 199C261.85 187.155 267.513 175.53 272.387 165C269.534 166.392 267.067 168.034 264.507 169.938C256.493 175.484 249.257 176.778 239.662 176C238.709 175.67 237.757 175.34 236.775 175C236.14 177.97 235.504 180.94 234.85 184C236.12 184.33 237.391 184.66 238.7 185C238.7 184.34 238.7 183.68 238.7 183C240.429 182.363 240.429 182.363 242.55 182C249.121 186.595 252.851 193.102 256.987 200C256.67 200.66 256.352 201.32 256.025 202C252.492 200.522 250.817 198.524 248.565 195.375C247.975 194.558 247.384 193.74 246.776 192.898C246.334 192.272 245.892 191.645 245.437 191C242.616 195.396 242.39 197.675 242.245 202.977C242.215 204.004 242.215 204.004 242.185 205.053C242.122 207.244 242.065 209.434 242.008 211.625C241.967 213.109 241.925 214.594 241.882 216.078C241.779 219.719 241.682 223.359 241.587 227C242.329 226.145 243.071 225.291 243.836 224.41C244.811 223.294 245.786 222.178 246.761 221.062C247.25 220.499 247.738 219.935 248.242 219.354C251.957 215.113 251.957 215.113 254.1 214C254.178 212.897 254.257 211.793 254.338 210.656C255.062 207 255.062 207 257.55 205.029C258.647 204.523 259.744 204.017 260.875 203.496C261.772 203.071 261.772 203.071 262.688 202.636C264.626 201.728 266.579 200.862 268.537 200C269.839 199.411 271.141 198.821 272.443 198.231C276.377 196.464 280.336 194.76 284.298 193.062C285.675 192.469 287.051 191.874 288.426 191.279C291.741 189.848 295.057 188.422 298.375 187C297.74 184.03 297.104 181.06 296.45 178C300.261 175.69 304.073 173.38 308 171C304.58 167.093 304.58 167.093 301.503 165.438C300.788 164.963 300.074 164.489 299.337 164C299.337 163.01 299.337 162.02 299.337 161C304.141 162.217 306.686 164.236 310.015 167.855C311.901 169.316 311.901 169.316 314.621 168.484C319.393 167.715 321.814 170.32 325.637 173.039C346.898 189.228 358.963 215.471 363.223 242.062C365.163 259.518 365.821 282.888 356.125 298C355.172 298 354.219 298 353.237 298C353.654 296.804 354.071 295.607 354.501 294.375C363.827 264.892 360.451 234.431 347.402 206.812C340.869 193.686 330.03 179.322 316.756 173.148C313.623 172.918 311.589 174.315 308.842 175.813C307.32 176.627 307.32 176.627 305.767 177.457C303.145 178.871 303.145 178.871 301.262 181C301.58 181.743 301.898 182.485 302.225 183.25C303.187 186 303.187 186 303.187 190C297.674 192.387 292.16 194.771 286.644 197.153C284.769 197.963 282.895 198.774 281.021 199.586C278.322 200.755 275.622 201.921 272.921 203.086C271.671 203.628 271.671 203.628 270.396 204.181C266.288 205.951 262.197 207.613 257.95 209C260.05 235.937 262.603 262.073 277.888 284.863C279.125 287 279.125 287 279.125 290C275.031 288.499 273.263 285.415 271.064 281.75C270.686 281.126 270.309 280.502 269.92 279.859C258.749 260.901 256.264 240.659 254.1 219C253.219 219.938 252.338 220.877 251.43 221.844C250.275 223.063 249.12 224.281 247.964 225.5C247.093 226.43 247.093 226.43 246.204 227.379C245.646 227.965 245.088 228.552 244.512 229.156C243.998 229.701 243.484 230.246 242.954 230.807C241.587 232 241.587 232 239.662 232C239.662 231.34 239.662 230.68 239.662 230C239.027 230.33 238.392 230.66 237.737 231C237.618 231.722 237.499 232.444 237.376 233.187C236.616 236.744 234.959 239.069 232.925 242C233.461 241.67 233.997 241.34 234.549 241C237.066 239.869 238.874 239.843 241.587 240C241.146 243.469 240.729 246.674 239.662 250C241.25 250 242.839 250 244.475 250C245.498 253.384 245.644 254.58 244.054 257.812C243.557 258.534 243.061 259.256 242.55 260C243.483 259.979 244.416 259.959 245.377 259.937C248.325 260 248.325 260 249.287 261C249.423 263.671 249.328 266.324 249.287 269C250.175 268.749 250.175 268.749 251.081 268.492C251.859 268.289 252.637 268.085 253.438 267.875C254.594 267.562 254.594 267.562 255.773 267.242C257.95 267 257.95 267 260.837 269C261.25 272.947 260.919 275.612 258.912 279C260.074 278.969 260.074 278.969 261.258 278.937C263.725 279 263.725 279 264.687 280C264.411 282.339 264.091 284.674 263.725 287C266.583 287.99 266.583 287.99 269.5 289C269.637 297.571 269.637 297.571 268.537 301C269.232 300.649 269.927 300.299 270.643 299.937C273.65 298.896 275.161 299.109 278.162 300C277.674 303.719 277.088 306.735 275.275 310C276.585 309.196 276.585 309.196 277.922 308.375C281.05 307 281.05 307 283.336 307.812C284.11 308.4 284.11 308.4 284.9 309C284.582 309.928 284.265 310.856 283.937 311.812C282.831 314.92 282.831 314.92 282.975 318C283.928 318.33 284.881 318.66 285.862 319C287.45 316.03 289.039 313.06 290.675 310C291.31 310 291.945 310 292.6 310C292.917 308.35 293.235 306.7 293.562 305C302.773 305 311.985 305 321.475 305C321.792 304.34 322.11 303.68 322.437 303C325.296 303 328.155 303 331.1 303C331.1 304.32 331.1 305.64 331.1 307C332.053 307 333.006 307 333.987 307C334.305 305.35 334.623 303.7 334.95 302C337.832 301.128 340.374 300.892 343.372 300.937C344.141 300.947 344.91 300.956 345.703 300.965C346.574 300.982 346.574 300.982 347.462 301C347.879 302.207 347.879 302.207 348.305 303.437C349.13 306.133 349.13 306.133 351.312 307C351.312 305.35 351.312 303.7 351.312 302C353.853 302 356.394 302 359.012 302C359.648 303.98 360.283 305.96 360.937 308C361.678 308.07 362.419 308.141 363.183 308.213C365.75 309 365.75 309 367.18 310.994C367.558 311.849 367.936 312.705 368.325 313.586C368.744 314.517 369.163 315.447 369.594 316.406C370.013 317.386 370.432 318.366 370.863 319.375C371.3 320.347 371.738 321.319 372.188 322.32C375.375 329.529 375.375 329.529 375.375 333C372.427 334.531 369.309 334.368 366.066 334.527C365.242 334.569 364.418 334.61 363.569 334.653C348.715 335.316 333.834 335.358 318.968 335.532C314.683 335.583 310.398 335.638 306.112 335.693C297.758 335.8 289.404 335.901 281.05 336C280.732 335.01 280.415 334.02 280.087 333C279.009 332.939 277.931 332.879 276.82 332.816C275.403 332.732 273.985 332.647 272.568 332.562C271.502 332.504 271.502 332.504 270.415 332.443C267.353 332.256 264.724 332.013 261.8 331C261.8 331.66 261.8 332.32 261.8 333C158.889 332.505 158.889 332.505 53.8998 332C52.6647 328.792 51.6839 326.154 50.9394 322.882C50.6682 321.702 50.6682 321.702 50.3915 320.498C50.2004 319.65 50.0093 318.801 49.8125 317.927C49.6057 317.022 49.3988 316.118 49.1858 315.186C48.5051 312.204 47.8298 309.221 47.1548 306.238C46.6831 304.165 46.2111 302.092 45.7388 300.019C44.7511 295.679 43.7659 291.339 42.7826 286.999C41.5201 281.426 40.2522 275.854 38.9827 270.282C38.0084 266.005 37.0362 261.726 36.0648 257.448C35.5979 255.392 35.1305 253.337 34.6625 251.282C34.0105 248.417 33.3614 245.551 32.7131 242.685C32.5181 241.83 32.3231 240.976 32.1222 240.095C30.7998 234.229 30.7998 234.229 30.7998 232C54.3214 231.934 77.8355 232.097 101.355 232.404C103.989 232.438 106.622 232.471 109.256 232.504C137.649 232.862 166.037 233.331 194.425 234C195.99 238.576 197.091 243.171 198.04 247.917C198.275 249.072 198.275 249.072 198.515 250.25C198.853 251.911 199.19 253.573 199.525 255.234C200.055 257.861 200.591 260.487 201.128 263.113C202.653 270.574 204.172 278.037 205.682 285.502C206.607 290.075 207.54 294.646 208.478 299.216C208.834 300.959 209.187 302.703 209.537 304.447C210.025 306.876 210.522 309.303 211.022 311.73C211.165 312.455 211.308 313.181 211.456 313.929C211.813 315.634 212.254 317.321 212.712 319C215.478 320.437 217.933 320.202 221.021 320.281C221.662 320.299 222.302 320.317 222.961 320.336C224.331 320.374 225.7 320.411 227.07 320.446C230.59 320.536 234.109 320.643 237.628 320.75C238.313 320.771 238.998 320.791 239.704 320.813C244.808 320.971 249.905 321.177 255.002 321.5C256.142 321.572 257.283 321.644 258.457 321.719C260.837 322 260.837 322 261.8 323C261.8 324.98 261.8 326.96 261.8 329C268.152 329 274.505 329 281.05 329C282.003 327.02 282.956 325.04 283.937 323C282.032 321.35 280.126 319.7 278.162 318C278.321 317.381 278.48 316.762 278.644 316.125C279.198 314.039 279.198 314.039 279.125 312C278.569 312.351 278.013 312.701 277.44 313.062C274.93 314.149 273.933 313.931 271.425 313C271.072 308.727 271.994 306.512 274.312 303C271.454 303.33 268.595 303.66 265.65 304C264.193 299.155 265.298 295.741 266.612 291C265.898 291.351 265.183 291.701 264.447 292.062C261.673 293.045 260.633 293.033 257.95 292C258.515 288.479 259.255 286.287 260.837 283C257.979 283.33 255.12 283.66 252.175 284C251.857 283.01 251.54 282.02 251.212 281C252.382 278.738 252.382 278.738 254.04 276.312C254.584 275.504 255.129 274.696 255.69 273.863C256.118 273.248 256.546 272.634 256.987 272C256.269 272.153 255.551 272.307 254.81 272.465C251.699 273.097 248.577 273.552 245.437 274C244.802 273.01 244.167 272.02 243.512 271C244.355 267.812 244.355 267.812 245.437 265C244.524 265.041 243.611 265.083 242.67 265.125C239.662 265 239.662 265 237.737 263C238.086 260.17 238.793 257.709 239.662 255C237.757 255 235.851 255 233.887 255C233.108 252.085 232.715 250.539 233.827 247.687C234.165 247.131 234.502 246.574 234.85 246C233.262 246 231.674 246 230.037 246C229.894 246.897 229.894 246.897 229.748 247.813C228.943 250.429 228.025 251.267 225.999 252.996C218.648 259.195 218.648 259.195 214.923 267.809C215.207 271.02 215.665 273.917 216.562 277C217.26 276.599 217.26 276.599 217.973 276.19C220.105 274.972 222.243 273.767 224.383 272.562C225.115 272.142 225.847 271.721 226.601 271.287C230.647 269.022 234.04 267.425 238.7 267C237.379 270.345 236.206 271.671 233.109 273.289C232.39 273.673 231.671 274.057 230.93 274.453C230.179 274.84 229.428 275.227 228.654 275.625C227.171 276.408 225.688 277.191 224.206 277.977C223.219 278.488 223.219 278.488 222.212 279.01C220.183 280.086 220.183 280.086 217.525 282C217.283 284.46 217.283 284.46 217.525 287.312C217.69 294.065 216.942 300.645 214.637 307C213.684 307.33 212.732 307.66 211.75 308C211.601 303.667 211.627 300.451 212.772 296.25C214.514 289.591 213.038 282.716 212.231 275.979C210.788 263.488 210.443 251.135 210.487 238.562C210.488 237.04 210.488 237.04 210.49 235.487C210.548 208.441 212.795 181.758 216.562 155C194.729 164.132 176.033 175.141 158.812 192C158.151 192.623 157.49 193.245 156.808 193.887C150.677 199.88 143.293 207.581 141.905 216.504C141.908 219.396 142.048 222.141 142.45 225C141.497 224.67 140.544 224.34 139.562 224C138.735 219.25 137.912 214.5 137.095 209.748C136.816 208.133 136.536 206.518 136.255 204.904C135.849 202.578 135.449 200.252 135.051 197.926C134.924 197.208 134.798 196.49 134.668 195.75C134.052 192.124 133.642 188.684 133.787 185C132.982 185.326 132.177 185.652 131.347 185.988C115.965 191.988 101.998 193.478 85.6623 193C85.7498 193.766 85.8372 194.531 85.9274 195.32C86.326 198.838 86.7161 202.356 87.1061 205.875C87.2438 207.079 87.3815 208.283 87.5234 209.523C88.2772 216.385 88.7571 223.093 88.5498 230C87.9146 230 87.2793 230 86.6248 230C85.0719 219.793 83.6069 209.588 82.5342 199.312C82.4456 198.494 82.3571 197.675 82.2658 196.831C82.0719 194.891 81.9359 192.946 81.8123 191C83.8164 188.918 88.1729 189.722 90.9561 189.625C103.927 189.02 115.852 187.059 127.963 182.086C130.877 181.008 133.616 180.429 136.675 180C136.842 181.022 136.842 181.022 137.013 182.064C137.52 185.147 138.03 188.23 138.54 191.313C138.715 192.384 138.891 193.456 139.072 194.561C139.242 195.589 139.413 196.617 139.589 197.676C139.745 198.624 139.901 199.571 140.062 200.548C140.496 203.122 140.496 203.122 141.487 206C142.07 205.178 142.654 204.355 143.254 203.508C161.868 177.591 189.116 159.417 218.487 149C219.44 149 220.393 149 221.375 149C220.683 157.713 219.644 166.349 218.504 175.01C218.378 175.985 218.252 176.96 218.123 177.965C217.95 179.274 217.95 179.274 217.775 180.609C217.456 183.262 217.456 183.262 217.525 187C217.978 186.567 218.431 186.134 218.897 185.688C219.496 185.131 220.096 184.574 220.713 184C221.305 183.443 221.897 182.886 222.507 182.313C224.262 181 224.262 181 227.15 181C227.15 180.34 227.15 179.68 227.15 179C230.008 179.495 230.008 179.495 232.925 180C233.242 178.02 233.56 176.04 233.887 174C233.354 173.613 232.82 173.227 232.271 172.828C231.225 172.047 231.225 172.047 230.158 171.25C229.119 170.484 229.119 170.484 228.06 169.703C226.105 167.925 225.245 166.473 224.262 164C225.183 162.707 226.106 161.416 227.029 160.125C227.543 159.406 228.057 158.686 228.586 157.945C230.037 156 230.037 156 231.962 154C229.104 154 226.245 154 223.3 154C223.617 152.68 223.935 151.36 224.262 150C226.803 149.34 229.344 148.68 231.962 148C231.327 146.928 230.692 145.855 230.037 144.75C228.225 141.69 228.112 140.866 228.112 137C227.1 136.773 226.087 136.546 225.044 136.313C220.044 134.84 217.456 131.393 214.637 127C214.637 126.01 214.637 125.02 214.637 124C214.042 123.959 213.446 123.917 212.833 123.875C210.787 123 210.787 123 209.524 120.125C208.862 117 208.862 117 209.825 114C209.209 113.794 208.594 113.588 207.96 113.375C205.975 112 205.975 112 205.253 108.875C205.174 107.926 205.094 106.978 205.012 106C207.864 103.223 209.619 102.046 213.494 101.188C223.884 98.7753 232.179 85.2686 239.068 77.3711C250.583 64.6997 265.579 59.5879 281.05 68ZM235.812 90C236.13 90.66 236.448 91.32 236.775 92C237.424 91.273 237.424 91.273 238.087 90.5312C248.269 79.5071 257.591 72.8062 272.387 72C259.501 63.0742 243.837 81.3083 235.812 90ZM283.937 83C282.667 84.65 281.396 86.3 280.087 88C281.358 87.34 282.628 86.68 283.937 86C283.937 85.01 283.937 84.02 283.937 83ZM265.639 95.2188C264.545 95.2864 264.545 95.2864 263.43 95.3555C262.295 95.427 262.295 95.427 261.138 95.5C260.371 95.5477 259.603 95.5954 258.813 95.6445C256.921 95.7622 255.029 95.881 253.137 96C253.773 98.31 254.408 100.62 255.062 103C253.99 101.793 253.99 101.793 252.897 100.562C250.061 97.5652 250.061 97.5652 246.4 97C244.428 98.2572 242.51 99.6064 240.625 101C238.605 102.109 236.561 103.144 234.5 104.168C232.931 104.89 232.931 104.89 231.962 106C231.709 110.032 231.679 111.559 233.887 115C233.584 118.934 232.776 122.671 231.902 126.5C230.394 133.503 230.602 138.539 233.887 145C235.413 147.587 235.413 147.587 237.737 149C241.158 148.671 241.158 148.671 244.475 148C245.428 148.66 246.381 149.32 247.362 150C252.472 150 256.283 146.425 259.875 143C264.716 137.373 264.716 137.373 268.537 131C271.396 131.495 271.396 131.495 274.312 132C273.832 126.632 273.337 121.305 272.387 116C272.328 115.134 272.268 114.268 272.207 113.375C271.02 109.772 268.787 108.76 265.65 107C264.697 107 263.744 107 262.762 107C262.762 106.01 262.762 105.02 262.762 104C263.307 104.156 263.852 104.312 264.413 104.473C265.119 104.667 265.825 104.862 266.552 105.062C267.256 105.26 267.959 105.457 268.684 105.66C269.564 105.828 269.564 105.828 270.462 106C272.063 104.337 271.772 102.217 271.966 99.9375C272.047 99.0184 272.128 98.0993 272.211 97.1523C272.298 96.0869 272.298 96.0869 272.387 95C270.118 95 267.901 95.0773 265.639 95.2188ZM228.112 98C227.159 99.485 227.159 99.485 226.187 101C227.458 100.34 228.728 99.68 230.037 99C229.402 98.67 228.767 98.34 228.112 98ZM270.462 134C269.985 134.652 269.507 135.305 269.015 135.977C265.034 141.297 261.111 145.816 256.025 150C259.327 151.149 259.758 151.055 263.183 149.438C268.629 145.905 271.704 141.53 273.35 135C272.397 134.67 271.444 134.34 270.462 134ZM227.15 182C227.15 182.66 227.15 183.32 227.15 184C226.405 184.371 226.405 184.371 225.646 184.75C219.342 187.586 219.342 187.586 215.6 193C214.515 201.639 214.526 210.303 214.637 219C216.625 215.902 218.066 212.816 219.57 209.437C220.089 208.281 220.607 207.125 221.142 205.934C222.462 203.224 222.462 203.224 222.337 201C222.973 201 223.608 201 224.262 201C224.441 200.422 224.62 199.845 224.804 199.25C226.866 195.896 229.545 194.821 232.925 193C231.072 190.776 231.072 190.776 228.112 190C227.795 189.01 227.477 188.02 227.15 187C229.056 186.67 230.961 186.34 232.925 186C230.316 183.327 230.316 183.327 227.15 182ZM234.85 188C234.85 188.66 234.85 189.32 234.85 190C235.485 190 236.12 190 236.775 190C236.775 189.34 236.775 188.68 236.775 188C236.14 188 235.504 188 234.85 188ZM232.925 196C232.607 196.66 232.29 197.32 231.962 198C232.598 198 233.233 198 233.887 198C233.57 197.34 233.252 196.68 232.925 196ZM236.775 199C237.092 199.66 237.41 200.32 237.737 201C238.055 200.34 238.373 199.68 238.7 199C238.065 199 237.429 199 236.775 199ZM224.262 201C224.262 202.65 224.262 204.3 224.262 206C225.85 204.68 227.439 203.36 229.075 202C227.487 201.67 225.899 201.34 224.262 201ZM232.925 204C231.303 204.969 229.699 205.97 228.112 207C228.112 207.33 228.112 207.66 228.112 208C231.289 208.33 234.465 208.66 237.737 209C237.737 208.34 237.737 207.68 237.737 207C236.467 207 235.196 207 233.887 207C233.57 206.01 233.252 205.02 232.925 204ZM226.187 211C226.505 211.99 226.823 212.98 227.15 214C227.785 213.67 228.42 213.34 229.075 213C229.075 212.34 229.075 211.68 229.075 211C228.122 211 227.169 211 226.187 211ZM231.962 215C231.009 216.485 231.009 216.485 230.037 218C230.99 217.67 231.943 217.34 232.925 217C232.607 216.34 232.29 215.68 231.962 215ZM225.225 219C226.187 221 226.187 221 226.187 221L225.225 219ZM213.675 221C213.675 227.27 213.675 233.54 213.675 240C213.992 240 214.31 240 214.637 240C214.637 233.73 214.637 227.46 214.637 221C214.32 221 214.002 221 213.675 221ZM231 221C231 221.99 231 222.98 231 224C231.635 223.01 232.27 222.02 232.925 221C232.29 221 231.654 221 231 221ZM231.962 227C231.645 227.99 231.327 228.98 231 230C231.953 229.67 232.906 229.34 233.887 229C233.252 228.34 232.617 227.68 231.962 227ZM33.6873 235C35.5763 243.14 37.4677 251.279 39.362 259.417C40.2422 263.199 41.1218 266.982 41.9994 270.765C46.4374 289.892 50.9937 308.975 55.8248 328C64.1662 328.183 72.5079 328.347 80.8498 328.5C81.8214 328.518 81.8214 328.518 82.8125 328.536C109.409 329.018 136.002 329.086 162.602 329.062C163.563 329.062 164.524 329.061 165.514 329.06C177.397 329.049 189.28 329.028 201.162 329C200.867 327.27 200.57 325.54 200.271 323.811C200.106 322.847 199.941 321.884 199.77 320.891C199.283 318.247 198.717 315.644 198.091 313.031C193.734 294.851 190.72 276.452 187.672 257.994C187.397 256.338 187.397 256.338 187.117 254.649C186.769 252.546 186.424 250.442 186.082 248.338C185.927 247.4 185.772 246.462 185.613 245.496C185.478 244.673 185.344 243.85 185.206 243.002C184.873 240.94 184.873 240.94 183.837 239C184.79 239 185.743 239 186.725 239C188.07 245.853 189.314 252.72 190.496 259.605C194.525 282.883 198.817 305.979 204.05 329C221.837 329 239.624 329 257.95 329C257.95 328.01 257.95 327.02 257.95 326C254.735 324.887 252.182 324.809 248.795 324.719C246.894 324.663 246.894 324.663 244.954 324.605C243.611 324.57 242.268 324.535 240.926 324.5C238.975 324.448 237.025 324.394 235.074 324.337C233.272 324.285 231.469 324.237 229.666 324.189C223.046 323.955 216.434 323.447 209.825 323C209.61 321.95 209.395 320.9 209.174 319.818C207.152 309.943 205.127 300.068 203.098 290.195C202.055 285.119 201.013 280.042 199.974 274.964C198.973 270.068 197.968 265.173 196.96 260.278C196.576 258.406 196.192 256.534 195.81 254.662C195.277 252.049 194.739 249.437 194.199 246.824C194.041 246.043 193.882 245.261 193.719 244.455C193.223 240.934 193.223 240.934 191.537 238C185.112 236.94 178.576 236.817 172.084 236.703C171.15 236.683 170.217 236.664 169.256 236.643C166.182 236.58 163.108 236.522 160.034 236.465C157.847 236.422 155.66 236.378 153.474 236.335C148.873 236.244 144.271 236.156 139.67 236.07C133.92 235.963 128.17 235.848 122.421 235.73C92.8397 235.132 63.2735 234.867 33.6873 235ZM227.15 244C228.112 247 228.112 247 228.112 247L227.15 244ZM213.675 258C213.992 258.99 214.31 259.98 214.637 261C215.273 260.01 215.908 259.02 216.562 258C215.609 258 214.657 258 213.675 258ZM337.837 305C337.52 305.66 337.202 306.32 336.875 307C339.733 307 342.592 307 345.537 307C345.537 306.34 345.537 305.68 345.537 305C342.996 305 340.455 305 337.837 305ZM354.2 305C354.2 306.65 354.2 308.3 354.2 310C345.942 310.33 337.683 310.66 329.175 311C328.698 308.525 328.698 308.525 328.212 306C327.259 306 326.307 306 325.325 306C324.69 307.98 324.054 309.96 323.4 312C308.154 312.99 308.154 312.99 292.6 314C291.508 316.413 290.416 318.826 289.291 321.312C288.948 322.068 288.605 322.824 288.252 323.603C287.001 326.378 285.833 329.091 284.9 332C328.256 331.505 328.256 331.505 372.487 331C369.629 324.73 366.77 318.46 363.825 312C362.554 311.67 361.284 311.34 359.975 311C358.29 307.937 358.29 307.937 357.087 305C356.134 305 355.182 305 354.2 305ZM296.45 308C296.132 308.66 295.815 309.32 295.487 310C297.711 310 299.934 310 302.225 310C302.225 309.34 302.225 308.68 302.225 308C300.319 308 298.413 308 296.45 308ZM305.112 308C305.43 308.66 305.748 309.32 306.075 310C307.345 310 308.616 310 309.925 310C309.925 309.34 309.925 308.68 309.925 308C308.337 308 306.749 308 305.112 308ZM313.775 308C313.775 308.66 313.775 309.32 313.775 310C315.681 310 317.586 310 319.55 310C319.55 309.34 319.55 308.68 319.55 308C317.644 308 315.738 308 313.775 308Z" fill="#191919"/>
<path d="M92.3998 70C92.8172 74.6401 93.2281 79.2808 93.6334 83.9221C93.7718 85.4962 93.9118 87.0701 94.0536 88.6438C94.8457 97.4474 95.5391 106.146 95.2873 115C88.7162 115.986 82.1878 116.319 75.556 116.562C73.9045 116.626 73.9045 116.626 72.2197 116.691C63.8626 116.995 55.5237 117.118 47.1623 117C46.8347 118.856 46.8347 118.856 46.5006 120.75C45.2262 126.809 42.836 132.349 40.4248 138C37.7007 134.617 36.0904 130.909 34.4693 126.875C34.2069 126.242 33.9445 125.609 33.6741 124.957C31.7623 120.268 31.7623 120.268 31.7623 118C26.3626 118 20.963 118 15.3998 118C14.573 112.841 13.7491 107.682 12.9324 102.521C12.654 100.768 12.3739 99.014 12.0921 97.2607C11.6864 94.7344 11.2867 92.2072 10.8881 89.6797C10.6986 88.5121 10.6986 88.5121 10.5053 87.321C9.85607 83.1642 9.48891 79.2288 9.62477 75C28.4634 73.5969 47.3138 72.4593 66.1716 71.375C67.9473 71.2727 67.9473 71.2727 69.7588 71.1683C73.1499 70.9733 76.5411 70.7793 79.9324 70.5859C80.9678 70.5267 82.0033 70.4674 83.0702 70.4063C84.0183 70.3526 84.9664 70.299 85.9433 70.2437C87.1913 70.1728 87.1913 70.1728 88.4644 70.1004C89.7751 70.035 91.0876 70 92.3998 70Z" fill="#FF7700"/>
<path d="M30.7998 232C54.3214 231.934 77.8355 232.097 101.355 232.404C103.989 232.438 106.622 232.471 109.256 232.504C137.649 232.862 166.037 233.331 194.425 234C195.99 238.576 197.091 243.171 198.04 247.917C198.275 249.072 198.275 249.072 198.515 250.25C198.853 251.911 199.189 253.573 199.525 255.234C200.055 257.861 200.591 260.487 201.128 263.113C202.653 270.574 204.172 278.037 205.682 285.502C206.607 290.075 207.54 294.646 208.478 299.216C208.834 300.959 209.187 302.703 209.537 304.447C210.025 306.876 210.522 309.303 211.022 311.73C211.165 312.455 211.308 313.181 211.456 313.929C211.813 315.634 212.254 317.321 212.712 319C215.478 320.437 217.933 320.202 221.021 320.281C221.662 320.299 222.302 320.317 222.961 320.336C224.331 320.374 225.7 320.411 227.07 320.446C230.59 320.536 234.109 320.643 237.628 320.75C238.313 320.771 238.998 320.791 239.704 320.813C244.808 320.971 249.905 321.177 255.002 321.5C256.712 321.608 256.712 321.608 258.457 321.719C260.837 322 260.837 322 261.8 323C261.8 326.3 261.8 329.6 261.8 333C158.889 332.505 158.889 332.505 53.8998 332C52.6647 328.792 51.6839 326.154 50.9394 322.882C50.6682 321.702 50.6682 321.702 50.3915 320.498C50.2004 319.65 50.0093 318.801 49.8125 317.927C49.6057 317.022 49.3988 316.118 49.1858 315.186C48.5051 312.204 47.8298 309.221 47.1548 306.238C46.6831 304.165 46.211 302.092 45.7388 300.019C44.7511 295.679 43.7659 291.339 42.7826 286.999C41.5201 281.426 40.2522 275.854 38.9827 270.282C38.0084 266.005 37.0362 261.726 36.0648 257.448C35.5979 255.392 35.1305 253.337 34.6625 251.282C34.0105 248.417 33.3614 245.551 32.7131 242.685C32.4206 241.403 32.4206 241.403 32.1222 240.095C30.7998 234.229 30.7998 234.229 30.7998 232ZM33.6873 235C35.5763 243.14 37.4677 251.279 39.362 259.417C40.2422 263.199 41.1218 266.982 41.9994 270.765C46.4374 289.892 50.9937 308.975 55.8248 328C64.1662 328.183 72.5079 328.347 80.8498 328.5C81.8214 328.518 81.8214 328.518 82.8125 328.536C109.409 329.018 136.002 329.086 162.602 329.062C163.563 329.062 164.524 329.061 165.514 329.06C177.397 329.049 189.28 329.028 201.162 329C200.867 327.27 200.57 325.54 200.271 323.811C200.106 322.847 199.941 321.884 199.77 320.891C199.283 318.247 198.717 315.644 198.091 313.031C193.734 294.851 190.72 276.452 187.672 257.994C187.397 256.338 187.397 256.338 187.117 254.649C186.769 252.546 186.424 250.442 186.082 248.338C185.927 247.4 185.772 246.462 185.613 245.496C185.478 244.673 185.344 243.85 185.206 243.002C184.873 240.94 184.873 240.94 183.837 239C184.79 239 185.743 239 186.725 239C188.07 245.853 189.314 252.72 190.496 259.605C194.525 282.883 198.817 305.979 204.05 329C221.837 329 239.624 329 257.95 329C257.95 328.01 257.95 327.02 257.95 326C254.735 324.887 252.182 324.809 248.795 324.719C246.894 324.663 246.894 324.663 244.954 324.605C243.611 324.57 242.268 324.535 240.926 324.5C238.975 324.448 237.025 324.394 235.074 324.337C233.272 324.285 231.469 324.237 229.666 324.189C223.046 323.955 216.434 323.447 209.825 323C209.61 321.95 209.395 320.9 209.174 319.818C207.152 309.943 205.127 300.068 203.098 290.195C202.055 285.119 201.013 280.042 199.974 274.964C198.973 270.068 197.968 265.173 196.96 260.278C196.576 258.406 196.192 256.534 195.81 254.662C195.277 252.049 194.739 249.437 194.199 246.824C194.041 246.043 193.882 245.261 193.719 244.455C193.223 240.934 193.223 240.934 191.537 238C185.112 236.94 178.576 236.817 172.084 236.703C171.15 236.683 170.217 236.664 169.256 236.643C166.182 236.58 163.108 236.522 160.034 236.465C157.847 236.422 155.66 236.378 153.474 236.335C148.872 236.244 144.271 236.156 139.67 236.07C133.92 235.963 128.17 235.848 122.421 235.731C92.8397 235.132 63.2735 234.867 33.6873 235Z" fill="#191919"/>
<path d="M183.837 66C183.837 76.23 183.837 86.46 183.837 97C160.067 98.6392 136.442 100.228 112.612 100C112.286 96.3339 111.967 92.667 111.65 89C111.558 87.97 111.466 86.9401 111.371 85.8789C111.285 84.867 111.198 83.8551 111.108 82.8125C111.028 81.8908 110.947 80.9691 110.864 80.0195C110.648 76.3365 110.661 72.6897 110.687 69C135.105 67.2366 159.35 65.5663 183.837 66Z" fill="#191919"/>
<path d="M299.337 161C304.141 162.217 306.686 164.236 310.015 167.855C311.901 169.316 311.901 169.316 314.621 168.484C319.393 167.715 321.814 170.32 325.637 173.039C346.898 189.228 358.962 215.471 363.223 242.062C365.163 259.518 365.821 282.888 356.125 298C355.172 298 354.219 298 353.237 298C353.654 296.804 354.071 295.607 354.501 294.375C363.827 264.892 360.451 234.431 347.402 206.812C340.869 193.686 330.03 179.322 316.756 173.148C313.623 172.918 311.589 174.315 308.842 175.812C307.827 176.355 306.812 176.898 305.767 177.457C303.145 178.871 303.145 178.871 301.262 181C301.739 182.114 301.739 182.114 302.225 183.25C303.187 186 303.187 186 303.187 190C297.674 192.387 292.16 194.771 286.644 197.153C284.769 197.963 282.895 198.774 281.021 199.586C278.322 200.755 275.622 201.921 272.921 203.086C272.088 203.447 271.254 203.809 270.396 204.181C266.288 205.951 262.197 207.613 257.95 209C260.05 235.937 262.603 262.073 277.888 284.863C279.125 287 279.125 287 279.125 290C275.031 288.499 273.263 285.415 271.064 281.75C270.686 281.126 270.309 280.502 269.92 279.859C258.749 260.901 256.264 240.659 254.1 219C252.778 220.408 252.778 220.408 251.43 221.844C250.275 223.063 249.12 224.281 247.964 225.5C247.093 226.43 247.093 226.43 246.204 227.379C245.646 227.965 245.088 228.552 244.512 229.156C243.741 229.973 243.741 229.973 242.954 230.807C241.587 232 241.587 232 239.662 232C239.662 231.34 239.662 230.68 239.662 230C237.757 230 235.851 230 233.887 230C233.165 228.312 233.165 228.312 232.925 226C234.189 224.317 235.472 222.65 236.775 221C236.298 219.515 236.298 219.515 235.812 218C234.859 217.67 233.907 217.34 232.925 217C233.412 213.254 234.039 211.487 236.775 209C237.092 208.34 237.41 207.68 237.737 207C236.467 207 235.196 207 233.887 207C233.887 205.68 233.887 204.36 233.887 203C235.812 201.25 235.812 201.25 237.737 200C236.467 199.34 235.196 198.68 233.887 198C234.205 197.01 234.523 196.02 234.85 195C236.835 194.312 236.835 194.312 238.7 194C238.065 193.01 237.429 192.02 236.775 191C236.775 190.01 236.775 189.02 236.775 188C237.41 188 238.045 188 238.7 188C238.7 186.35 238.7 184.7 238.7 183C240.429 182.363 240.429 182.363 242.55 182C249.121 186.595 252.851 193.102 256.987 200C256.67 200.66 256.352 201.32 256.025 202C252.492 200.522 250.817 198.524 248.565 195.375C247.975 194.558 247.384 193.74 246.776 192.898C246.334 192.272 245.892 191.645 245.437 191C242.616 195.396 242.39 197.675 242.245 202.977C242.225 203.662 242.205 204.347 242.185 205.053C242.122 207.244 242.065 209.434 242.008 211.625C241.967 213.109 241.925 214.594 241.882 216.078C241.779 219.719 241.682 223.359 241.587 227C242.7 225.718 242.7 225.718 243.836 224.41C244.811 223.294 245.786 222.178 246.761 221.062C247.25 220.499 247.738 219.935 248.242 219.354C251.957 215.113 251.957 215.113 254.1 214C254.178 212.897 254.257 211.793 254.338 210.656C255.062 207 255.062 207 257.55 205.029C258.647 204.523 259.744 204.017 260.875 203.496C261.473 203.212 262.071 202.929 262.687 202.636C264.626 201.728 266.579 200.862 268.537 200C269.839 199.411 271.141 198.821 272.443 198.231C276.377 196.464 280.336 194.76 284.298 193.062C285.674 192.469 287.051 191.874 288.426 191.279C291.74 189.848 295.057 188.422 298.375 187C297.422 182.545 297.422 182.545 296.45 178C300.261 175.69 304.073 173.38 308 171C304.58 167.093 304.58 167.093 301.503 165.438C300.788 164.963 300.074 164.489 299.337 164C299.337 163.01 299.337 162.02 299.337 161Z" fill="#1A1A1A"/>
<path d="M117.425 115C118.06 115.33 118.695 115.66 119.35 116C119.35 117.98 119.35 119.96 119.35 122C121.007 121.758 121.007 121.758 122.699 121.51C126.835 120.975 130.904 120.839 135.069 120.832C135.799 120.829 136.529 120.825 137.281 120.822C138.809 120.817 140.337 120.815 141.865 120.815C144.205 120.812 146.545 120.794 148.885 120.775C150.375 120.772 151.866 120.77 153.357 120.77C154.055 120.762 154.753 120.755 155.471 120.748C159.047 120.765 160.569 120.883 163.625 123C164.046 125.938 164.046 125.938 163.625 129C160.118 133.064 155.034 132.969 150.075 133.297C148.599 133.38 147.122 133.459 145.646 133.535C144.863 133.578 144.081 133.621 143.275 133.665C140.794 133.801 138.314 133.932 135.833 134.062C134.143 134.154 132.454 134.246 130.764 134.338C126.639 134.562 122.513 134.782 118.387 135C118.35 135.94 118.35 135.94 118.312 136.898C118.23 138.124 118.23 138.124 118.147 139.375C118.102 140.187 118.057 140.999 118.011 141.836C117.721 142.907 117.721 142.907 117.425 144C115.519 144.99 115.519 144.99 113.575 146C113.892 142.7 114.21 139.4 114.537 136C113.791 136.016 113.046 136.031 112.277 136.048C84.9268 136.548 84.9268 136.548 74.1123 133C74.1123 132.01 74.1123 131.02 74.1123 130C87.0734 123.703 102.254 122 116.462 122C116.442 121.031 116.423 120.061 116.402 119.062C116.462 116 116.462 116 117.425 115Z" fill="#191919"/>
<path d="M120.313 268C123.158 270.046 123.977 271.29 124.885 274.75C124.964 275.492 125.044 276.235 125.125 277C123.2 277 121.275 277 119.35 277C118.696 279.397 118.696 279.397 118.388 282C120.214 284.35 120.214 284.35 123.321 284.125C124.234 284.084 125.147 284.042 126.088 284C126.634 293.64 126.634 293.64 123.2 298C119.624 300.477 117.811 300.303 113.575 300C110.748 299 110.748 299 108.763 298C108.445 298.33 108.128 298.66 107.8 299C104.883 299.505 102.851 299.492 100.247 297.941C95.8989 294.402 93.3119 290.712 92.4004 285C92.3048 280.35 92.9028 276.301 94.4457 271.937C97.117 269.07 99.2095 269.131 102.988 269C104.775 269.278 104.775 269.278 106.597 269.562C111.335 270.225 115.023 267.102 120.313 268Z" fill="#191919"/>
<path d="M222.338 201C222.973 201 223.608 201 224.263 201C224.333 201.922 224.333 201.922 224.405 202.863C224.477 203.672 224.549 204.48 224.623 205.312C224.69 206.113 224.757 206.914 224.827 207.738C225.125 210.272 225.125 210.272 227.15 213C226.808 215.841 226.098 218.28 225.225 221C226.813 221.33 228.401 221.66 230.038 222C229.448 224.962 228.831 226.381 227.15 229C227.15 230.32 227.15 231.64 227.15 233C228.738 233.66 230.326 234.32 231.963 235C231.356 236.681 230.702 238.343 230.038 240C229.323 241.825 229.323 241.825 228.594 243.688C225.83 249.398 221.296 253.993 216.563 258C215.61 258 214.657 258 213.675 258C213.621 252.893 213.621 247.789 213.663 242.682C213.671 240.914 213.665 239.145 213.645 237.376C213.503 223.476 216.012 213.261 222.338 201Z" fill="#FF7700"/>
<path d="M329.175 190C330.128 190 331.081 190 332.063 190C330.681 195.647 327.932 199.437 324.543 203.938C323.036 205.971 321.532 208.006 320.048 210.058C318.588 212 318.588 212 317.041 213.711C315.039 216.076 313.711 217.756 313.879 220.992C314.623 223.759 315.617 226.339 316.663 229C317.174 230.41 317.68 231.821 318.183 233.234C319.948 238.17 321.761 243.086 323.581 248C324.821 251.353 326.058 254.707 327.292 258.062C327.577 258.83 327.863 259.598 328.157 260.389C330.138 265.775 330.138 265.775 330.138 268C329.185 268 328.232 268 327.25 268C318.512 248.769 311.329 228.988 305.053 208.75C304.776 207.864 304.5 206.978 304.216 206.065C302.797 201.37 301.778 196.894 301.263 192C302.216 192 303.168 192 304.15 192C306.691 199.26 309.232 206.52 311.85 214C316.113 207.973 316.113 207.973 320.373 201.945C321.496 200.358 322.624 198.775 323.755 197.194C325.016 195.433 326.263 193.661 327.506 191.887C328.057 191.264 328.608 190.641 329.175 190Z" fill="#1A1A1A"/>
<path d="M242.73 182.438C249.641 186.426 253.537 193.863 256.987 201C255.717 201 254.446 201 253.137 201C251.077 198.812 251.077 198.812 249.047 196C248.367 195.072 247.687 194.144 246.986 193.188C246.22 192.105 246.22 192.105 245.437 191C242.631 195.374 242.295 198.486 242.035 203.633C241.993 204.385 241.952 205.136 241.909 205.911C241.778 208.316 241.653 210.72 241.527 213.125C241.439 214.754 241.351 216.383 241.262 218.012C241.045 222.008 240.834 226.004 240.625 230C238.401 230 236.178 230 233.887 230C233.165 228.312 233.165 228.312 232.925 226C234.189 224.317 235.472 222.65 236.775 221C236.298 219.515 236.298 219.515 235.812 218C234.859 217.67 233.907 217.34 232.925 217C233.412 213.254 234.039 211.487 236.775 209C237.092 208.34 237.41 207.68 237.737 207C236.467 207 235.196 207 233.887 207C233.887 205.68 233.887 204.36 233.887 203C235.812 201.25 235.812 201.25 237.737 200C236.467 199.34 235.196 198.68 233.887 198C234.205 197.01 234.523 196.02 234.85 195C236.835 194.312 236.835 194.312 238.7 194C238.065 193.01 237.429 192.02 236.775 191C236.775 190.01 236.775 189.02 236.775 188C237.41 188 238.045 188 238.7 188C238.7 186.35 238.7 184.7 238.7 183C240.625 182 240.625 182 242.73 182.438Z" fill="#FF7700"/>
<path d="M204.05 162C205.003 162.33 205.955 162.66 206.937 163C203.623 169.375 200.053 175.526 196.289 181.625C192.97 187.016 189.73 192.413 186.725 198C187.33 198.11 187.936 198.219 188.559 198.332C194.007 199.38 198.919 200.828 204.05 203C203.824 204.839 203.824 204.839 203.087 207C201.299 208.372 201.299 208.372 198.993 209.578C198.171 210.016 197.349 210.455 196.502 210.906C195.638 211.35 194.774 211.793 193.883 212.25C192.581 212.938 192.581 212.938 191.253 213.641C189.108 214.773 186.955 215.888 184.8 217C185.117 220.96 185.435 224.92 185.762 229C184.333 229.495 184.333 229.495 182.875 230C182.362 228.087 181.863 226.169 181.371 224.25C181.092 223.183 180.812 222.115 180.525 221.016C179.993 218.031 179.928 216.77 180.95 214C183.351 212.455 185.639 211.143 188.168 209.875C193.007 207.799 193.007 207.799 196.35 204C195.561 203.867 194.771 203.734 193.958 203.598C192.921 203.421 191.884 203.244 190.815 203.062C189.788 202.888 188.761 202.714 187.702 202.535C185.412 202.113 183.193 201.628 180.95 201C181.568 197.826 182.639 195.434 184.228 192.656C184.939 191.413 184.939 191.413 185.665 190.144C186.428 188.835 186.428 188.835 187.206 187.5C187.723 186.607 188.24 185.715 188.773 184.795C192.85 177.85 197.283 171.395 202.125 165C202.76 164.01 203.395 163.02 204.05 162Z" fill="#1A1A1A"/>
<path d="M96.5507 149.688C100.1 150 100.1 150 102.386 151.438C104.594 155.055 105.139 158.732 104.912 163C103.959 164.485 103.959 164.485 102.987 166C102.034 166 101.082 166 100.1 166C100.398 164.391 100.398 164.391 100.701 162.75C101.132 158.478 101.132 158.478 99.1374 155C98.1845 154.67 97.2316 154.34 96.2499 154C90.5683 161.674 90.1929 170.134 89.8733 179.562C89.8361 180.476 89.7989 181.389 89.7605 182.33C89.6709 184.553 89.5883 186.776 89.5124 189C88.5595 188.67 87.6066 188.34 86.6249 188C84.4164 177.101 84.8896 163.299 90.52 153.609C93.1019 150.026 93.1019 150.026 96.5507 149.688Z" fill="#1A1A1A"/>
<path d="M126.087 250C125.629 255.003 124.227 258.031 121.275 262C117.476 264.631 113.839 265.408 109.304 264.563C108.807 264.377 108.311 264.191 107.8 264C108.166 258.391 108.508 255.027 112.612 251C116.685 248.599 121.786 247.765 126.087 250Z" fill="#191919"/>
<path d="M303.188 140C303.823 140.33 304.458 140.66 305.113 141C304.706 149.731 301.914 156.211 297.172 163.375C292.593 170.511 294.503 179.942 295.488 188C294.535 187.67 293.582 187.34 292.6 187C289.637 180.086 289.092 170.567 291.585 163.375C292.791 161.168 294.117 159.099 295.488 157C296.355 155.305 297.197 153.596 298.014 151.875C298.407 151.05 298.801 150.225 299.206 149.375C300.629 146.286 301.929 143.165 303.188 140Z" fill="#1A1A1A"/>
<path d="M134.75 140C133.48 143.594 131.914 146.568 129.877 149.75C125.073 158.036 125.923 164.676 127.557 173.984C127.97 176.722 128.096 179.237 128.012 182C127.059 182 126.107 182 125.125 182C122.488 172.185 119.477 160.301 123.801 150.562C129.971 140 129.971 140 134.75 140Z" fill="#1A1A1A"/>
<path d="M256.025 104C256.66 104 257.295 104 257.95 104C257.509 109.857 255.092 113.963 252.235 118.875C251.796 119.659 251.358 120.442 250.906 121.25C248.463 125.516 248.463 125.516 247.362 127C246.727 127 246.092 127 245.437 127C245.916 122.027 246.932 118.362 249.287 114C248.493 113.608 247.699 113.216 246.881 112.812C246.087 112.214 245.293 111.616 244.475 111C244.114 108.375 244.114 108.375 244.475 106C245.437 105 245.437 105 247.723 104.75C250.25 105 250.25 105 251.994 106.5C252.372 106.995 252.749 107.49 253.137 108C253.574 107.34 254.011 106.68 254.461 106C254.977 105.34 255.493 104.68 256.025 104Z" fill="#1A1A1A"/>
<path d="M77.0002 84C77.0002 84.66 77.0002 85.32 77.0002 86C73.787 87.1128 71.0502 87.3083 67.6685 87.5352C67.0322 87.5782 66.396 87.6213 65.7405 87.6657C63.6789 87.803 61.617 87.9333 59.5549 88.0625C58.8592 88.1074 58.1636 88.1522 57.4468 88.1984C47.2736 88.8501 37.1449 89.2871 26.9502 89C26.9502 88.34 26.9502 87.68 26.9502 87C31.0915 85.997 35.2076 85.6982 39.4401 85.4648C40.1773 85.4219 40.9145 85.3789 41.674 85.3346C43.232 85.2447 44.7901 85.1565 46.3482 85.0701C48.6992 84.939 51.0496 84.801 53.4001 84.6621C61.2729 84.2083 69.1118 83.8465 77.0002 84Z" fill="#1D2B38"/>
<path d="M288.75 131C289.703 131 290.656 131 291.638 131C295.043 138.734 297.658 146.146 295.548 154.625C295.21 155.409 294.873 156.192 294.525 157C293.89 157 293.255 157 292.6 157C292.483 155.915 292.367 154.829 292.247 153.711C292.084 152.266 291.921 150.82 291.758 149.375C291.682 148.662 291.606 147.949 291.528 147.215C291.033 142.899 290.105 139.13 288.75 135C288.75 133.68 288.75 132.36 288.75 131Z" fill="#1A1A1A"/>
<path d="M106.837 143.187C109.874 144.042 110.716 144.505 112.612 147C113.172 149.121 113.172 149.121 113.394 151.437C113.48 152.199 113.565 152.961 113.654 153.746C113.564 156.313 112.895 157.807 111.65 160C110.697 160 109.744 160 108.762 160C108.762 156.04 108.762 152.08 108.762 148C104.474 148.495 104.474 148.495 100.1 149C101.233 144.292 102.042 142.876 106.837 143.187Z" fill="#1A1A1A"/>
<path d="M56.5097 93.9023C57.707 93.9056 58.9043 93.9088 60.1378 93.9121C61.3748 93.9205 62.6118 93.9289 63.8863 93.9375C65.1457 93.942 66.405 93.9465 67.7025 93.9512C70.8018 93.9629 73.9011 93.9794 77.0004 94C77.0004 94.66 77.0004 95.32 77.0004 96C72.8654 96.8222 68.9735 97.1177 64.7661 97.0977C63.5688 97.0944 62.3715 97.0912 61.1379 97.0879C59.9009 97.0795 58.6639 97.0711 57.3895 97.0625C56.1301 97.058 54.8708 97.0535 53.5733 97.0488C50.4739 97.0371 47.3747 97.0206 44.2754 97C44.2754 96.34 44.2754 95.68 44.2754 95C48.4103 94.1778 52.3023 93.8823 56.5097 93.9023Z" fill="#1C2834"/>
<path d="M242.55 184C247.256 185.396 249.113 187.88 251.934 191.938C252.684 192.998 253.433 194.059 254.205 195.152C256.025 198 256.025 198 256.987 201C255.717 201 254.446 201 253.137 201C250.934 198.551 250.934 198.551 248.686 195.312C247.939 194.257 247.192 193.201 246.422 192.113C244.74 189.423 243.552 187.018 242.55 184Z" fill="#1A1B1C"/>
<path d="M120.312 157C119.719 159.902 118.82 162.17 117.425 164.75C115.366 168.872 114.854 172.389 114.537 177C113.584 176.67 112.631 176.34 111.65 176C111.059 169.348 111.543 165.051 115.222 159.496C116.844 157.54 117.819 157 120.312 157Z" fill="#1A1A1A"/>
<path d="M251.213 130C252.166 130.33 253.119 130.66 254.1 131C250.491 136.75 250.491 136.75 248.325 139C245.932 138.759 244.684 138.17 242.791 136.625C241.588 135 241.588 135 241.588 132C242.64 132.227 243.692 132.454 244.776 132.688C248.234 133.401 248.234 133.401 250.19 131.562C250.528 131.047 250.865 130.531 251.213 130Z" fill="#1A1A1A"/>
<path d="M283.937 138C286.825 139 286.825 139 287.96 140.672C288.965 143.636 288.936 146.114 288.87 149.25C288.853 150.328 288.835 151.405 288.817 152.516C288.795 153.335 288.773 154.155 288.75 155C287.797 154.67 286.844 154.34 285.862 154C285.536 152.272 285.216 150.542 284.9 148.812C284.721 147.85 284.542 146.887 284.358 145.895C283.967 143.207 283.861 140.712 283.937 138Z" fill="#1A1A1A"/>
<path d="M278.163 144C280.028 144.812 280.028 144.812 282.013 146C283.023 149.149 283.073 151.388 283.035 154.688C283.027 155.681 283.018 156.675 283.009 157.699C282.998 158.458 282.987 159.218 282.975 160C282.022 160 281.069 160 280.088 160C279.761 158.272 279.442 156.542 279.125 154.812C278.947 153.85 278.768 152.887 278.584 151.895C278.193 149.207 278.086 146.712 278.163 144Z" fill="#191919"/>
<path d="M265.65 113C266.612 114 266.612 114 266.732 116.5C266.612 119 266.612 119 265.65 120C263.304 120.188 263.304 120.188 260.837 120C260.202 119.34 259.567 118.68 258.912 118C259.153 115.438 259.153 115.438 259.875 113C262.283 111.749 263.15 112.162 265.65 113Z" fill="#191919"/>
<path d="M58.8324 103.938C59.7084 103.947 60.5843 103.956 61.4868 103.965C62.1593 103.976 62.8318 103.988 63.5246 104C63.5246 104.99 63.5246 105.98 63.5246 107C59.7131 107 55.9016 107 51.9746 107C51.9746 106.34 51.9746 105.68 51.9746 105C54.4047 103.738 56.1249 103.901 58.8324 103.938Z" fill="#1E2F3F"/>
<path d="M38.5002 86C38.1826 86.99 37.8649 87.98 37.5377 89C34.0438 89 30.5499 89 26.9502 89C26.9502 88.34 26.9502 87.68 26.9502 87C30.851 86.0175 34.4949 85.9184 38.5002 86Z" fill="#1B252E"/>
</svg>
