<svg width="56" height="56" viewBox="0 0 56 56" fill="none" xmlns="http://www.w3.org/2000/svg">
<path d="M0 14C0 6.26801 6.26801 0 14 0H42C49.732 0 56 6.26801 56 14V42C56 49.732 49.732 56 42 56H14C6.26801 56 0 49.732 0 42V14Z" fill="#FF7700" fill-opacity="0.1"/>
<path d="M16.3335 25.0832C16.3335 23.785 16.7274 22.5172 17.463 21.4475C18.1986 20.3778 19.2414 19.5563 20.4537 19.0917C21.666 18.627 22.9907 18.5411 24.2528 18.8451C25.515 19.1491 26.6553 19.8289 27.523 20.7946C27.5841 20.8599 27.658 20.912 27.7401 20.9476C27.8222 20.9832 27.9107 21.0016 28.0002 21.0016C28.0896 21.0016 28.1782 20.9832 28.2602 20.9476C28.3423 20.912 28.4162 20.8599 28.4773 20.7946C29.3423 19.8226 30.4829 19.1371 31.7471 18.8294C33.0113 18.5217 34.3392 18.6063 35.5542 19.0719C36.7691 19.5376 37.8134 20.3622 38.5481 21.4361C39.2828 22.51 39.673 23.7821 39.6668 25.0832C39.6668 27.7549 37.9168 29.7499 36.1668 31.4999L29.7595 37.6984C29.5421 37.9481 29.2741 38.1486 28.9732 38.2867C28.6724 38.4249 28.3455 38.4974 28.0145 38.4995C27.6835 38.5016 27.3558 38.4332 27.0532 38.2989C26.7506 38.1646 26.48 37.9675 26.2595 37.7206L19.8335 31.4999C18.0835 29.7499 16.3335 27.7666 16.3335 25.0832Z" stroke="#FF7700" stroke-width="2.33333" stroke-linecap="round" stroke-linejoin="round"/>
</svg>
