<svg width="28" height="28" viewBox="0 0 28 28" fill="none" xmlns="http://www.w3.org/2000/svg">
<path d="M2.9165 7.58341V15.7501C2.9165 20.1496 2.91767 22.3487 4.28384 23.7161C5.65 25.0834 7.85034 25.0834 12.2498 25.0834H15.7498C20.1493 25.0834 22.3485 25.0822 23.7158 23.7161C25.0832 22.3499 25.0832 20.1496 25.0832 15.7501V7.58341M2.9165 7.58341H25.0832M2.9165 7.58341L3.6165 6.65008C4.99084 4.81841 5.678 3.90258 6.66267 3.40908C7.6485 2.91675 8.793 2.91675 11.0832 2.91675H16.9165C19.2067 2.91675 20.3512 2.91675 21.337 3.40908C22.3217 3.90258 23.0088 4.81841 24.3832 6.65008L25.0832 7.58341M6.99984 21.0001H12.8332M6.99984 17.5001H10.4998" stroke="#FF7700" stroke-width="2" stroke-linecap="round" stroke-linejoin="round"/>
</svg>
