<svg width="385" height="400" viewBox="0 0 385 400" fill="none" xmlns="http://www.w3.org/2000/svg">
<path d="M179.025 210C180.931 214.62 182.836 219.24 184.8 224C186.261 223.122 187.723 222.244 189.229 221.34C191.161 220.205 193.093 219.071 195.026 217.938C195.988 217.357 196.95 216.776 197.94 216.178C199.345 215.361 199.345 215.361 200.779 214.527C201.636 214.019 202.493 213.511 203.375 212.988C208.693 210.967 213.281 213.505 218.125 215.83C218.9 216.216 219.674 216.602 220.473 217C221.28 217.402 222.088 217.803 222.92 218.217C233.959 223.845 243.3 231.165 252.175 240C252.906 240.696 253.636 241.392 254.389 242.109C260.469 248.087 264.932 254.755 269.5 262C270.135 262.99 270.77 263.98 271.425 265C271.845 263.407 271.845 263.407 272.275 261.781C276.614 245.981 276.614 245.981 282.012 241C283.144 240.484 284.275 239.969 285.441 239.438C288.479 237.95 288.82 236.819 290.111 233.461C290.753 231.391 291.334 229.324 291.856 227.219C292.371 225.238 292.371 225.238 293.562 222C295.99 220.817 297.169 220.923 299.738 221.738C301.026 222.341 301.026 222.341 302.341 222.957C303.312 223.406 304.283 223.854 305.283 224.316C306.319 224.81 307.354 225.304 308.421 225.813C309.482 226.311 310.544 226.809 311.637 227.323C313.835 228.358 316.03 229.4 318.222 230.448C321.315 231.924 324.419 233.374 327.524 234.82C329.359 235.691 331.192 236.563 333.025 237.438C333.887 237.838 334.748 238.238 335.636 238.65C336.815 239.223 336.815 239.223 338.018 239.809C338.706 240.137 339.395 240.465 340.105 240.802C341.687 242 341.687 242 342.436 243.946C342.859 248.002 341.282 251.932 340.24 255.809C339.697 259.437 340.272 260.72 341.687 264C343.275 276.447 339.847 287.384 335.912 299C335.614 299.891 335.315 300.782 335.007 301.701C329.809 317.019 323.991 331.512 313.775 344C312.673 345.547 312.673 345.547 311.549 347.125C305.197 354.186 297.279 358.402 288.75 362C287.321 362.619 287.321 362.619 285.862 363.25C277.574 365.403 269.196 366.042 261.477 361.75C259.622 360.56 257.818 359.287 256.025 358C255.707 360.97 255.39 363.94 255.062 367C254.109 367 253.157 367 252.175 367C252.184 366.045 252.192 365.09 252.201 364.105C252.013 355.593 251.128 350.365 246.009 343.367C244.377 340.85 243.88 338.984 243.512 336C245.182 336.086 245.182 336.086 247.362 337C248.865 339.189 250.165 341.307 251.453 343.625C255.453 350.436 259.481 355.795 266.492 359.438C280.096 361.982 292.227 356.486 303.33 348.516C322.061 332.978 332.612 300.518 336.875 277C337.312 272.251 337.64 267.936 335.875 263.469C333.684 257.622 336.071 250.751 337.837 245C337.002 244.725 336.167 244.451 335.306 244.167C332.213 243.054 329.324 241.765 326.363 240.32C325.296 239.803 324.229 239.286 323.129 238.754C322.027 238.216 320.926 237.679 319.79 237.125C312.406 233.526 305.031 230.033 297.412 227C297.154 227.953 296.896 228.905 296.63 229.887C293.169 241.397 293.169 241.397 288.75 243.875C288.09 244.214 287.43 244.553 286.75 244.902C280.493 248.615 278.997 257.181 277.207 263.847C275.34 271.472 274.348 279.29 273.23 287.062C272.867 289.557 272.503 292.051 272.131 294.544C271.902 296.079 271.679 297.615 271.462 299.151C270.89 303.014 270.108 306.442 268.537 310C267.585 310 266.632 310 265.65 310C265.962 303.45 266.389 297.046 267.522 290.594C270.07 277.241 270.07 277.241 265.789 264.801C265.108 263.877 264.427 262.952 263.725 262C263.123 261.142 263.123 261.142 262.508 260.267C248.82 240.775 231.296 227.162 209.825 218C210.831 225.623 212.115 233.017 214.073 240.441C214.637 243 214.637 243 214.637 247C206.664 246.834 200.32 242.833 193.462 239C188.173 242.659 188.173 242.659 185.149 248.21C185.057 250.782 185.196 253.231 185.432 255.793C185.513 257.232 185.513 257.232 185.596 258.7C185.716 260.778 185.854 262.855 186.007 264.93C186.329 269.364 186.55 273.802 186.775 278.243C186.893 280.574 187.015 282.905 187.141 285.235C187.779 297.125 188.202 309.01 188.354 320.917C188.39 323.161 188.446 325.404 188.521 327.647C188.934 340.097 189.053 349.018 180.612 358.44C179.771 359.285 178.929 360.13 178.062 361C176.433 362.853 174.845 364.74 173.25 366.625C172.208 367.789 172.208 367.789 171.144 368.977C169.256 371.071 169.256 371.071 167.475 374C165.351 373.98 165.351 373.98 162.662 373C160.795 370.645 159.502 368.012 158.151 365.312C157.775 364.604 157.4 363.896 157.013 363.166C150.562 350.758 151.478 339.833 154.301 326.312C154.549 325.095 154.797 323.877 155.053 322.623C159.301 302.222 164.729 282.013 170.404 261.996C170.678 261.027 170.952 260.059 171.235 259.061C171.711 257.398 172.198 255.739 172.697 254.084C174.719 247.119 174.962 241.947 172.287 235C165.935 236.32 159.582 237.64 153.037 239C152.075 235 152.075 235 153.114 232.802C153.643 232.027 154.173 231.252 154.718 230.453C155.569 229.187 155.569 229.187 156.438 227.895C157.043 227.022 157.648 226.149 158.271 225.25C158.872 224.362 159.473 223.474 160.093 222.559C161.58 220.364 163.079 218.179 164.587 216C134.812 224.13 112.617 236.466 91.4374 260C90.9274 260.552 90.4175 261.103 89.8921 261.672C87.9945 264.963 88.2555 267.478 88.3356 271.293C88.3485 272.351 88.3485 272.351 88.3618 273.431C88.3906 275.684 88.4384 277.935 88.4897 280.188C88.926 301.218 88.926 301.218 85.6624 308C84.7095 308 83.7566 308 82.7749 308C82.8443 307.245 82.9138 306.489 82.9854 305.711C85.9756 281.091 85.9756 281.091 80.0077 258.375C77.9184 256.97 76.5845 256.241 74.1124 256C73.2715 256.237 73.2715 256.237 72.4137 256.478C67.755 257.609 62.8113 257.185 58.0506 257.188C56.947 257.2 55.8434 257.212 54.7063 257.225C48.3444 257.236 42.722 256.721 36.5749 255C36.5749 254.01 36.5749 253.02 36.5749 252C48.9622 252 61.3496 252 74.1124 252C74.43 248.04 74.7476 244.08 75.0749 240C73.4867 240.33 71.8986 240.66 70.2624 241C58.6641 241.74 47.0203 240.059 35.6124 238C35.5516 238.88 35.4908 239.761 35.4281 240.668C34.4678 250.131 34.4678 250.131 32.2286 252.625C31.0643 253.34 29.8869 254.033 28.6982 254.703C24.5482 257.782 22.5541 263.764 21.6136 268.81C18.1744 293.818 22.5304 319.76 37.2065 340.223C43.8078 348.562 50.9656 352.258 61.1788 353.375C78.8631 352.729 95.0467 341.823 108.029 330.238C108.553 329.773 109.076 329.309 109.615 328.83C111.096 327.502 112.562 326.156 114.026 324.809C114.83 324.212 115.634 323.615 116.462 323C117.892 323.495 117.892 323.495 119.35 324C117.27 327.98 114.897 330.973 111.65 334C111.015 334 110.379 334 109.725 334C109.725 340.6 109.725 347.2 109.725 354C108.772 354.33 107.819 354.66 106.837 355C106.52 349.39 106.202 343.78 105.875 338C104.872 338.713 103.87 339.426 102.837 340.16C88.3407 350.301 73.648 359.328 55.5504 357.719C45.0929 355.588 36.9867 348.679 30.7134 339.953C16.728 317.489 12.0042 290.229 17.3249 264C19.0871 258.572 21.0157 254.606 25.6264 251.375C30.0786 247.949 30.2698 242.732 31.0786 237.384C31.3258 235.592 31.5467 233.796 31.7624 232C35.2095 232.413 38.6218 232.833 42.0315 233.51C49.9533 235.078 57.5828 235.202 65.6303 235.063C68.1306 235.026 70.6307 234.998 73.1311 234.973C74.7673 234.946 74.7673 234.946 76.4366 234.918C78.9249 235 78.9249 235 79.8874 236C79.6784 237.69 79.4666 239.38 79.2386 241.068C78.3298 247.587 78.3298 247.587 80.5716 253.551C82.5159 255.262 84.4056 256.703 86.6249 258C87.2887 257.227 87.9524 256.453 88.6363 255.656C101.984 240.226 116.538 228.537 134.75 220C135.733 219.528 136.715 219.056 137.728 218.57C144.461 215.606 151.398 213.849 158.512 212.188C159.438 211.968 160.364 211.749 161.318 211.523C167.342 210.193 172.869 209.796 179.025 210ZM167.475 215C167.386 215.534 167.296 216.067 167.204 216.617C166.289 219.77 164.772 222.303 163.144 225.125C160.883 229.008 160.883 229.008 158.812 233C164.196 232.096 169.539 231.074 174.814 229.625C175.601 229.411 176.387 229.197 177.198 228.977C179.154 228.166 179.154 228.166 179.886 226.227C180.019 223.308 179.239 221.421 178.123 218.75C177.757 217.858 177.391 216.966 177.013 216.047C176.724 215.371 176.435 214.696 176.137 214C172.987 214 170.51 214.299 167.475 215ZM202.332 218.863C201.662 219.256 200.993 219.648 200.303 220.053C199.269 220.676 199.269 220.676 198.215 221.313C197.522 221.717 196.829 222.121 196.115 222.537C192.906 224.441 190.229 226.179 187.687 229C190.129 230.633 192.576 232.256 195.026 233.875C195.713 234.335 196.399 234.795 197.106 235.27C197.782 235.714 198.458 236.159 199.155 236.617C199.77 237.026 200.385 237.434 201.018 237.855C203.612 239.367 203.612 239.367 208.862 241C208.227 233.41 207.592 225.82 206.937 218C207.89 217.67 208.843 217.34 209.825 217C206.15 217 205.303 217.11 202.332 218.863Z" fill="#19191A"/>
<path d="M185.763 231C188.513 232.784 190.998 234.816 193.463 237C192.374 240.394 191.798 240.656 189.086 242.582C187.015 244.375 185.918 245.374 185.239 248.108C185.168 250.673 185.307 253.139 185.526 255.695C185.579 256.656 185.631 257.617 185.686 258.607C185.803 260.69 185.935 262.773 186.08 264.854C186.464 270.457 186.712 276.067 186.985 281.676C187.044 282.842 187.104 284.008 187.166 285.21C187.772 297.109 188.197 309.003 188.353 320.918C188.39 323.161 188.446 325.404 188.522 327.646C188.934 340.097 189.054 349.018 180.613 358.44C179.771 359.285 178.93 360.13 178.063 361C176.433 362.853 174.846 364.74 173.25 366.625C172.555 367.401 171.86 368.177 171.145 368.977C169.256 371.071 169.256 371.071 167.475 374C165.351 373.98 165.351 373.98 162.663 373C160.795 370.645 159.502 368.012 158.151 365.312C157.776 364.604 157.4 363.896 157.014 363.166C150.563 350.758 151.479 339.833 154.301 326.313C154.549 325.095 154.797 323.877 155.053 322.623C159.302 302.222 164.729 282.013 170.404 261.996C170.678 261.027 170.952 260.059 171.235 259.061C171.711 257.398 172.198 255.739 172.697 254.084C174.464 247.999 174.745 242.32 173.731 236C173.493 234.515 173.493 234.515 173.25 233C181.461 230.27 181.461 230.27 185.763 231Z" fill="#FF7700"/>
<path d="M181.672 99.3125C189.456 101.023 194.749 107.135 200.107 112.889C204.015 117.061 208.233 120.527 212.712 124C220.276 129.989 224.134 136.199 226.499 145.801C227.115 148.255 227.115 148.255 229.075 151C229.592 158.253 229.747 168.386 225.465 174.344C222.913 176.296 221.385 176.578 218.247 176.75C217.388 176.807 216.529 176.863 215.645 176.922C214.995 176.948 214.345 176.973 213.675 177C213.169 178.825 213.169 178.825 212.652 180.688C210.241 188.262 206.375 195.377 202.125 202C201.688 204.279 201.688 204.279 201.523 206.688C201.451 207.496 201.379 208.304 201.305 209.137C201.258 209.752 201.211 210.366 201.162 211C200.209 211.33 199.257 211.66 198.275 212C196.572 205.18 196.804 200.144 200.101 194.039C201.673 191.327 203.276 188.636 204.881 185.945C207.357 181.541 209.059 176.764 210.787 172C211.46 171.939 212.132 171.879 212.825 171.816C213.701 171.733 214.577 171.649 215.479 171.562C216.35 171.481 217.221 171.4 218.119 171.316C220.423 171.13 220.423 171.13 222.337 170C222.337 168.68 222.337 167.36 222.337 166C221.329 165.636 221.329 165.636 220.299 165.266C219.424 164.93 218.548 164.595 217.645 164.25C216.774 163.925 215.903 163.6 215.006 163.266C212.303 161.774 211.685 161.009 210.787 158C210.599 155.203 210.599 155.203 210.667 152.25C210.684 151.265 210.702 150.28 210.72 149.266C210.742 148.518 210.764 147.77 210.787 147C210.152 147 209.517 147 208.862 147C209.339 148.98 209.339 148.98 209.825 151C205.975 151 205.975 151 203.087 150C201.154 150.276 199.226 150.602 197.312 151C197.864 148.133 198.141 147.139 200.2 145C202.106 144.505 202.106 144.505 204.05 144C199.762 142.02 199.762 142.02 195.387 140C195.387 141.32 195.387 142.64 195.387 144C191.483 143.532 188.201 143.12 184.8 141C184.8 142.32 184.8 143.64 184.8 145C186.07 145.33 187.341 145.66 188.65 146C189.126 148.475 189.126 148.475 189.612 151C188.739 150.959 187.865 150.917 186.965 150.875C183.898 150.998 182.608 151.542 179.987 153C179.352 152.67 178.717 152.34 178.062 152C178.015 152.643 177.968 153.286 177.919 153.949C177.5 159.222 176.912 164.405 176.077 169.625C174.653 179.19 174.468 186.252 179.025 195C179.739 195.66 180.454 196.32 181.19 197C183.752 200.041 183.162 203.046 183.01 206.953C182.965 207.629 182.921 208.304 182.875 209C181.445 209.495 181.445 209.495 179.987 210C179.915 209.432 179.843 208.863 179.769 208.277C179.031 203.776 178.212 200.754 175.175 197.375C169.852 191.427 170.002 184.697 170.114 176.902C170.722 167.345 172.43 157.803 176.137 149C177.09 149 178.043 149 179.025 149C179.342 148.01 179.66 147.02 179.987 146C178.399 145.34 176.811 144.68 175.175 144C174.857 145.65 174.54 147.3 174.212 149C164.566 145.504 159.007 135.757 154 127C152.765 123.15 152.973 120.053 153.037 116C156.372 115.505 156.372 115.505 159.775 115C159.695 113.762 159.616 112.525 159.534 111.25C159.55 108.193 159.671 107.172 161.279 104.5C164.491 102.446 166.651 102.587 170.362 103C172.708 104 172.708 104 174.212 105C174.887 104.175 175.562 103.35 176.258 102.5C179.025 100 179.025 100 181.672 99.3125Z" fill="#191919"/>
<path d="M120.846 26.9102C124.993 29.4382 127.965 32.3893 129.937 37C130.945 44.1105 130.237 50.1739 126.087 56C122.22 60.6098 118.088 64.6096 113.274 68.125C109.028 71.2975 106.673 74.8099 105.333 80.1641C104.758 84.0375 104.563 87.901 104.371 91.8125C104.329 92.6008 104.288 93.389 104.245 94.2012C104.143 96.1339 104.046 98.0669 103.95 100C101.567 100.495 101.567 100.495 99.1371 101C95.0449 93.914 95.3094 83.3563 96.6933 75.4727C99.3142 66.102 105.812 61.014 113.011 55.2109C116.842 51.8076 120.056 48.4514 120.613 43.125C120.557 39.9595 120.557 39.9595 118.748 37.6875C115.861 35.5563 114.24 35.071 110.687 35C104.804 36.2488 101.608 38.8028 98.1746 44C97.1563 45.97 96.1742 47.9627 95.2871 50C93.699 49.67 92.1109 49.34 90.4746 49C90.933 42.3324 92.14 36.4626 96.6895 31.457C103.563 25.2917 112.122 23.6808 120.846 26.9102Z" fill="#FF7700"/>
<path d="M298.555 59.5C304.346 62.9291 308.893 68.3831 310.887 75C311.688 82.6463 311.714 88.8622 307.037 95C303.365 99.0019 301.063 100.048 295.908 101.25C292.998 102.211 291.218 102.931 289.757 105.804C288.429 109.541 287.55 113.34 286.731 117.227C285.862 121 285.862 121 283.937 123C281.952 122.812 281.952 122.812 280.087 122C279.104 118.936 279.126 117.812 279.595 114.727C279.719 113.902 279.844 113.077 279.973 112.227C280.178 110.939 280.178 110.939 280.388 109.625C280.577 108.349 280.577 108.349 280.77 107.047C282.194 97.869 282.194 97.869 283.937 95C286.483 94.0312 286.483 94.0312 289.532 93.5C294.713 92.3704 297.147 91.4046 300.3 87C301.848 83.7831 301.712 80.4889 301.262 77C299.123 72.6365 296.979 69.9046 292.6 68C288.61 67.4724 286.464 67.6873 282.854 69.5625C279.593 72.4353 277.609 75.2903 275.275 79C274.004 78.67 272.734 78.34 271.425 78C271.34 72.5606 272.022 68.8513 275.455 64.625C281.948 57.7698 289.836 55.5422 298.555 59.5Z" fill="#FF7700"/>
<path d="M341.687 122C345.722 125.828 347.289 129.013 347.586 134.563C347.285 140.478 345.987 145.308 342.229 149.813C339.441 151.909 336.426 152.92 333.205 154.125C327.073 156.57 324.155 160.254 320.452 165.77C319.837 166.506 319.221 167.242 318.587 168C317.317 168 316.046 168 314.737 168C315.056 161.718 317.385 156.551 321.475 152C324.863 149.703 328.46 147.864 332.141 146.132C336.428 144.156 336.428 144.156 339.27 140.426C339.889 137.374 340.199 135.11 339.762 132C337.959 128.959 337.959 128.959 334.95 127C329.392 126.148 326.119 127.17 321.339 130.125C319.55 131 319.55 131 315.7 131C315.908 127.206 316.608 126.056 319.249 123.313C326.31 117.758 334.008 117.568 341.687 122Z" fill="#FF7700"/>
<path d="M56.7873 114C60.962 116.252 63.6538 118.439 65.4498 123C66.1007 128.893 65.1773 131.952 62.4646 137.059C60.1573 142.239 61.8287 146.934 63.5248 152C63.6451 154.875 63.6451 154.875 63.5248 157C62.2543 157 60.9838 157 59.6748 157C52.7846 144.025 52.7846 144.025 53.8998 138C54.8549 135.958 55.8946 133.982 56.9527 131.996C58.2229 128.815 57.6147 126.24 56.7873 123C56.4697 122.67 56.1521 122.34 55.8248 122C51.82 122.16 49.607 122.592 46.3803 125.125C43.9058 128.504 43.2029 130.89 42.3498 135C41.0793 134.67 39.8088 134.34 38.4998 134C38.1645 129.103 37.9992 125.17 39.9436 120.625C44.6326 115.51 49.8968 112.939 56.7873 114Z" fill="#FF7700"/>
<path d="M203.087 29C207.552 30.6947 210.394 32.6464 212.712 37C213.659 41.5643 213.682 45.3205 211.333 49.3906C208.544 52.8548 206.539 55.2593 202.125 56C202.165 57.0312 202.204 58.0625 202.245 59.125C202.129 62.8683 201.5 65.5373 200.2 69C198.929 68.67 197.659 68.34 196.35 68C195.908 62.5756 195.646 57.4085 196.35 52C198.184 49.812 199.656 49.0594 202.208 47.9492C204.431 47.0551 204.431 47.0551 205.494 43.6875C205.652 42.8006 205.811 41.9138 205.975 41C203.908 38.4544 202.819 37.1201 199.598 36.5625C198.844 36.7069 198.09 36.8513 197.312 37C195.257 40.2038 195.165 41.0194 195.267 44.6875C195.284 45.4957 195.302 46.304 195.32 47.1367C195.342 47.7516 195.364 48.3665 195.387 49C194.117 49.33 192.846 49.66 191.537 50C188.848 46.2741 188.191 43.4596 188.372 38.9258C188.916 35.1595 190.732 32.8992 193.162 30.1875C196.442 28.4376 199.52 28.4776 203.087 29Z" fill="#FF7700"/>
<path d="M9.625 206C12.216 207.097 13.6021 208.144 15.5203 210.312C22.0097 216.615 30.0136 218.811 38.4962 220.91C41.6705 222.107 42.6958 222.945 44.275 226C44.4555 228.75 44.4555 228.75 44.275 231C43.3221 231 42.3692 231 41.3875 231C41.2113 230.381 41.0351 229.763 40.8536 229.125C38.7909 225.974 36.0047 225.751 32.6047 225C24.0307 222.86 15.3735 219.959 10.2266 211.938C9.625 210 9.625 210 9.625 206Z" fill="#191919"/>
<path d="M375.375 222C375.272 225.638 374.209 227.6 371.766 230.062C362.597 237.568 349.045 238.275 337.838 240C337.838 238.68 337.838 237.36 337.838 236C342.094 234.362 346.287 233.013 350.73 232.051C351.866 231.805 351.866 231.805 353.024 231.554C354.545 231.231 356.069 230.921 357.595 230.622C363.091 229.458 367.24 227.543 371.225 223.25C372.488 222 372.488 222 375.375 222Z" fill="#191919"/>
<path d="M340.725 207C340.725 207.99 340.725 208.98 340.725 210C335.597 211.204 330.54 212.079 325.303 212.602C318.74 213.285 312.968 214.087 308 219C307.047 220.485 307.047 220.485 306.075 222C305.122 222 304.169 222 303.188 222C303.674 217.575 305.016 215.184 308 212C317.243 205.518 330.043 206.746 340.725 207Z" fill="#191919"/>
<path d="M61.6002 192C65.1164 193.25 66.2016 193.671 68.3377 197C68.8189 199.75 68.8189 199.75 68.3377 203C66.9197 204.928 65.4114 206.604 63.732 208.289C62.3287 209.936 62.3287 209.936 62.8033 212.07C63.5711 214.123 64.4496 216.059 65.4502 218C64.4973 218.33 63.5444 218.66 62.5627 219C59.976 217.5 59.976 217.5 57.7502 215C57.0885 211.688 57.0885 211.688 57.7502 208C59.4385 205.402 61.3724 203.19 63.5252 201C63.2076 200.257 62.8899 199.515 62.5627 198.75C61.6002 196 61.6002 196 61.6002 192Z" fill="#1A1A1A"/>
<path d="M282.975 126C283.61 126.33 284.245 126.66 284.9 127C285.75 130.6 286.289 132.983 284.84 136.437C282.975 138 282.975 138 280.087 138.375C277.2 138 277.2 138 274.312 136C273.458 132.859 273.095 130.816 274.072 127.687C276.552 124.208 279.386 125.044 282.975 126Z" fill="#FF7700"/>
<path d="M69.3005 159C71.1052 160.063 71.1052 160.063 72.188 162C72.5426 165.439 72.7498 167.901 71.1653 171C68.1186 172.634 65.7871 171.853 62.563 171C60.3369 167.531 60.2291 166.078 60.638 162C62.7643 158.318 65.4327 158.498 69.3005 159Z" fill="#FF7700"/>
<path d="M203.087 74C204.355 80.2268 204.355 80.2268 203.087 83.4375C201.162 85 201.162 85 197.793 85.5625C194.425 85 194.425 85 192.439 82.875C191.537 80 191.537 80 192.078 76.8125C193.462 74 193.462 74 195.146 72.5C198.213 71.7919 200.234 72.7872 203.087 74Z" fill="#FF7700"/>
<path d="M107.8 107C109.147 109.799 109.005 111.905 108.762 115C107.74 116.875 107.74 116.875 105.875 118C102.446 118.375 102.446 118.375 99.1372 118C96.7534 114.285 96.6839 112.391 97.2122 108C100.872 104.31 103.377 104.807 107.8 107Z" fill="#FF7700"/>
<path d="M315.7 172C316.663 173 316.663 173 316.903 176.375C316.663 180 316.663 180 315.58 181.938C312.919 183.504 311.001 183.39 308 183C306.195 181.875 306.195 181.875 305.113 180C304.704 175.922 304.811 174.469 307.038 171C310.678 169.739 312.2 170.577 315.7 172Z" fill="#FF7700"/>
<path d="M71.2246 204C72.9691 204.5 72.9691 204.5 75.0746 206C78.2377 212.573 79.2517 219.241 77.3079 226.414C76.6329 228.304 75.8628 230.158 75.0746 232C74.1217 232 73.1689 232 72.1871 232C72.1921 231.436 72.1972 230.872 72.2024 230.291C72.2226 227.694 72.235 225.097 72.2473 222.5C72.2553 221.613 72.2634 220.726 72.2717 219.812C72.2907 214.442 71.9834 209.314 71.2246 204Z" fill="#191919"/>
<path d="M358.05 206C358.685 206.33 359.32 206.66 359.975 207C358.405 212.336 355.652 214.644 351.012 217.25C347.375 218.304 344.505 218.322 340.725 218C340.09 217.01 339.454 216.02 338.8 215C339.733 214.752 340.666 214.505 341.627 214.25C347.456 212.514 353.429 210.175 358.05 206Z" fill="#1A1A1A"/>
<path d="M18.2871 201C21.7491 201.602 23.6723 203.063 26.348 205.375C29.6493 208.136 32.6986 210.245 36.5746 212C36.5746 212.99 36.5746 213.98 36.5746 215C29.8825 214.752 26.0203 212.815 21.1746 208C18.2871 203.875 18.2871 203.875 18.2871 201Z" fill="#1A1A1A"/>
<path d="M199.238 178C198.778 183.373 198.778 183.373 196.771 185.875C193.235 187.571 190.615 187.321 186.725 187C185.772 186.34 184.819 185.68 183.838 185C183.657 181.875 183.657 181.875 183.838 179C184.671 179.464 184.671 179.464 185.522 179.938C188.414 181.431 188.414 181.431 191.538 182C197.747 178 197.747 178 199.238 178Z" fill="#1A1A1A"/>
<path d="M190.575 154C191.528 154.33 192.481 154.66 193.463 155C193.166 157.792 192.865 160.584 192.56 163.375C192.476 164.169 192.393 164.963 192.306 165.781C191.647 171.773 191.647 171.773 190.575 174C189.622 174 188.669 174 187.688 174C187.45 167.429 187.715 161.317 189.613 155C189.93 154.67 190.248 154.34 190.575 154Z" fill="#191919"/>
<path d="M366.713 216C367.666 216 368.618 216 369.6 216C369.387 219.876 368.698 220.94 365.931 223.688C360.02 228.143 360.02 228.143 356.366 227.625C355.651 227.419 354.937 227.212 354.2 227C355.418 223.205 356.622 222.857 359.915 220.938C363.556 218.804 363.556 218.804 366.713 216Z" fill="#1A1A1A"/>
<path d="M30.7998 196C35.3222 196.285 37.5621 198.472 40.7632 201.508C42.4169 203.119 42.4169 203.119 44.6959 204.75C45.1922 205.163 45.6885 205.575 46.1998 206C46.1998 206.66 46.1998 207.32 46.1998 208C41.3484 208.615 38.8873 207.44 35.1762 204.438C33.1872 202.517 31.9304 200.557 30.7998 198C30.7998 197.34 30.7998 196.68 30.7998 196Z" fill="#1A1A1A"/>
<path d="M333.988 214C333.867 216.75 333.867 216.75 333.025 220C329.95 222.823 328.112 223.934 324.002 224.25C323.168 224.167 322.334 224.085 321.475 224C321.158 223.01 320.84 222.02 320.513 221C321.296 220.619 321.296 220.619 322.096 220.23C322.784 219.886 323.473 219.542 324.182 219.188C324.863 218.851 325.545 218.515 326.246 218.168C328.267 217.095 328.267 217.095 329.728 215.363C331.1 214 331.1 214 333.988 214Z" fill="#191919"/>
<path d="M45.2373 196C50.5112 197.545 54.9723 200.155 59.6748 203C59.6748 203.66 59.6748 204.32 59.6748 205C57.1381 205.995 55.999 206.058 53.3772 205.18C52.5372 204.749 51.6973 204.319 50.8318 203.875C49.9844 203.46 49.137 203.045 48.2639 202.617C46.1998 201 46.1998 201 45.4291 198.32C45.3658 197.555 45.3025 196.789 45.2373 196Z" fill="#1A1A1A"/>
<path d="M364.788 214C362.686 218.488 360.655 220.306 356.125 222C353.358 221.688 353.358 221.688 351.312 221C352.473 217.384 353.307 217.053 356.426 215.25C357.176 214.801 357.927 214.353 358.7 213.891C361.229 212.884 362.294 213.028 364.788 214Z" fill="#1A1A1A"/>
<path d="M202.125 155C204.17 155.375 204.17 155.375 205.975 156C206.095 161.75 206.095 161.75 205.012 164C203.424 163.67 201.836 163.34 200.2 163C200.079 160.125 200.079 160.125 200.2 157C200.835 156.34 201.47 155.68 202.125 155Z" fill="#191919"/>
<path d="M182.875 155C184.145 155.66 185.416 156.32 186.725 157C186.407 159.31 186.089 161.62 185.762 164C184.174 164 182.586 164 180.95 164C180.829 160.625 180.829 160.625 180.95 157C181.585 156.34 182.22 155.68 182.875 155Z" fill="#1A1A1A"/>
</svg>
