<svg width="56" height="56" viewBox="0 0 56 56" fill="none" xmlns="http://www.w3.org/2000/svg">
<path d="M0 14C0 6.26801 6.26801 0 14 0H42C49.732 0 56 6.26801 56 14V42C56 49.732 49.732 56 42 56H14C6.26801 56 0 49.732 0 42V14Z" fill="#FF7700" fill-opacity="0.1"/>
<path d="M28 21V28L32.6667 30.3333" stroke="#FF7700" stroke-width="2.33333" stroke-linecap="round" stroke-linejoin="round"/>
<path d="M28.0002 39.6666C34.4435 39.6666 39.6668 34.4432 39.6668 27.9999C39.6668 21.5566 34.4435 16.3333 28.0002 16.3333C21.5568 16.3333 16.3335 21.5566 16.3335 27.9999C16.3335 34.4432 21.5568 39.6666 28.0002 39.6666Z" stroke="#FF7700" stroke-width="2.33333" stroke-linecap="round" stroke-linejoin="round"/>
</svg>
