<svg width="385" height="400" viewBox="0 0 385 400" fill="none" xmlns="http://www.w3.org/2000/svg">
<path d="M161.58 55.0625C166.252 59.4882 169.16 64.0519 169.701 70.6875C169.675 75.4594 167.861 78.9704 165.55 83C166.185 82.175 166.82 81.35 167.475 80.5C170.551 77.8367 172.076 77.3442 176.044 77.6602C183.339 78.8882 189.354 82.3736 194.215 88.231C198.076 94.0554 200.063 101.31 202.206 107.966C203.182 110.218 204.139 111.444 205.975 113C209.446 114.202 211.952 114.327 215.6 114C218.19 112.206 220.145 110.278 222.337 108C222.079 114.048 221.454 118.238 217.525 123C214.079 125.732 211.168 126.34 206.938 127C206.693 127.88 206.449 128.761 206.197 129.668C205.866 130.829 205.534 131.991 205.193 133.188C204.869 134.336 204.545 135.485 204.212 136.668C203.087 140 203.087 140 201.595 142.566C200.024 145.306 199.487 147.635 198.877 150.75C196.787 159.858 193.312 166.669 185.762 172C179.472 176.001 172.762 175.743 165.55 175C159.014 173.351 153.044 169.894 148.225 165C146.781 162.125 146.781 162.125 146.3 160C147.054 160.557 147.809 161.114 148.586 161.688C158.203 168.365 166.479 170.908 178.062 170C183.119 168.779 185.933 166.185 188.951 161.875C193.468 154.082 194.854 145.975 195.387 137C192.163 135.213 189.383 134.56 185.762 134C184.81 133.67 183.857 133.34 182.875 133C183.828 131.515 183.828 131.515 184.8 130C191.681 129.433 191.681 129.433 195.387 132C196.033 125.858 196.033 125.858 194.384 120.105C193.188 118.667 191.884 117.328 190.575 116C189.94 115.01 189.304 114.02 188.65 113C184.87 114.537 181.171 116.228 177.461 117.938C167.281 122.538 157.408 125.199 146.3 125C146.161 125.639 146.022 126.279 145.879 126.938C145.337 129 145.337 129 144.375 130C142.752 130.072 141.127 130.084 139.502 130.063C138.175 130.049 138.175 130.049 136.822 130.035C135.796 130.018 135.796 130.018 134.75 130C132.717 133.754 132.73 135.788 133.787 140C136.257 142.565 138.096 142.54 141.488 143C142.303 153.744 142.735 164.46 143.033 175.232C142.81 194.298 142.81 194.298 149.067 211.687C151.09 213.28 151.09 213.28 153.759 212.75C154.474 212.502 155.189 212.255 155.925 212C158.67 204.531 159.664 197.369 160.437 189.437C160.624 187.638 160.624 187.638 160.815 185.803C161.118 182.869 161.413 179.935 161.7 177C163.625 179 163.625 179 163.813 180.945C163.75 182.964 163.688 184.982 163.625 187C164.722 187.026 165.819 187.052 166.949 187.078C185.503 187.696 205.195 189.602 219.45 203C219.474 201.984 219.498 200.968 219.523 199.921C219.738 190.953 219.968 181.986 220.22 173.019C220.349 168.435 220.459 163.851 220.555 159.266C220.607 157.51 220.659 155.755 220.713 154C220.723 153.233 220.733 152.465 220.743 151.675C220.925 146.823 221.841 144.348 225.225 141C228.429 140.466 228.429 140.466 232.205 140.605C233.223 140.636 233.223 140.636 234.262 140.667C241.527 140.929 248.766 141.588 255.999 142.313C257.406 142.448 258.814 142.582 260.222 142.716C263.876 143.065 267.53 143.422 271.184 143.781C277.058 144.358 282.934 144.924 288.81 145.487C290.845 145.683 292.878 145.884 294.912 146.085C296.153 146.205 297.394 146.325 298.672 146.449C299.756 146.556 300.841 146.662 301.958 146.772C305.279 147.012 308.522 147.146 311.85 147C313.602 145.45 313.602 145.45 314.677 143.25C317.578 138.777 320.273 136.431 325.325 135C332.997 134.014 337.81 135.314 344.214 139.75C348.972 144.433 351.201 149.746 351.433 156.5C351.335 159.341 351.059 161.319 350.35 164C350.189 164.686 350.027 165.372 349.861 166.078C348.184 172.212 345.43 176.84 340.725 181C336.975 182.915 333.991 183.22 329.837 183.125C328.808 183.107 327.78 183.089 326.72 183.07C325.942 183.047 325.164 183.024 324.362 183C324.208 183.94 324.053 184.88 323.893 185.848C323.79 186.475 323.687 187.102 323.58 187.749C323.346 189.171 323.112 190.593 322.878 192.016C322.227 195.968 321.574 199.92 320.917 203.871C319.73 211.023 318.551 218.174 317.448 225.34C317.282 226.396 317.116 227.452 316.945 228.541C316.643 230.47 316.35 232.4 316.068 234.332C315.865 235.606 315.865 235.606 315.659 236.906C315.549 237.631 315.44 238.356 315.327 239.104C314.599 241.446 313.688 242.467 311.85 244C304.913 246.402 296.845 244.972 289.712 244C289.613 244.703 289.514 245.406 289.412 246.131C288.196 254.255 286.394 262.121 284.359 270.062C284.054 271.271 283.749 272.479 283.436 273.725C281.229 282.442 281.229 282.442 280.087 286C284.217 286 288.346 286 292.6 286C292.6 283.03 292.6 280.06 292.6 277C302.052 271.622 313.253 271.815 323.588 274.367C325.325 275 325.325 275 328.212 277C328.606 279.712 328.341 282.244 328.212 285C328.966 284.995 329.72 284.99 330.497 284.984C347.09 284.885 363.611 285.085 380.188 286C380.188 286.66 380.188 287.32 380.188 288C374.391 288.83 368.647 289.295 362.802 289.562C361.9 289.605 360.997 289.647 360.067 289.691C349.771 290.131 339.477 290.096 329.175 290C329.186 290.764 329.197 291.529 329.209 292.316C329.26 298.573 329.182 304.814 328.874 311.062C328.818 312.291 328.763 313.519 328.705 314.785C328.172 318.265 327.681 319.528 325.325 322C322.895 322.502 322.895 322.502 320.016 322.496C318.447 322.497 318.447 322.497 316.847 322.498C315.754 322.478 314.661 322.458 313.534 322.437C312.456 322.445 311.378 322.452 310.267 322.459C304.338 322.412 299.689 322.152 294.525 319C293.141 316.312 293.141 316.312 292.6 314C291.961 314.058 291.322 314.116 290.664 314.176C283.672 314.547 283.672 314.547 280.027 311.687C277.064 307.417 276.943 304.17 277.2 299C278.274 295.138 278.713 294.285 282.012 292C284.4 291.805 284.4 291.805 287.005 291.875C287.873 291.893 288.74 291.911 289.634 291.93C290.295 291.953 290.956 291.976 291.637 292C291.955 291.34 292.273 290.68 292.6 290C287.836 290 283.071 290 278.163 290C278.094 291.011 278.026 292.021 277.956 293.062C277.131 299.918 274.827 306.444 272.809 313C272.395 314.36 271.982 315.721 271.57 317.082C270.566 320.39 269.554 323.696 268.538 327C263.793 328.188 259.011 328.423 254.158 328.756C252.718 328.859 252.718 328.859 251.249 328.963C248.076 329.189 244.903 329.409 241.73 329.629C239.518 329.784 237.306 329.94 235.094 330.095C230.455 330.421 225.816 330.745 221.176 331.066C215.25 331.477 209.325 331.895 203.399 332.314C198.828 332.636 194.257 332.956 189.686 333.274C187.502 333.426 185.319 333.58 183.135 333.734C180.07 333.951 177.005 334.163 173.939 334.373C173.049 334.437 172.159 334.501 171.241 334.567C165.166 334.978 159.125 335.069 153.037 335C153.355 337.64 153.673 340.28 154 343C154.894 342.9 155.788 342.8 156.709 342.696C176.529 340.491 196.366 338.585 216.242 337.017C218.472 336.841 220.701 336.663 222.929 336.482C236.879 335.353 250.696 334.757 264.688 335C264.688 333.02 264.688 331.04 264.688 329C265.323 328.67 265.958 328.34 266.612 328C266.93 330.97 267.248 333.94 267.575 337C249.261 339.683 230.939 341.167 212.498 342.466C208.729 342.732 204.96 343.007 201.191 343.281C189.445 344.133 177.698 344.963 165.949 345.766C163.644 345.93 161.34 346.11 159.037 346.302C149.609 347.01 143.917 343.716 136.254 338.312C135.168 337.581 134.081 336.853 132.992 336.127C130.022 334.124 127.091 332.069 124.162 330C123.047 329.26 123.047 329.26 121.91 328.505C120.038 327.23 120.038 327.23 117.425 325C117.425 323.68 117.425 322.36 117.425 321C115.813 321.062 115.813 321.062 114.169 321.125C96.269 321.092 75.6654 312.231 61.6 301C60.9246 300.153 60.2492 299.306 59.5533 298.433C56.028 295.332 53.2758 295.285 48.8582 295.328C48.0897 295.315 47.3212 295.303 46.5294 295.289C44.0732 295.253 41.6182 295.25 39.1617 295.25C36.752 295.228 34.3425 295.199 31.9329 295.17C30.349 295.15 28.7651 295.134 27.1812 295.12C19.7025 295.042 12.27 294.579 4.8125 294C4.8125 293.34 4.8125 292.68 4.8125 292C10.1568 291.106 15.4354 290.717 20.8404 290.465C21.7068 290.422 22.5731 290.379 23.4658 290.335C26.2112 290.199 28.9567 290.068 31.7023 289.937C33.5728 289.846 35.4433 289.754 37.3138 289.662C41.8799 289.438 46.4461 289.218 51.0125 289C50.6763 288.192 50.34 287.384 49.9936 286.551C49.3366 284.948 49.3366 284.948 48.6664 283.312C48.2309 282.257 47.7954 281.201 47.3467 280.113C42.702 267.503 45.0223 252.979 49.9804 240.808C54.2476 231.217 59.4783 222.768 66.4125 215C67.4677 213.801 67.4677 213.801 68.5443 212.578C86.0209 193.559 108.33 186.907 132.825 185C134.75 184.989 136.675 184.987 138.6 185C138.743 180.231 138.848 175.464 138.917 170.693C138.946 169.071 138.986 167.45 139.036 165.828C139.106 163.494 139.138 161.163 139.164 158.828C139.209 157.744 139.209 157.744 139.254 156.637C139.318 154.306 139.318 154.306 138.6 151C135.878 148.563 135.878 148.563 132.825 147C127.409 140.484 127.841 133.486 128.171 125.417C128.273 120.92 128.263 118.102 125.185 114.625C124.66 114.184 124.136 113.743 123.595 113.289C121.88 111.661 121.653 110.339 121.275 108C121.844 107.986 122.414 107.972 123.001 107.957C127.296 107.688 129.39 107.463 132.825 104.562C134.738 102.191 134.738 102.191 135.712 100C134.998 99.7731 134.283 99.5462 133.547 99.3125C130.363 97.7338 129.024 96.0039 127.05 93C124.847 86.1325 125.082 78.2673 128.012 71.6875C134.848 59.4328 147.583 49.6884 161.58 55.0625ZM178.062 106C177.209 106.743 176.355 107.485 175.476 108.25C164.797 116.005 151.138 116.091 138.6 117C147.267 121.642 156.995 120.11 166.08 117.219C171.619 114.913 175.734 111.287 179.988 107C179.352 106.67 178.717 106.34 178.062 106ZM317.805 145.875C313.956 151.588 312.889 157.14 313.775 164C315.613 170.277 319.295 174.252 324.362 178C327.714 179.741 331.285 179.449 334.95 179C339.598 177.271 342.958 174.343 345.538 170C348.235 163.935 350.43 158.64 348.425 152C345.503 146.279 340.957 141.08 334.95 139C327.533 138.358 322.831 140.074 317.805 145.875ZM225.803 145.532C223.752 148.818 223.682 151.683 223.676 155.48C223.66 156.23 223.644 156.98 223.628 157.752C223.58 160.231 223.56 162.709 223.541 165.188C223.514 166.913 223.486 168.638 223.456 170.364C223.16 189.573 223.207 208.789 223.3 228C225.124 228.03 225.124 228.03 226.986 228.06C231.591 228.137 236.196 228.226 240.801 228.317C242.776 228.355 244.752 228.39 246.728 228.422C256.81 228.586 266.843 228.857 276.88 229.914C277.624 229.99 278.368 230.066 279.135 230.145C282.946 230.589 286.235 231.299 289.712 233C290.189 236.96 290.189 236.96 290.675 241C293.321 241.222 295.967 241.428 298.616 241.625C299.364 241.689 300.112 241.754 300.883 241.82C301.971 241.898 301.971 241.898 303.082 241.977C303.748 242.029 304.413 242.081 305.098 242.135C307.557 241.964 308.882 241.505 310.887 240C311.872 237.683 311.872 237.683 312.343 234.785C312.571 233.615 312.8 232.445 313.036 231.239C313.286 229.827 313.532 228.414 313.775 227C313.917 226.183 314.059 225.366 314.206 224.524C315.183 218.838 316.096 213.143 316.977 207.44C317.449 204.41 317.938 201.384 318.428 198.357C318.729 196.425 319.029 194.492 319.328 192.559C319.551 191.207 319.551 191.207 319.777 189.828C319.966 188.57 319.966 188.57 320.158 187.287C320.274 186.553 320.389 185.82 320.508 185.064C320.517 181.03 318.365 178.616 315.76 175.875C310.936 170.116 309.759 163.667 309.857 156.172C309.867 155.198 309.877 154.225 309.887 153.222C309.899 152.489 309.912 151.755 309.925 151C300.253 150.084 290.581 149.171 280.908 148.262C276.417 147.84 271.925 147.417 267.434 146.991C263.097 146.579 258.759 146.171 254.422 145.765C252.77 145.61 251.118 145.454 249.466 145.296C247.146 145.076 244.827 144.859 242.507 144.643C241.49 144.544 241.49 144.544 240.453 144.444C232.815 143.339 232.815 143.339 225.803 145.532ZM83.7375 224C82.8293 224.828 82.8293 224.828 81.9027 225.672C73.6862 233.51 67.1473 244.718 66.1155 256.348C65.8682 263.627 66.2575 269.843 70.2625 276C72.2313 278.046 72.2313 278.046 74.1125 279C75.0654 278.505 75.0654 278.505 76.0375 278C75.5809 277.216 75.1243 276.432 74.6539 275.625C71.4378 267.873 71.6017 259.961 74.1125 252C78.1883 241.369 84.038 233.345 91.4375 225C98.5028 217.103 98.5028 217.103 103.95 208C97.238 208 88.4271 219.485 83.7375 224ZM164.587 242C164.347 245.584 164.347 245.584 164.587 249C164.905 249 165.223 249 165.55 249C165.868 247.35 166.185 245.7 166.512 244C170.993 242.503 174.517 241.809 179.266 242C190.766 242.193 202.222 240.975 213.675 240C213.675 239.67 213.675 239.34 213.675 239C205.604 238.068 197.61 237.817 189.492 237.812C188.327 237.8 187.162 237.788 185.962 237.775C174.749 237.656 174.749 237.656 164.587 242ZM301.262 278C301.262 278.33 301.262 278.66 301.262 279C309.457 280.892 318.049 280.317 326.288 279C322.557 276.399 318.63 276.74 314.316 276.812C313.594 276.813 312.871 276.814 312.126 276.814C308.384 276.845 304.916 277.057 301.262 278ZM324.174 280.656C314.697 283.492 305.173 284.141 295.487 282C295.459 286.021 295.442 290.042 295.427 294.062C295.419 295.196 295.411 296.33 295.403 297.498C295.197 305.838 295.197 305.838 296.45 314C300.269 317.75 304.934 317.573 309.925 317.75C310.689 317.793 311.454 317.835 312.241 317.879C316.123 318.06 319.608 318.049 323.4 317C324.542 313.439 324.791 309.983 325.088 306.27C325.151 305.519 325.214 304.769 325.278 303.996C325.478 301.601 325.672 299.207 325.866 296.812C326.001 295.188 326.136 293.564 326.271 291.939C326.601 287.96 326.927 283.98 327.25 280C326.074 279.952 326.074 279.952 324.174 280.656ZM282.332 296.234C280.716 298.46 280.662 299.735 280.689 302.5C280.682 303.273 280.674 304.047 280.667 304.844C281.137 307.487 281.935 308.351 283.938 310C287.13 311.284 288.088 310.922 291.637 310C291.637 305.38 291.637 300.76 291.637 296C288.553 294.398 285.191 294.036 282.332 296.234ZM140.826 318C140.15 318.191 139.475 318.382 138.779 318.578C137.114 319.049 135.451 319.524 133.787 320C136.713 323.377 139.611 325.268 143.533 327.25C144.548 327.771 145.563 328.292 146.608 328.828C149.012 330.134 149.012 330.134 151.113 330C151.113 325.38 151.113 320.76 151.113 316C147.49 316 144.287 317.006 140.826 318ZM120.312 321C121.505 324.717 122.496 325.037 125.696 326.961C126.61 327.515 127.523 328.07 128.464 328.641C129.426 329.213 130.389 329.785 131.381 330.375C132.781 331.222 132.781 331.222 134.209 332.086C139.805 335.462 145.443 338.759 151.113 342C151.919 338.758 151.919 338.758 151.113 335C148.269 332.358 144.872 330.784 141.488 329C140.279 328.288 139.073 327.571 137.871 326.848C136.61 326.106 135.35 325.365 134.088 324.625C133.198 324.088 133.198 324.088 132.289 323.539C128.133 321.179 125.014 320.636 120.312 321Z" fill="#FF7700"/>
<path d="M339.161 136.25C345.124 140.381 348.515 143.917 351.072 151C351.613 155.502 351.503 159.64 350.35 164C350.108 165.029 350.108 165.029 349.861 166.078C348.183 172.212 345.43 176.84 340.725 181C336.975 182.915 333.991 183.22 329.837 183.125C328.808 183.107 327.779 183.089 326.72 183.07C325.553 183.036 325.553 183.036 324.362 183C324.208 183.94 324.053 184.88 323.893 185.848C323.79 186.475 323.687 187.102 323.58 187.749C323.346 189.171 323.112 190.593 322.877 192.016C322.226 195.968 321.574 199.92 320.917 203.871C319.73 211.023 318.551 218.174 317.448 225.34C317.282 226.396 317.116 227.452 316.945 228.541C316.643 230.47 316.35 232.4 316.067 234.332C315.932 235.182 315.797 236.031 315.658 236.906C315.494 237.994 315.494 237.994 315.327 239.104C314.599 241.446 313.687 242.467 311.85 244C304.913 246.402 296.844 244.972 289.712 244C289.613 244.703 289.514 245.406 289.412 246.131C288.196 254.255 286.394 262.121 284.358 270.062C284.054 271.271 283.749 272.479 283.435 273.725C281.229 282.442 281.229 282.442 280.087 286C284.216 286 288.346 286 292.6 286C292.6 283.03 292.6 280.06 292.6 277C302.052 271.622 313.253 271.815 323.588 274.367C325.325 275 325.325 275 328.212 277C328.605 279.712 328.341 282.244 328.212 285C328.966 284.995 329.72 284.99 330.496 284.984C347.09 284.885 363.611 285.085 380.187 286C380.187 286.66 380.187 287.32 380.187 288C374.391 288.83 368.646 289.295 362.802 289.562C361.899 289.605 360.997 289.647 360.066 289.691C349.771 290.131 339.477 290.096 329.175 290C329.186 290.764 329.197 291.529 329.209 292.316C329.259 298.573 329.182 304.814 328.874 311.062C328.79 312.905 328.79 312.905 328.705 314.785C328.172 318.265 327.681 319.528 325.325 322C322.895 322.502 322.895 322.502 320.016 322.496C318.447 322.497 318.447 322.497 316.847 322.498C315.753 322.478 314.66 322.458 313.534 322.438C312.456 322.445 311.378 322.452 310.267 322.459C304.338 322.412 299.689 322.152 294.525 319C293.141 316.312 293.141 316.312 292.6 314C291.641 314.087 291.641 314.087 290.664 314.176C283.672 314.547 283.672 314.547 280.027 311.688C277.064 307.417 276.942 304.17 277.2 299C278.274 295.138 278.713 294.285 282.012 292C284.4 291.805 284.4 291.805 287.005 291.875C287.873 291.893 288.74 291.911 289.633 291.93C290.295 291.953 290.956 291.976 291.637 292C291.955 291.34 292.273 290.68 292.6 290C287.835 290 283.071 290 278.162 290C278.06 291.516 278.06 291.516 277.956 293.062C277.131 299.918 274.827 306.444 272.808 313C272.395 314.36 271.982 315.721 271.57 317.082C270.566 320.39 269.554 323.696 268.537 327C263.793 328.188 259.01 328.423 254.158 328.756C253.198 328.825 252.238 328.893 251.248 328.963C248.076 329.189 244.903 329.409 241.73 329.629C239.518 329.784 237.306 329.94 235.094 330.095C230.455 330.421 225.816 330.745 221.176 331.066C215.25 331.477 209.325 331.895 203.399 332.314C198.828 332.636 194.257 332.956 189.685 333.274C187.502 333.426 185.319 333.58 183.135 333.734C180.07 333.951 177.005 334.163 173.939 334.373C173.049 334.437 172.158 334.501 171.241 334.567C165.166 334.978 159.124 335.069 153.037 335C153.355 337.64 153.673 340.28 154 343C154.894 342.9 155.788 342.8 156.709 342.696C176.529 340.491 196.366 338.585 216.242 337.017C218.471 336.841 220.7 336.663 222.929 336.482C236.878 335.353 250.695 334.757 264.687 335C264.687 333.02 264.687 331.04 264.687 329C265.323 328.67 265.958 328.34 266.612 328C266.93 330.97 267.248 333.94 267.575 337C249.261 339.683 230.938 341.167 212.498 342.466C208.728 342.732 204.959 343.007 201.191 343.281C189.445 344.133 177.698 344.963 165.948 345.766C163.644 345.93 161.34 346.11 159.037 346.302C149.609 347.01 143.917 343.716 136.254 338.312C135.168 337.581 134.081 336.853 132.992 336.127C130.022 334.124 127.091 332.069 124.162 330C123.047 329.26 123.047 329.26 121.91 328.505C120.038 327.23 120.038 327.23 117.425 325C117.425 323.68 117.425 322.36 117.425 321C120.312 321 120.312 321 121.55 322.249C122.095 322.827 122.639 323.405 123.2 324C125.242 325.386 127.285 326.714 129.377 328.012C129.971 328.385 130.565 328.758 131.177 329.142C133.068 330.328 134.961 331.508 136.855 332.688C138.141 333.492 139.426 334.298 140.711 335.104C143.855 337.074 147.001 339.038 150.15 341C150.15 339.02 150.15 337.04 150.15 335C142.527 330.71 134.904 326.42 127.05 322C127.05 321.67 127.05 321.34 127.05 321C133.745 320.431 137.661 322.052 143.412 325.5C144.158 325.929 144.904 326.359 145.672 326.801C147.493 327.852 149.304 328.924 151.112 330C151.097 328.42 151.097 328.42 151.082 326.808C150.915 307.621 150.915 288.475 151.954 269.312C151.992 268.584 152.03 267.855 152.069 267.105C153.521 239.784 153.521 239.784 157.85 233C160.204 232.034 160.204 232.034 163.211 231.727C165.019 231.534 165.019 231.534 166.863 231.337C168.35 231.22 169.837 231.108 171.325 231C172.214 230.932 173.104 230.864 174.02 230.794C181.419 230.243 188.823 229.803 196.229 229.375C198.487 229.24 200.744 229.105 203.001 228.969C208.483 228.64 213.966 228.317 219.45 228C219.46 227.268 219.47 226.535 219.48 225.781C219.575 218.782 219.674 211.783 219.776 204.785C219.829 201.189 219.88 197.594 219.928 193.998C220.055 184.664 220.218 175.332 220.412 166C220.431 164.918 220.449 163.836 220.469 162.721C220.522 159.912 220.599 157.105 220.687 154.297C220.698 153.509 220.71 152.721 220.722 151.909C220.916 146.966 221.766 144.408 225.225 141C228.429 140.466 228.429 140.466 232.205 140.605C232.884 140.626 233.562 140.646 234.262 140.667C241.526 140.929 248.766 141.588 255.998 142.312C257.406 142.448 258.814 142.582 260.222 142.716C263.876 143.065 267.53 143.422 271.183 143.781C277.058 144.358 282.934 144.924 288.81 145.487C290.844 145.683 292.878 145.884 294.912 146.085C296.153 146.205 297.394 146.325 298.672 146.449C299.756 146.556 300.84 146.662 301.958 146.772C305.279 147.012 308.522 147.146 311.85 147C313.602 145.45 313.602 145.45 314.677 143.25C320.357 134.492 329.748 132.628 339.161 136.25ZM317.805 145.875C313.956 151.588 312.889 157.14 313.775 164C315.613 170.277 319.295 174.252 324.362 178C327.714 179.741 331.285 179.449 334.95 179C339.598 177.271 342.958 174.343 345.537 170C348.234 163.935 350.43 158.64 348.425 152C345.503 146.279 340.956 141.08 334.95 139C327.533 138.358 322.831 140.074 317.805 145.875ZM225.803 145.532C223.752 148.818 223.682 151.683 223.676 155.48C223.66 156.23 223.644 156.98 223.627 157.752C223.58 160.231 223.56 162.709 223.54 165.188C223.514 166.913 223.485 168.638 223.456 170.364C223.16 189.573 223.207 208.789 223.3 228C225.124 228.03 225.124 228.03 226.986 228.06C231.591 228.137 236.195 228.226 240.8 228.317C242.776 228.355 244.752 228.39 246.728 228.422C256.81 228.586 266.843 228.857 276.88 229.914C277.624 229.99 278.368 230.066 279.135 230.145C282.946 230.589 286.235 231.299 289.712 233C290.189 236.96 290.189 236.96 290.675 241C293.321 241.222 295.967 241.428 298.615 241.625C299.364 241.689 300.112 241.754 300.883 241.82C301.971 241.898 301.971 241.898 303.082 241.977C303.747 242.029 304.413 242.081 305.098 242.135C307.557 241.964 308.882 241.505 310.887 240C311.872 237.683 311.872 237.683 312.342 234.785C312.571 233.615 312.8 232.445 313.036 231.239C313.285 229.827 313.532 228.414 313.775 227C313.917 226.183 314.059 225.366 314.205 224.524C315.183 218.838 316.095 213.143 316.977 207.44C317.449 204.41 317.938 201.384 318.428 198.357C318.729 196.425 319.029 194.492 319.328 192.559C319.55 191.207 319.55 191.207 319.777 189.828C319.966 188.57 319.966 188.57 320.158 187.287C320.273 186.553 320.389 185.82 320.507 185.064C320.517 181.03 318.365 178.616 315.76 175.875C310.936 170.116 309.759 163.667 309.857 156.172C309.867 155.198 309.877 154.225 309.887 153.222C309.899 152.489 309.912 151.755 309.925 151C300.253 150.084 290.581 149.171 280.908 148.262C276.417 147.84 271.925 147.417 267.434 146.991C263.096 146.579 258.759 146.171 254.422 145.765C252.77 145.61 251.118 145.454 249.466 145.296C247.146 145.076 244.826 144.859 242.506 144.643C241.49 144.544 241.49 144.544 240.452 144.444C232.815 143.339 232.815 143.339 225.803 145.532ZM164.587 242C164.347 245.584 164.347 245.584 164.587 249C164.905 249 165.223 249 165.55 249C165.867 247.35 166.185 245.7 166.512 244C170.993 242.503 174.517 241.809 179.265 242C190.766 242.193 202.222 240.975 213.675 240C213.675 239.67 213.675 239.34 213.675 239C205.603 238.068 197.609 237.817 189.492 237.812C188.327 237.8 187.162 237.788 185.962 237.775C174.748 237.656 174.748 237.656 164.587 242ZM301.262 278C301.262 278.33 301.262 278.66 301.262 279C309.457 280.892 318.049 280.317 326.287 279C322.557 276.399 318.63 276.74 314.316 276.812C313.593 276.813 312.871 276.814 312.126 276.814C308.384 276.845 304.916 277.057 301.262 278ZM324.174 280.656C314.697 283.492 305.173 284.141 295.487 282C295.459 286.021 295.442 290.042 295.427 294.062C295.419 295.196 295.411 296.33 295.403 297.498C295.197 305.838 295.197 305.838 296.45 314C300.268 317.75 304.934 317.573 309.925 317.75C310.689 317.793 311.453 317.835 312.241 317.879C316.123 318.06 319.608 318.049 323.4 317C324.542 313.439 324.791 309.983 325.088 306.27C325.151 305.519 325.213 304.769 325.278 303.996C325.477 301.601 325.672 299.207 325.866 296.812C326.001 295.188 326.135 293.564 326.27 291.939C326.601 287.96 326.926 283.98 327.25 280C326.073 279.952 326.073 279.952 324.174 280.656ZM282.332 296.234C280.716 298.46 280.662 299.735 280.689 302.5C280.681 303.273 280.674 304.047 280.666 304.844C281.136 307.487 281.934 308.351 283.937 310C287.13 311.284 288.088 310.922 291.637 310C291.637 305.38 291.637 300.76 291.637 296C288.553 294.398 285.191 294.036 282.332 296.234Z" fill="#191919"/>
<path d="M161.58 55.0625C166.252 59.4882 169.159 64.0519 169.701 70.6875C169.675 75.4594 167.861 78.9704 165.55 83C166.185 82.175 166.82 81.35 167.475 80.5C170.551 77.8367 172.076 77.3442 176.043 77.6602C183.339 78.8882 189.354 82.3736 194.215 88.231C198.075 94.0554 200.063 101.31 202.205 107.966C203.182 110.218 204.139 111.444 205.975 113C209.445 114.202 211.952 114.327 215.6 114C218.19 112.206 220.145 110.278 222.337 108C222.079 114.048 221.454 118.238 217.525 123C214.079 125.732 211.167 126.34 206.937 127C206.693 127.88 206.449 128.761 206.197 129.668C205.865 130.829 205.534 131.991 205.193 133.188C204.869 134.336 204.545 135.485 204.212 136.668C203.087 140 203.087 140 201.595 142.566C200.024 145.306 199.487 147.635 198.876 150.75C196.787 159.858 193.312 166.669 185.762 172C179.472 176.001 172.762 175.743 165.55 175C159.014 173.351 153.044 169.894 148.225 165C146.781 162.125 146.781 162.125 146.3 160C147.054 160.557 147.809 161.114 148.586 161.688C158.203 168.365 166.479 170.908 178.062 170C183.119 168.779 185.933 166.185 188.951 161.875C193.468 154.082 194.854 145.975 195.387 137C192.163 135.213 189.383 134.56 185.762 134C184.333 133.505 184.333 133.505 182.875 133C183.828 131.515 183.828 131.515 184.8 130C191.681 129.433 191.681 129.433 195.387 132C196.033 125.858 196.033 125.858 194.384 120.105C193.188 118.667 191.884 117.328 190.575 116C189.94 115.01 189.304 114.02 188.65 113C184.87 114.537 181.171 116.228 177.461 117.938C167.281 122.538 157.408 125.199 146.3 125C146.161 125.639 146.022 126.279 145.879 126.938C145.337 129 145.337 129 144.375 130C142.752 130.072 141.126 130.084 139.502 130.063C138.175 130.049 138.175 130.049 136.822 130.035C135.796 130.018 135.796 130.018 134.75 130C132.717 133.754 132.73 135.788 133.787 140C136.257 142.565 138.096 142.54 141.487 143C142.303 153.744 142.735 164.46 143.033 175.232C142.81 194.298 142.81 194.298 149.067 211.687C151.09 213.28 151.09 213.28 153.759 212.75C154.474 212.502 155.189 212.255 155.925 212C158.67 204.531 159.664 197.369 160.437 189.437C160.561 188.238 160.686 187.039 160.814 185.803C161.118 182.869 161.413 179.935 161.7 177C164.049 179.44 163.872 180.092 163.881 183.437C163.884 184.781 163.884 184.781 163.888 186.152C163.881 187.092 163.873 188.032 163.866 189C163.877 190.363 163.877 190.363 163.888 191.754C163.864 200.553 163.395 209.016 157.85 216C154.441 218.361 153.203 218.573 149.187 218C144.045 214.901 142.097 211.228 140.347 205.385C138.217 196.196 138.508 186.331 138.709 176.922C138.723 176.168 138.738 175.414 138.752 174.637C138.813 171.549 138.876 168.463 138.983 165.376C139.058 163.079 139.097 160.783 139.13 158.484C139.163 157.79 139.196 157.095 139.23 156.379C139.304 154.155 139.304 154.155 138.6 151C135.874 148.587 135.874 148.587 132.825 147C127.409 140.484 127.84 133.486 128.171 125.417C128.272 120.92 128.263 118.102 125.185 114.625C124.66 114.184 124.135 113.743 123.595 113.289C121.88 111.661 121.653 110.339 121.275 108C121.844 107.986 122.414 107.972 123.001 107.957C127.296 107.688 129.39 107.463 132.825 104.562C134.737 102.191 134.737 102.191 135.712 100C134.998 99.7731 134.283 99.5462 133.547 99.3125C130.363 97.7338 129.024 96.0039 127.05 93C124.847 86.1325 125.082 78.2673 128.012 71.6875C134.848 59.4328 147.583 49.6884 161.58 55.0625ZM178.062 106C177.209 106.743 176.355 107.485 175.476 108.25C164.797 116.005 151.138 116.091 138.6 117C147.267 121.642 156.995 120.11 166.08 117.219C171.619 114.913 175.734 111.287 179.987 107C179.352 106.67 178.717 106.34 178.062 106Z" fill="#191919"/>
<path d="M296.796 167.074C299.338 169 299.338 169 301.263 172C302.292 180.275 300.962 188.903 299.999 197.125C299.886 198.145 299.773 199.165 299.657 200.216C299.475 201.66 299.475 201.66 299.289 203.133C299.183 203.998 299.077 204.863 298.968 205.754C298.277 208.373 297.519 209.327 295.488 211C293.194 212.269 290.928 213.44 288.57 214.562C287.959 214.866 287.348 215.17 286.718 215.482C274.408 221.418 265.54 219.537 252.777 215.562C251.738 215.25 250.7 214.937 249.63 214.615C241.972 212.266 241.972 212.266 238.7 210C238.256 207.216 238.02 204.68 237.918 201.875C237.867 200.638 237.867 200.638 237.814 199.377C237.608 192.248 237.908 185.173 238.399 178.062C238.462 177.027 238.525 175.991 238.59 174.923C239.166 167.9 239.166 167.9 241.039 164.508C244.975 162.109 249.166 161.01 253.559 159.812C254.465 159.553 255.372 159.293 256.305 159.025C272.715 154.369 282.583 157.956 296.796 167.074ZM267.575 159C270.956 162.512 275.595 164.084 279.907 166.125C280.868 166.593 281.829 167.061 282.819 167.543C283.75 167.985 284.682 168.427 285.641 168.883C286.915 169.492 286.915 169.492 288.216 170.114C290.802 171.046 292.771 171.172 295.488 171C293.501 168.765 291.673 167.334 289.051 165.992C288.379 165.645 287.706 165.299 287.013 164.941C286.316 164.589 285.619 164.238 284.9 163.875C284.203 163.515 283.506 163.156 282.787 162.785C277.463 160.06 273.638 158.881 267.575 159ZM246.4 166C250.125 169.87 255.752 171.232 260.597 173.187C261.734 173.664 262.87 174.14 264.041 174.631C265.143 175.076 266.245 175.522 267.38 175.98C268.889 176.598 268.889 176.598 270.428 177.227C273.7 178.092 275.869 177.811 279.125 177C275.138 173.744 270.874 171.627 266.312 169.375C265.514 168.968 264.715 168.56 263.893 168.141C255.224 163.673 255.224 163.673 246.4 166ZM242.55 169C241.403 178.096 240.431 187.129 240.385 196.312C240.376 197.01 240.367 197.708 240.358 198.427C240.364 204.049 240.364 204.049 242.55 209C245.326 210.475 248.217 211.32 251.213 212.187C251.996 212.434 252.779 212.681 253.585 212.936C259.148 214.648 264.759 215.907 270.463 217C270.927 213.063 271.387 209.125 271.846 205.187C271.976 204.087 272.106 202.987 272.239 201.854C273.047 194.911 273.747 187.969 274.313 181C267.281 177.861 260.193 174.95 253.017 172.187C252.207 171.874 251.397 171.56 250.563 171.236C249.422 170.8 249.422 170.8 248.258 170.355C247.575 170.094 246.892 169.833 246.189 169.563C244.469 168.899 244.469 168.899 242.55 169ZM293.563 174C293.245 181.59 292.927 189.18 292.6 197C289.742 197.66 286.883 198.32 283.938 199C282.985 199.33 282.032 199.66 281.05 200C281.209 198.762 281.368 197.525 281.531 196.25C282.158 190.5 282.097 184.779 282.013 179C280.107 179.66 278.201 180.32 276.238 181C275.285 192.88 274.332 204.76 273.35 217C277.162 215.68 280.973 214.36 284.9 213C286.003 212.682 287.106 212.363 288.243 212.035C291.478 210.773 293.188 209.725 295.488 207C299.088 196.612 298.901 183.912 298.375 173C296.247 172.895 296.247 172.895 293.563 174Z" fill="#1A1A1A"/>
<path d="M339.161 136.25C345.125 140.381 348.515 143.917 351.072 151C351.614 155.502 351.503 159.64 350.35 164C350.189 164.686 350.028 165.372 349.861 166.078C348.184 172.212 345.43 176.84 340.725 181C334.721 184.186 327.532 183.994 321.174 182C315.146 177.339 311.13 172.24 309.324 164.57C308.158 156.268 310.093 148.855 314.738 142C321.655 135.093 329.936 132.7 339.161 136.25ZM317.806 145.875C313.956 151.588 312.89 157.14 313.775 164C315.613 170.277 319.295 174.252 324.363 178C327.715 179.741 331.285 179.449 334.95 179C339.598 177.271 342.959 174.343 345.538 170C348.235 163.935 350.43 158.64 348.425 152C345.503 146.279 340.957 141.08 334.95 139C327.533 138.358 322.831 140.074 317.806 145.875Z" fill="#FF7700"/>
<path d="M281.471 165.5C282.543 166.025 283.614 166.549 284.718 167.09C287.351 168.381 289.978 169.685 292.6 171C290.369 172.546 288.545 173.647 286.103 174.688C285.493 174.959 284.882 175.231 284.254 175.512C277.539 176.975 271.782 173.57 265.951 170.563C265.141 170.155 264.332 169.747 263.498 169.326C260.032 167.576 256.583 165.793 253.138 164C261.291 155.529 272.963 161.229 281.471 165.5Z" fill="#FF7700"/>
<path d="M293.562 175C293.653 182.418 293.73 189.662 292.6 197C291.218 197.506 289.834 198.004 288.449 198.5C287.679 198.778 286.908 199.057 286.114 199.344C283.937 200 283.937 200 281.05 200C281.367 192.74 281.685 185.48 282.012 178C289.592 174.625 289.592 174.625 293.562 175Z" fill="#FF7700"/>
<path d="M36.5492 289.876C39.2046 289.766 41.8589 289.691 44.5156 289.625C45.3229 289.587 46.1303 289.549 46.9621 289.51C49.2229 289.477 49.2229 289.477 52.9375 290C54.6134 292.533 54.6134 292.533 55.825 295C51.0352 295.025 46.2455 295.043 41.4556 295.055C39.8336 295.06 38.2116 295.067 36.5896 295.075C25.9511 295.131 15.4227 294.848 4.8125 294C4.8125 293.34 4.8125 292.68 4.8125 292C13.3887 290.537 22.0515 290.402 30.7243 290.104C32.6662 290.036 34.6079 289.96 36.5492 289.876Z" fill="#191A1A"/>
<path d="M340.725 147C341.36 147 341.995 147 342.65 147C342.056 156.058 338.235 164.782 333.025 172C327.155 171.873 324.432 169.846 320.129 165.789C318.587 164 318.587 164 317.625 161C321.993 161.534 324.642 163.42 328.212 166C329.165 166.33 330.118 166.66 331.1 167C331.336 166.162 331.571 165.324 331.814 164.461C333.18 160.556 334.968 157.19 336.995 153.625C337.354 152.984 337.712 152.344 338.082 151.684C338.958 150.12 339.841 148.559 340.725 147Z" fill="#FF7700"/>
<path d="M103.95 269C117.896 268.328 130.54 272.166 141.247 281.875C142.302 282.904 143.349 283.94 144.375 285C143.422 285.495 143.422 285.495 142.45 286C139.899 284.704 137.422 283.348 134.931 281.937C127.289 277.748 119.669 275.058 111.307 272.853C110.486 272.635 109.665 272.416 108.819 272.191C107.722 271.916 107.722 271.916 106.602 271.635C104.913 271 104.913 271 103.95 269Z" fill="#1B252E"/>
<path d="M178.062 138C181.008 140.755 182.777 142.996 183.837 147C183.372 150.484 183.372 150.484 181.912 152C179.667 152.041 177.42 152.042 175.175 152C176.137 149 176.137 149 178.062 147C178.048 145.039 178.048 145.039 177.641 142.938C177.463 141.638 177.284 140.339 177.1 139C177.417 138.67 177.735 138.34 178.062 138Z" fill="#1A1A1A"/>
<path d="M165.55 153C169.092 153.635 169.092 153.635 170.663 155.5C173.151 157.798 175.799 157.684 179.025 158C178.707 158.99 178.39 159.98 178.062 161C173.921 162.033 171.927 162.296 168.016 160.375C165.55 158 165.55 158 165.189 155.25C165.308 154.507 165.427 153.765 165.55 153Z" fill="#1A1A1A"/>
<path d="M167.776 128.625C170.363 130 170.363 130 171.325 133C170.293 132.938 169.261 132.876 168.197 132.812C164.348 133.012 163.573 133.58 160.738 136C159.785 135.67 158.832 135.34 157.85 135C157.97 133.187 157.97 133.187 158.813 131C162.152 128.579 163.73 127.832 167.776 128.625Z" fill="#1A1A1A"/>
<path d="M292.6 173C292.918 173.66 293.235 174.32 293.562 175C290.704 175.66 287.845 176.32 284.9 177C284.9 176.01 284.9 175.02 284.9 174C289.351 171.875 289.351 171.875 292.6 173Z" fill="#1D2D3B"/>
<path d="M266.071 157.875C266.567 158.246 267.063 158.618 267.575 159C267.575 159.33 267.575 159.66 267.575 160C260.236 161.25 260.236 161.25 256.987 159C263.147 156.785 263.147 156.785 266.071 157.875Z" fill="#1E2E3C"/>
<path d="M186.725 138C187.36 138 187.996 138 188.65 138C188.968 139.65 189.285 141.3 189.613 143C188.342 143.33 187.072 143.66 185.763 144C185.721 142.334 185.723 140.666 185.763 139C186.08 138.67 186.398 138.34 186.725 138Z" fill="#1A1A1A"/>
<path d="M164.587 138C165.858 138.33 167.128 138.66 168.437 139C168.12 140.32 167.802 141.64 167.475 143C166.522 143 165.569 143 164.587 143C164.587 141.35 164.587 139.7 164.587 138Z" fill="#191919"/>
</svg>
