<svg width="412" height="427" viewBox="0 0 412 427" fill="none" xmlns="http://www.w3.org/2000/svg">
<path d="M192.61 118.493C196.915 122.234 200.971 126.147 204.97 130.235C205.8 131.081 206.63 131.928 207.485 132.8C222.531 149.099 230.984 170.877 232.78 193.218C231.76 193.57 230.741 193.922 229.69 194.285C229.429 193.009 229.167 191.734 228.898 190.419C227.134 181.94 225.393 173.614 222.48 165.463C222.14 165.463 221.8 165.463 221.45 165.463C221.337 166.646 221.224 167.829 221.108 169.049C220.944 170.611 220.779 172.173 220.613 173.736C220.541 174.514 220.469 175.293 220.394 176.096C219.91 180.51 219.428 183.651 216.3 186.813C215.472 187.121 214.643 187.429 213.79 187.747C210.825 188.787 210.825 188.787 209.155 192.283C207.03 195.353 207.03 195.353 204.198 196.22C199.015 194.877 195.583 192.532 192.61 187.88C190.919 179.463 192.393 173.553 196.73 166.53C196.81 164.041 196.823 161.547 196.73 159.058C197.41 158.001 198.09 156.944 198.79 155.855C198.872 153.366 198.881 150.872 198.79 148.383C197.091 148.03 195.391 147.678 193.64 147.315C193.725 148.46 193.81 149.605 193.898 150.784C193.64 154.788 193.64 154.788 191.902 157.256C188.078 160.148 185.747 161.354 180.958 160.792C180.045 160.572 179.131 160.352 178.19 160.125C177.394 156.941 176.736 153.746 176.13 150.518C174.091 150.518 172.051 150.518 169.95 150.518C170.316 159.579 170.316 159.579 174.07 167.598C175.066 171.21 175.235 172.515 174.07 176.138C171.825 177.814 171.825 177.814 169.049 179.473C168.138 180.027 167.227 180.58 166.289 181.15C163.77 182.543 163.77 182.543 160.68 183.61C159.495 186.434 159.495 186.434 158.749 189.815C158.454 190.945 158.159 192.074 157.856 193.238C157.271 196.439 157.271 196.439 159.063 198.768C159.597 199.402 160.13 200.036 160.68 200.69C160.68 201.747 160.68 202.804 160.68 203.893C158.641 203.364 158.641 203.364 156.56 202.825C156.273 204.542 156.273 204.542 155.981 206.294C155.302 208.867 154.892 210 152.794 211.594C152.146 211.937 151.498 212.28 150.831 212.633C147.218 214.137 147.218 214.137 146.26 216.836C146.116 218.937 146.116 218.937 147.29 220.973C151.468 220.473 154.98 220.034 158.62 217.77C160.32 219.179 162.019 220.588 163.77 222.04C164.28 220.455 164.28 220.455 164.8 218.838C165.331 219.014 165.862 219.19 166.41 219.371C172.103 220.582 177.66 219.799 183.34 218.838C184.253 222.959 184.602 226.887 184.692 231.114C184.75 232.881 184.75 232.881 184.809 234.683C184.265 238.861 183.096 240.421 180.25 243.39C177.659 245.402 174.983 247.185 172.26 248.999C168.466 252.06 167.788 255.096 167.118 259.87C166.384 263.588 165.546 265.539 162.74 268.009C159.65 270.078 159.65 270.078 157.59 270.078C157.415 270.709 157.24 271.341 157.059 271.992C155.356 277.746 153.856 282.792 148.658 286.128C145.924 287.526 143.833 288.336 140.788 287.825C138.19 285.231 137.923 282.183 136.99 278.618C136.268 277.847 135.546 277.076 134.801 276.282C131.679 271.428 132.556 266.14 132.87 260.47C132.013 260.261 132.013 260.261 131.139 260.048C128.536 259.404 125.94 258.736 123.343 258.068C121.994 257.74 121.994 257.74 120.619 257.405C112.178 255.201 112.178 255.201 109.18 250.863C109.051 248.728 109.051 248.728 110.21 246.593C111.209 245.954 112.207 245.316 113.236 244.658C116.738 242.623 116.738 242.623 117.106 238.736C118.743 234.003 120.14 233.255 124.338 231.158C125.093 230.813 125.848 230.468 126.626 230.113C127.377 229.739 128.127 229.366 128.901 228.981C134.403 226.31 134.403 226.31 138.02 226.31C137.556 225.515 137.556 225.515 137.083 224.705C134.245 219.451 133.442 216.35 134.93 210.298C135.44 208.712 135.44 208.712 135.96 207.095C135.389 206.655 134.818 206.214 134.23 205.761C129.79 202.093 126.911 199.426 125.922 193.522C125.835 192.717 125.749 191.912 125.66 191.083C125.478 189.569 125.294 188.055 125.109 186.541C124.872 184.562 124.872 184.562 124.63 182.543C123.752 182.618 122.874 182.694 121.97 182.772C118.698 183.049 115.425 183.314 112.151 183.572C110.737 183.686 109.324 183.804 107.911 183.926C105.874 184.103 103.835 184.261 101.797 184.419C100.573 184.52 99.3484 184.62 98.0868 184.724C93.542 184.661 90.7683 183.743 87.5502 180.408C86.1111 175.336 85.0927 169.318 87.5623 164.495C88.4806 163.1 89.4164 161.718 90.3666 160.346C91.9105 157.556 92.2528 155.147 92.7646 151.985C93.6798 148.093 94.3431 146.601 97.3714 144.037C102.854 140.949 107.73 138.879 113.96 140.164C117.979 141.398 121.94 142.77 125.869 144.283C128.776 145.188 130.89 145.511 133.9 145.18C134.877 144.475 135.855 143.771 136.861 143.045C141.511 139.961 145.093 140.483 150.38 141.51C153.572 142.164 153.572 142.164 157.14 141.31C161.313 140.838 162.573 141.487 165.83 144.113C166.298 144.707 166.765 145.301 167.246 145.914C169.968 148.192 172.775 147.512 176.13 147.315C175.769 146.412 175.408 145.51 175.036 144.58C173.899 140.26 174.137 137.793 175.1 133.438C177.156 130.214 177.156 130.214 179.671 127.233C180.498 126.235 181.325 125.237 182.177 124.209C183.559 122.625 184.973 121.07 186.43 119.56C174.431 112.895 162.613 107.912 149.35 104.615C149.669 106.068 149.669 106.068 149.994 107.551C150.403 111.228 150.441 112.392 148.32 115.29C147.513 115.73 146.706 116.171 145.874 116.624C142.516 118.945 141.628 121.196 140.072 124.964C138.972 127.191 137.678 128.502 135.96 130.235C135.232 131.996 134.539 133.774 133.9 135.573C132.87 136.64 132.87 136.64 130.231 136.707C129.402 136.685 128.574 136.663 127.72 136.64C126.626 134.705 126.626 134.705 125.66 132.37C126.17 130.785 126.17 130.785 126.69 129.168C126.078 129.386 125.466 129.605 124.835 129.831C118.474 131.974 111.807 133.951 105.06 133.438C102.827 131.874 102.827 131.874 100.94 130.235C98.4094 129.612 98.4094 129.612 95.7902 130.235C94.0647 131.647 92.3489 133.071 90.6402 134.505C88.2573 135.287 85.8551 136.012 83.4302 136.64C83.0903 136.992 82.7504 137.345 82.4002 137.708C75.9778 138.21 75.9778 138.21 72.6796 136.106C72.1485 135.578 71.6174 135.049 71.0702 134.505C72.6456 130.19 75.5401 127.865 78.9883 125.164C79.8726 124.47 79.8726 124.47 80.7747 123.761C95.354 112.62 110.772 106.933 128.75 104.615C107.025 105.14 85.8792 116.069 70.6025 131.775C56.5303 147.152 48.9853 166.214 45.3202 186.813C46.1433 184.253 46.8242 181.754 47.4446 179.14C47.7632 177.797 48.0819 176.454 48.4102 175.07C48.7501 175.07 49.09 175.07 49.4402 175.07C49.4402 180.002 49.4402 184.934 49.4402 190.015C52.1594 190.015 54.8786 190.015 57.6802 190.015C57.574 191.006 57.4678 191.997 57.3583 193.017C57.4645 194.14 57.5708 195.263 57.6802 196.42C58.53 196.948 59.3797 197.477 60.2552 198.021C61.105 198.55 61.9547 199.078 62.8302 199.623C63.6243 203.737 63.1575 205.501 60.9633 209.03C60.2198 210.153 59.4763 211.276 58.7102 212.433C58.1769 214.065 57.685 215.712 57.2296 217.37C55.9244 221.785 54.3496 223.836 50.4702 226.31C49.4505 226.838 49.4505 226.838 48.4102 227.378C53.3344 242.148 59.9937 255.103 70.0402 266.875C70.5846 267.527 71.1289 268.18 71.6898 268.852C87.9539 287.036 112.416 296.431 135.791 298.033C146.268 298.287 156.779 296.71 166.671 293.121C169.214 292.413 171.449 292.39 174.07 292.495C174.07 293.2 174.07 293.904 174.07 294.63C148.522 304.225 122.948 305.208 97.8502 293.563C96.9659 293.169 96.0817 292.775 95.1706 292.37C87.7719 288.84 81.5215 283.879 75.1902 278.618C74.371 277.947 73.5518 277.277 72.7077 276.587C54.8873 261.179 43.6476 237.6 40.4639 213.959C38.2014 185.756 43.1516 158.228 60.9714 135.948C63.2557 133.275 65.6009 130.681 67.9802 128.1C68.5365 127.444 69.0928 126.787 69.666 126.111C100.277 91.3488 157.853 91.2364 192.61 118.493ZM201.88 132.37C202.91 134.505 202.91 134.505 202.91 134.505L201.88 132.37ZM208.06 139.843C209.09 141.978 209.09 141.978 209.09 141.978L208.06 139.843ZM45.3202 214.568C46.3502 218.838 46.3502 218.838 46.3502 218.838L45.3202 214.568ZM46.3502 220.973C47.3802 223.108 47.3802 223.108 47.3802 223.108L46.3502 220.973Z" fill="#FF7700"/>
<path d="M192.61 118.493C196.915 122.234 200.971 126.147 204.97 130.235C205.8 131.081 206.63 131.928 207.485 132.8C222.531 149.099 230.984 170.877 232.78 193.218C231.76 193.57 230.741 193.922 229.69 194.285C229.453 193.059 229.215 191.833 228.97 190.57C225.155 171.484 219.154 153.917 206.72 138.904C204.97 136.64 204.97 136.64 203.96 134.342C202.612 131.811 201.29 131.43 198.79 130.235C197.474 128.999 196.19 127.727 194.928 126.432C182.142 114.484 165.909 108.468 149.35 104.615C149.669 106.068 149.669 106.068 149.994 107.551C150.403 111.228 150.441 112.392 148.32 115.29C147.513 115.73 146.706 116.171 145.874 116.624C142.516 118.945 141.628 121.196 140.072 124.964C138.972 127.191 137.678 128.502 135.96 130.235C135.232 131.996 134.539 133.774 133.9 135.573C132.87 136.64 132.87 136.64 130.231 136.707C129.402 136.685 128.574 136.663 127.72 136.64C126.626 134.705 126.626 134.705 125.66 132.37C126.17 130.785 126.17 130.785 126.69 129.168C126.078 129.386 125.466 129.605 124.835 129.831C118.474 131.974 111.807 133.951 105.06 133.438C102.827 131.874 102.827 131.874 100.94 130.235C98.4094 129.612 98.4094 129.612 95.7902 130.235C94.0647 131.647 92.3489 133.071 90.6402 134.505C88.2573 135.287 85.8551 136.012 83.4302 136.64C83.0903 136.992 82.7504 137.345 82.4002 137.708C75.9778 138.21 75.9778 138.21 72.6796 136.106C72.1485 135.578 71.6174 135.049 71.0702 134.505C72.6456 130.19 75.5401 127.865 78.9883 125.164C79.8726 124.47 79.8726 124.47 80.7747 123.761C95.354 112.62 110.772 106.933 128.75 104.615C107.025 105.14 85.8792 116.069 70.6025 131.775C56.5303 147.152 48.9853 166.214 45.3202 186.813C46.1433 184.253 46.8242 181.754 47.4446 179.14C47.7632 177.797 48.0819 176.454 48.4102 175.07C48.7501 175.07 49.09 175.07 49.4402 175.07C49.4402 180.002 49.4402 184.934 49.4402 190.015C52.1594 190.015 54.8786 190.015 57.6802 190.015C57.574 191.006 57.4678 191.997 57.3583 193.017C57.4645 194.14 57.5708 195.263 57.6802 196.42C58.53 196.948 59.3797 197.477 60.2552 198.021C61.105 198.55 61.9547 199.078 62.8302 199.623C63.6243 203.737 63.1575 205.501 60.9633 209.03C60.2198 210.153 59.4763 211.276 58.7102 212.433C58.1769 214.065 57.685 215.712 57.2296 217.37C55.9244 221.785 54.3496 223.836 50.4702 226.31C49.4505 226.838 49.4505 226.838 48.4102 227.378C53.3344 242.148 59.9937 255.103 70.0402 266.875C70.5846 267.527 71.1289 268.18 71.6898 268.852C87.9539 287.036 112.416 296.431 135.791 298.033C146.268 298.287 156.779 296.71 166.671 293.121C169.214 292.413 171.449 292.39 174.07 292.495C174.07 293.2 174.07 293.904 174.07 294.63C148.522 304.225 122.948 305.208 97.8502 293.563C96.9659 293.169 96.0817 292.775 95.1706 292.37C87.7719 288.84 81.5215 283.879 75.1902 278.618C74.371 277.947 73.5518 277.277 72.7077 276.587C54.8873 261.179 43.6476 237.6 40.4639 213.959C38.2014 185.756 43.1516 158.228 60.9714 135.948C63.2557 133.275 65.6009 130.681 67.9802 128.1C68.5365 127.444 69.0928 126.787 69.666 126.111C100.277 91.3488 157.853 91.2364 192.61 118.493ZM45.3202 214.568C46.3502 218.838 46.3502 218.838 46.3502 218.838L45.3202 214.568ZM46.3502 220.973C47.3802 223.108 47.3802 223.108 47.3802 223.108L46.3502 220.973Z" fill="#1A1A1A"/>
<path d="M297.054 252.856C297.967 252.853 298.879 252.851 299.819 252.849C300.788 252.854 301.757 252.859 302.756 252.864C304.226 252.869 304.226 252.869 305.727 252.875C325.293 253.024 325.293 253.024 329.6 256.2C330.264 258.556 330.264 258.556 330.437 261.337C330.527 262.766 330.527 262.766 330.618 264.223C330.631 267.016 330.273 269.51 329.6 272.212C329.94 272.565 330.28 272.917 330.63 273.28C331.18 277.439 331.419 281.638 331.724 285.823C331.817 287.064 331.909 288.305 332.004 289.584C332.785 300.888 332.899 312.126 332.69 323.452C332.01 323.452 331.33 323.452 330.63 323.452C329.499 319.539 329.293 315.697 329.049 311.631C329.005 310.901 328.96 310.172 328.915 309.42C328.822 307.878 328.731 306.336 328.642 304.793C328.507 302.462 328.365 300.132 328.222 297.801C327.774 290.332 327.418 282.902 327.54 275.415C326.856 275.306 326.172 275.197 325.467 275.084C322.369 274.342 319.56 273.207 316.61 271.996C304.104 267.055 292.224 267.2 279.001 267.542C276.803 267.574 274.605 267.604 272.407 267.63C267.094 267.699 261.782 267.809 256.47 267.942C256.475 268.642 256.481 269.341 256.486 270.061C256.508 273.269 256.521 276.477 256.534 279.685C256.543 280.784 256.552 281.884 256.561 283.017C256.61 299.216 256.61 299.216 253.38 304.237C250.358 304.55 250.358 304.55 246.749 304.438C244.967 304.394 244.967 304.394 243.148 304.35C242.106 304.313 241.064 304.276 239.99 304.237C236.882 304.139 236.882 304.139 233.81 304.838C230.72 305.305 230.72 305.305 227.63 304.237C227.29 304.59 226.95 304.942 226.6 305.305C224.884 305.348 223.166 305.351 221.45 305.305C219.492 301.019 219.147 297.63 219.189 292.908C219.194 291.707 219.199 290.507 219.204 289.27C219.223 287.758 219.242 286.247 219.261 284.689C219.304 279.867 219.346 275.045 219.39 270.077C208.853 270.782 198.316 271.487 187.46 272.212C189.13 305.308 190.801 338.403 192.61 371.49C209.834 371.66 226.98 371.053 244.185 370.259C267.494 369.194 267.494 369.194 277.175 369.589C278.458 369.634 279.741 369.679 281.063 369.726C283.284 369.83 285.504 369.979 287.719 370.185C292.263 370.401 294.575 370.33 298.029 367.077C300.16 364.365 302.041 361.63 303.85 358.68C304.293 357.979 304.736 357.279 305.192 356.557C305.557 355.981 305.921 355.404 306.296 354.81C306.849 353.974 307.401 353.137 307.97 352.275C308.65 352.275 309.33 352.275 310.03 352.275C309.667 359.614 305.718 365.183 300.917 370.327C296.226 374.692 296.226 374.692 292.52 374.692C292.52 373.988 292.52 373.283 292.52 372.557C291.266 372.611 290.012 372.664 288.721 372.72C276.866 373.225 265.011 373.726 253.155 374.223C245.691 374.537 238.227 374.858 230.764 375.185C225.913 375.396 221.061 375.603 216.21 375.809C213.864 375.91 211.518 376.013 209.172 376.117C205.894 376.263 202.616 376.402 199.337 376.54C198.354 376.585 197.37 376.631 196.357 376.677C195.021 376.731 195.021 376.731 193.658 376.787C192.49 376.837 192.49 376.837 191.299 376.889C189.52 376.827 189.52 376.827 188.49 375.76C188.272 374.086 188.12 372.402 187.995 370.717C187.914 369.635 187.833 368.552 187.749 367.437C187.665 366.247 187.582 365.056 187.496 363.83C187.407 362.592 187.318 361.354 187.226 360.078C186.197 345.325 185.506 330.554 184.821 315.78C184.564 310.316 184.305 304.852 184.044 299.388C183.983 298.109 183.923 296.831 183.86 295.514C183.435 286.672 182.942 277.839 182.31 269.01C195.477 265.027 208.875 265.682 222.48 265.807C222.48 262.285 222.48 258.762 222.48 255.132C223.5 254.78 224.519 254.428 225.57 254.065C225.699 262.205 225.699 262.205 224.54 265.807C225.45 265.643 226.361 265.479 227.298 265.309C233.264 264.431 239.283 264.367 245.297 264.169C246.59 264.123 247.883 264.077 249.215 264.03C252.63 263.909 256.045 263.792 259.461 263.677C262.955 263.558 266.449 263.435 269.943 263.312C276.782 263.072 283.621 262.837 290.46 262.605C290.46 259.787 290.46 256.969 290.46 254.065C292.886 252.808 294.352 252.86 297.054 252.856ZM325.48 260.47C325.48 263.993 325.48 267.515 325.48 271.145C326.16 271.145 326.84 271.145 327.54 271.145C327.2 267.622 326.86 264.099 326.51 260.47C326.17 260.47 325.83 260.47 325.48 260.47Z" fill="#191A1B"/>
<path d="M325.48 199.623C326.269 201.431 326.269 201.431 326.51 203.893C324.759 206.381 324.759 206.381 322.124 209.109C321.167 210.107 320.209 211.105 319.222 212.133C318.177 213.191 317.13 214.247 316.081 215.301C315.561 215.832 315.04 216.363 314.504 216.91C292.282 239.551 292.282 239.551 279.009 240.313C273.343 239.98 270.53 237.865 266.77 233.783C266.032 232.026 265.335 230.249 264.71 228.445C264.089 228.96 263.467 229.474 262.827 230.005C262.004 230.679 261.181 231.353 260.333 232.048C259.52 232.717 258.707 233.385 257.87 234.074C253.579 237.329 250.554 238.769 245.14 238.053C242.832 235.672 242.104 234.176 241.64 230.818C241.791 209.664 241.791 209.664 246.999 204.009C250.717 201.479 254.159 200.412 258.53 199.623C259.737 202.245 260.937 204.869 262.135 207.495C262.479 208.241 262.823 208.987 263.177 209.755C265.74 215.393 265.74 215.393 265.74 217.77C266.523 217.313 267.306 216.856 268.113 216.385C271.073 214.66 274.035 212.94 276.999 211.222C278.272 210.483 279.543 209.743 280.814 209.001C297.12 199.483 306.901 194.231 325.48 199.623Z" fill="#FF7700"/>
<path d="M286.151 110.511C297.708 118.611 297.708 118.611 299.73 124.898C301.162 124.879 301.162 124.879 302.623 124.86C303.856 124.85 305.09 124.841 306.361 124.831C307.591 124.818 308.822 124.806 310.09 124.793C313.12 124.898 313.12 124.898 314.15 125.965C313.877 129.188 313.479 132.385 313.08 135.593C313.127 139.327 313.962 140.257 316.21 143.045C316.755 148.046 316.668 150.537 314.665 155.121C312.048 158.037 311.429 158.355 307.97 159.324C305.042 160.263 304.104 160.737 302.546 163.532C301.891 165.341 301.286 167.171 300.744 169.019C299.73 171.868 299.73 171.868 297.606 174.824C295.044 179.251 294.929 182.684 294.838 187.747C294.792 189.002 294.792 189.002 294.745 190.282C294.673 192.327 294.624 194.374 294.58 196.42C293.9 196.42 293.22 196.42 292.52 196.42C289.476 179.43 289.476 179.43 292.532 172.814C293.872 171.067 293.872 171.067 295.324 169.432C297.032 167.051 297.347 164.883 297.928 161.993C298.616 159.237 298.616 159.237 299.73 156.923C302.12 155.517 304.19 154.903 306.88 154.358C309.39 153.859 309.39 153.859 311.06 150.518C311.232 147.181 311.232 147.181 311.06 144.113C309.157 143.374 309.157 143.374 306.94 143.045C305.92 143.75 304.901 144.454 303.85 145.18C299.314 144.933 296.721 143.129 293.55 139.843C293.083 138.544 292.615 137.245 292.134 135.906C291.581 134.739 291.029 133.572 290.46 132.37C285.401 130.688 281.912 131.357 277.07 133.438C277.367 132.491 277.665 131.544 277.971 130.569C278.014 129.402 278.056 128.235 278.1 127.033C274.431 123.044 270.599 120.771 265.74 118.493C264.464 121.667 263.37 124.74 262.65 128.1C263.457 128.056 264.265 128.012 265.096 127.967C267.8 128.1 267.8 128.1 269.86 130.235C269.86 131.292 269.86 132.349 269.86 133.438C268.904 133.416 267.948 133.394 266.963 133.371C263.656 133.269 263.656 133.269 260.59 134.505C260.674 138.909 260.79 143.312 260.912 147.715C260.935 148.95 260.958 150.184 260.982 151.456C261.212 159.119 262.175 165.73 264.71 172.935C265.05 173.992 265.39 175.049 265.74 176.138C270.224 178.22 274.132 178.509 279.001 178.406C280.782 178.377 280.782 178.377 282.598 178.348C283.493 178.323 284.388 178.298 285.31 178.273C284.8 179.858 284.8 179.858 284.28 181.475C281.246 182.586 278.186 183.007 275.01 183.61C275.01 188.19 275.01 192.769 275.01 197.488C270.421 198.544 270.421 198.544 265.74 199.623C265.74 198.566 265.74 197.509 265.74 196.42C268.799 195.892 268.799 195.892 271.92 195.353C271.92 191.125 271.92 186.898 271.92 182.543C270.221 182.19 268.521 181.838 266.77 181.475C261.301 177.734 259.089 174.148 257.5 167.598C256.531 162.687 256.309 157.916 256.341 152.919C256.343 152.174 256.345 151.428 256.347 150.659C256.394 144.875 256.755 139.173 257.5 133.438C258.18 133.438 258.86 133.438 259.56 133.438C259.56 132.381 259.56 131.324 259.56 130.235C255.141 130.235 250.723 130.235 246.17 130.235C246.17 129.178 246.17 128.121 246.17 127.033C247.361 126.876 247.361 126.876 248.576 126.716C249.609 126.556 250.642 126.396 251.706 126.232C252.734 126.083 253.762 125.935 254.82 125.782C257.617 125.191 257.617 125.191 258.699 122.879C259.125 121.765 259.125 121.765 259.56 120.628C261.234 118.759 261.234 118.759 262.65 117.425C254.363 120.161 248.057 122.498 243.08 130.235C242.4 130.235 241.72 130.235 241.02 130.235C242.282 121.624 244.674 115.956 251.449 110.62C260.51 105.312 276.891 105.755 286.151 110.511Z" fill="#191919"/>
<path d="M149.35 104.615C150.46 110.728 150.46 110.728 149.736 113.355C148.32 115.29 148.32 115.29 145.874 116.624C142.515 118.945 141.628 121.196 140.072 124.964C138.972 127.191 137.678 128.502 135.96 130.235C135.232 131.996 134.539 133.774 133.9 135.573C132.87 136.64 132.87 136.64 130.23 136.707C129.402 136.685 128.573 136.663 127.72 136.64C126.625 134.705 126.625 134.705 125.66 132.37C126.17 130.785 126.17 130.785 126.69 129.168C126.078 129.386 125.466 129.605 124.835 129.831C118.473 131.974 111.807 133.951 105.06 133.438C102.827 131.874 102.827 131.874 100.94 130.235C98.409 129.612 98.409 129.612 95.7898 130.235C94.0643 131.647 92.3485 133.071 90.6398 134.505C88.2569 135.287 85.8547 136.012 83.4298 136.64C83.0899 136.992 82.75 137.345 82.3998 137.708C75.9775 138.21 75.9775 138.21 72.6792 136.106C72.1481 135.578 71.617 135.049 71.0698 134.505C72.6453 130.191 75.5398 127.865 78.9879 125.164C79.5775 124.701 80.167 124.238 80.7744 123.761C101.692 107.776 123.851 104.141 149.35 104.615Z" fill="#FF7700"/>
<path d="M256.47 267.943C256.5 271.857 256.518 275.771 256.535 279.685C256.543 280.784 256.552 281.884 256.561 283.017C256.61 299.216 256.61 299.216 253.38 304.238C250.359 304.55 250.359 304.55 246.75 304.438C244.967 304.394 244.967 304.394 243.149 304.35C242.106 304.313 241.064 304.276 239.99 304.238C236.882 304.139 236.882 304.139 233.81 304.838C230.72 305.305 230.72 305.305 227.63 304.238C227.12 304.766 227.12 304.766 226.6 305.305C224.884 305.348 223.166 305.351 221.45 305.305C219.448 300.949 219.148 297.476 219.189 292.674C219.196 291.295 219.202 289.915 219.209 288.494C219.226 287.048 219.244 285.601 219.261 284.155C219.272 282.688 219.281 281.221 219.29 279.754C219.314 276.172 219.348 272.591 219.39 269.01C231.776 268.047 244.051 267.824 256.47 267.943Z" fill="#FF7700"/>
<path d="M329.6 202.825C335.349 203.372 339.628 204.943 344.728 207.695C345.805 208.269 345.805 208.269 346.903 208.853C369.572 221.148 383.818 238.374 395.52 261.538C396.078 262.634 396.635 263.731 397.21 264.861C400.28 271.326 401.398 276.753 401.7 283.955C398.641 285.012 395.582 286.069 392.43 287.158C393.067 288.479 393.705 289.8 394.361 291.161C398.601 301.305 398.819 311.538 398.932 322.452C398.95 323.524 398.968 324.597 398.987 325.702C398.976 337.884 396.442 348.686 388.338 357.75C376.985 369.019 363.029 370.696 347.848 370.4C344.844 370.332 341.84 370.249 338.837 370.137C327.063 369.588 327.063 369.588 317.24 375.76C316.22 375.76 315.201 375.76 314.15 375.76C316.387 370.809 318.527 367.453 323.42 365.085C329.444 364.385 335.399 364.672 341.445 364.952C356.818 365.604 373.033 365.832 385.22 354.41C394.499 344.307 394.743 330.228 394.655 317.068C394.371 306.929 392.573 297.015 390.37 287.158C389.595 287.415 388.819 287.673 388.02 287.938C370.735 293.653 353.457 298.882 335.78 303.17C335.44 302.113 335.1 301.056 334.75 299.968C347.139 295.602 359.585 291.494 372.121 287.606C374.909 286.741 377.693 285.867 380.478 284.993C382.261 284.438 384.044 283.884 385.827 283.33C386.655 283.069 387.482 282.809 388.334 282.541C391.513 281.561 394.244 280.753 397.58 280.753C392.16 263.787 384.461 248.228 372.86 234.85C372.254 234.136 371.649 233.422 371.025 232.686C360.555 221.076 347.424 213.756 333.72 207.095C332.344 206.389 330.969 205.68 329.6 204.96C329.6 204.255 329.6 203.551 329.6 202.825Z" fill="#1A1A1A"/>
<path d="M95.79 43.7675C101.932 45.1317 104.529 48.3974 108.15 53.375C108.759 53.1191 109.369 52.8631 109.997 52.5994C110.811 52.2829 111.625 51.9664 112.463 51.6403C113.264 51.3183 114.064 50.9963 114.889 50.6646C118.127 50.0351 119.598 50.9202 122.57 52.3075C124.535 52.7332 126.51 53.1114 128.492 53.4417C133.792 54.3301 133.792 54.3301 134.93 55.51C135.252 58.5124 135.252 58.5124 134.93 61.915C132.87 64.4503 132.87 64.4503 130.81 66.185C129.79 65.8327 128.771 65.4805 127.72 65.1175C128.75 62.9825 129.78 60.8475 130.81 58.7125C128.275 58.1778 125.74 57.6498 123.202 57.1363C121.116 56.7032 119.04 56.2174 116.969 55.7102C114.275 55.2012 114.275 55.2012 112.399 57.0445C112.016 57.595 111.634 58.1454 111.24 58.7125C111.602 59.618 111.965 60.5234 112.338 61.4563C114.196 68.5294 111.923 76.4483 108.85 82.9314C107.674 84.8814 106.38 86.754 105.06 88.6025C103.124 88.3526 103.124 88.3526 100.94 87.535C99.8104 85.552 99.8104 85.552 98.9604 82.994C98.6484 82.0823 98.3364 81.1707 98.0149 80.2314C97.7056 79.273 97.3962 78.3145 97.0775 77.327C96.7522 76.3645 96.4269 75.4019 96.0917 74.4102C95.2895 72.0292 94.5031 69.6438 93.73 67.2525C93.1086 67.7273 92.4872 68.202 91.847 68.6911C91.0238 69.2952 90.2006 69.8993 89.3525 70.5217C88.5399 71.1286 87.7273 71.7354 86.8901 72.3607C84.46 73.6575 84.46 73.6575 82.2632 73.4574C79.5329 72.226 77.4866 70.2618 75.19 68.32C74.5102 68.32 73.8304 68.32 73.13 68.32C72.7901 70.7859 72.4502 73.2519 72.1 75.7925C71.0803 75.4402 70.0606 75.088 69.01 74.725C68.3089 71.5279 67.8048 69.0663 68.5593 65.8514C70.04 64.05 70.04 64.05 72.8725 62.9825C77.1796 62.9825 78.9276 64.749 82.4 67.2525C86.0076 67.1392 88.6381 64.8844 91.67 62.9825C92.3498 62.9825 93.0296 62.9825 93.73 62.9825C93.475 61.6945 93.475 61.6945 93.215 60.3805C92.8111 57.3979 92.5371 54.5748 92.4425 51.5736C92.4159 50.7769 92.3893 49.9801 92.362 49.1592C92.7848 46.4204 93.7661 45.5063 95.79 43.7675Z" fill="#FF7700"/>
<path d="M325.48 199.623C326.269 201.431 326.269 201.431 326.51 203.893C324.759 206.381 324.759 206.381 322.124 209.109C321.167 210.107 320.209 211.105 319.222 212.133C318.177 213.191 317.13 214.247 316.081 215.301C315.561 215.832 315.04 216.363 314.504 216.91C292.282 239.551 292.282 239.551 279.009 240.313C273.343 239.98 270.53 237.865 266.77 233.783C266.032 232.026 265.335 230.249 264.71 228.445C264.089 228.96 263.467 229.474 262.827 230.005C262.004 230.679 261.181 231.353 260.333 232.048C259.52 232.717 258.707 233.385 257.87 234.074C253.579 237.329 250.554 238.769 245.14 238.053C242.832 235.672 242.104 234.176 241.64 230.818C241.791 209.664 241.791 209.664 246.999 204.009C250.717 201.479 254.159 200.412 258.53 199.623C259.737 202.245 260.937 204.869 262.135 207.495C262.479 208.241 262.823 208.987 263.177 209.755C265.74 215.393 265.74 215.393 265.74 217.77C266.523 217.313 267.306 216.856 268.113 216.385C271.073 214.66 274.035 212.94 276.999 211.222C278.272 210.483 279.543 209.743 280.814 209.001C297.12 199.483 306.901 194.231 325.48 199.623ZM301.195 201.891C300.26 202.378 299.326 202.864 298.364 203.366C297.37 203.892 296.376 204.418 295.353 204.96C294.339 205.49 293.325 206.021 292.281 206.567C285.048 210.367 277.889 214.292 270.785 218.345C268.343 219.622 266.35 220.473 263.68 220.973C263.493 220.289 263.306 219.605 263.113 218.9C261.555 213.346 259.818 208.086 257.5 202.825C255.682 203.16 255.682 203.16 253.38 203.893C251.787 204.355 251.787 204.355 250.161 204.827C246.759 207.433 246.596 208.162 245.784 212.299C244.066 223.822 244.066 223.822 246.17 234.85C252.876 234.672 256.721 230.538 261.62 226.31C262.987 225.234 264.358 224.164 265.74 223.108C265.974 223.856 266.207 224.605 266.448 225.376C268.314 229.611 270.888 233.781 275.01 235.918C282.899 236.977 289.195 234.237 295.61 229.513C300.457 225.353 304.923 220.78 309.397 216.202C311.06 214.568 311.06 214.568 313.909 212.224C316.107 210.384 317.539 208.709 319.107 206.294C319.85 205.15 320.594 204.005 321.36 202.825C319.366 202.287 317.37 201.754 315.373 201.224C314.262 200.927 313.151 200.629 312.006 200.323C307.465 199.265 305.257 199.762 301.195 201.891Z" fill="#1A1E22"/>
<path d="M178.19 285.022C179.21 285.022 180.229 285.022 181.28 285.022C179.888 291.96 178.109 298.634 176.001 305.372C175.716 306.296 175.43 307.22 175.136 308.172C174.441 310.42 173.742 312.667 173.04 314.912C175.079 314.912 177.119 314.912 179.22 314.912C179.22 315.969 179.22 317.026 179.22 318.115C178.572 318.312 177.924 318.509 177.256 318.711C168.483 321.793 163.244 326.724 159.063 335.316C155.175 344.743 152.416 354.077 155.659 364.218C157.909 369.642 161.285 374.307 166.281 377.228C174.551 379.318 180.539 378.507 188.49 375.76C188.83 376.817 189.17 377.874 189.52 378.962C181.997 382.861 174.859 384.296 166.602 382.032C158.589 379.107 154.988 374.41 151.39 366.686C147.396 356.133 149.296 344.794 153.575 334.636C156.591 328.727 160.372 322.585 165.828 318.836C168.227 316.755 168.693 315.532 169.499 312.44C169.744 311.54 169.989 310.64 170.241 309.714C170.485 308.765 170.729 307.817 170.98 306.839C171.505 304.908 172.033 302.977 172.565 301.047C172.946 299.661 172.946 299.661 173.335 298.247C174.644 293.707 176.325 289.344 178.19 285.022Z" fill="#1A1A1A"/>
<path d="M297.054 252.856C297.967 252.853 298.879 252.851 299.819 252.849C300.788 252.854 301.757 252.859 302.756 252.864C304.226 252.869 304.226 252.869 305.727 252.875C325.306 253.024 325.306 253.024 329.6 256.2C330.264 258.594 330.264 258.594 330.437 261.404C330.542 262.787 330.542 262.787 330.65 264.198C330.631 266.723 330.307 268.74 329.6 271.145C328.92 271.145 328.24 271.145 327.54 271.145C327.03 268.503 327.03 268.503 326.51 265.807C326.17 267.569 325.83 269.33 325.48 271.145C321.651 270.452 318.174 269.355 314.536 267.942C308.884 265.76 304.022 264.495 297.992 264.14C297.269 264.093 296.546 264.047 295.801 264C294.021 263.887 292.24 263.779 290.46 263.672C290.46 260.502 290.46 257.332 290.46 254.065C292.886 252.808 294.352 252.86 297.054 252.856Z" fill="#FF7700"/>
<path d="M48.4102 175.07C48.7501 175.07 49.09 175.07 49.4402 175.07C49.4402 180.002 49.4402 184.934 49.4402 190.015C52.1594 190.015 54.8786 190.015 57.6802 190.015C57.5209 191.501 57.5209 191.501 57.3583 193.017C57.4645 194.14 57.5708 195.263 57.6802 196.42C58.5299 196.948 59.3797 197.477 60.2552 198.021C61.1049 198.55 61.9547 199.078 62.8302 199.623C63.6243 203.737 63.1575 205.501 60.9633 209.03C60.2198 210.153 59.4763 211.276 58.7102 212.433C58.1769 214.065 57.685 215.712 57.2296 217.37C55.9245 221.745 54.4685 224.031 50.4702 226.31C49.4505 225.958 48.4308 225.605 47.3802 225.243C45.6292 217.618 44.9576 210.387 44.9983 202.558C44.9996 201.492 45.001 200.425 45.0023 199.326C45.1074 190.897 46.1289 183.19 48.4102 175.07Z" fill="#FF7700"/>
<path d="M242.05 208.162C242.05 209.219 242.05 210.276 242.05 211.365C240.98 211.895 239.91 212.425 238.807 212.97C211.056 226.895 190.049 248.989 178.19 278.617C179.21 279.322 180.229 280.027 181.28 280.752C181.28 281.809 181.28 282.866 181.28 283.955C178.319 283.621 178.319 283.621 175.1 282.887C174.42 281.831 173.74 280.774 173.04 279.685C176.54 266.003 184.767 252.879 193.64 242.322C194.349 241.446 195.058 240.569 195.789 239.666C205.605 227.858 225.549 208.162 242.05 208.162Z" fill="#1A1A1A"/>
<path d="M230.72 335.195C231.75 336.262 231.75 336.262 231.867 338.736C231.861 339.803 231.856 340.871 231.85 341.971C231.847 343.124 231.844 344.276 231.84 345.463C231.827 347.283 231.827 347.283 231.814 349.139C231.81 350.356 231.805 351.573 231.8 352.828C231.788 355.846 231.771 358.864 231.75 361.882C228.797 363.413 226.057 363.325 222.765 363.559C222.085 363.607 221.404 363.656 220.703 363.706C219.265 363.806 217.827 363.905 216.389 364.001C214.18 364.151 211.972 364.311 209.764 364.472C208.368 364.569 206.973 364.665 205.577 364.76C203.663 364.892 203.663 364.892 201.711 365.027C200.265 365.056 200.265 365.056 198.79 365.085C195.441 361.614 196.757 350.486 196.665 345.707C196.665 343.27 196.681 340.835 196.73 338.397C207.919 336.443 219.339 334.659 230.72 335.195ZM209.605 340.532C208.758 340.634 207.911 340.736 207.038 340.841C204.975 341.09 202.912 341.344 200.85 341.6C200.822 343.401 200.802 345.203 200.785 347.004C200.773 348.007 200.762 349.011 200.749 350.044C200.859 353.654 201.387 357.24 201.88 360.815C210.717 360.463 219.555 360.11 228.66 359.747C229.027 347.069 229.027 347.069 227.63 339.465C221.529 339.349 215.658 339.776 209.605 340.532Z" fill="#191919"/>
<path d="M72.615 204.693C75.19 204.96 75.19 204.96 77.25 207.095C77.3345 209.918 77.3345 209.918 77.0569 213.3C76.9786 214.408 76.9002 215.515 76.8195 216.657C76.1745 220.152 74.9232 222.249 73.13 225.242C73.1513 226.453 73.1725 227.664 73.1944 228.912C73.1009 234.436 70.6229 237.448 66.95 241.255C64.2463 240.855 64.2463 240.855 61.8 240.187C61.0919 237.852 61.0919 237.852 60.77 234.85C61.7582 233.046 62.7954 231.27 63.86 229.512C64.2683 228.057 64.6311 226.587 64.9544 225.109C65.92 220.972 65.92 220.972 67.98 217.77C68.1519 215.154 68.1519 215.154 67.98 212.366C67.8513 209.526 67.8513 209.526 67.98 207.095C70.04 204.96 70.04 204.96 72.615 204.693Z" fill="#FF7700"/>
<path d="M306.534 96.9173C315.569 101.815 315.569 101.815 317.24 103.548C317.343 106.738 317.383 109.898 317.369 113.088C317.375 114.429 317.375 114.429 317.381 115.797C317.38 116.652 317.378 117.507 317.377 118.388C317.376 119.175 317.375 119.962 317.374 120.773C317.24 122.763 317.24 122.763 316.21 124.898C315.53 124.898 314.851 124.898 314.15 124.898C314.195 123.662 314.241 122.426 314.287 121.153C314.622 112.145 314.622 112.145 311.193 104.269C308.458 102.541 305.851 101.418 302.82 100.345C301.843 99.9143 300.866 99.4836 299.859 99.0398C291.7 95.7228 282.701 94.2624 274.181 97.0049C271.692 98.0358 271.692 98.0358 270.697 100.812C270.283 102.166 270.283 102.166 269.86 103.548C268.841 105.133 268.841 105.133 267.8 106.75C267.12 106.75 266.441 106.75 265.74 106.75C266.121 100.17 267.494 97.356 271.92 92.8725C283.131 87.0728 296.06 91.4221 306.534 96.9173Z" fill="#191919"/>
<path d="M349.17 322.385C349.17 323.442 349.17 324.499 349.17 325.588C347.784 325.92 347.784 325.92 346.37 326.259C338.028 328.393 330.455 331.05 322.77 335.076C319.714 336.596 317.891 337.494 314.532 336.646C313.726 336.167 312.92 335.688 312.09 335.195C311.181 334.741 310.271 334.287 309.334 333.819C307.99 333.113 307.99 333.113 306.618 332.393C305.709 331.917 304.799 331.441 303.862 330.95C303.178 330.59 302.495 330.229 301.79 329.858C301.79 328.801 301.79 327.744 301.79 326.655C305.357 327.095 307.877 327.67 311.06 329.457C315.64 331.633 318.872 330.408 323.501 328.661C324.579 328.197 325.657 327.733 326.768 327.255C334.202 324.212 341.15 322.224 349.17 322.385Z" fill="#1A1A1A"/>
<path d="M300.76 271.145C301.44 271.145 302.12 271.145 302.82 271.145C307.434 280.709 305.001 297.221 304.945 307.84C304.939 309.572 304.935 311.304 304.93 313.036C304.919 317.22 304.902 321.404 304.88 325.588C304.2 325.588 303.521 325.588 302.82 325.588C298.08 308.99 300.654 288.347 300.76 271.145Z" fill="#191919"/>
<path d="M78.2802 64.05C79.0025 64.6224 79.7248 65.1949 80.469 65.7847C82.2707 67.4834 82.2707 67.4834 84.3959 67.119C86.6662 66.184 86.6662 66.184 89.1596 64.517C91.6702 62.9825 91.6702 62.9825 94.7602 62.9825C94.3912 65.9577 93.9307 67.0649 91.7467 69.1081C90.5298 69.9399 90.5298 69.9399 89.2883 70.7886C88.4851 71.3569 87.6818 71.9252 86.8542 72.5108C84.4602 73.6575 84.4602 73.6575 82.2675 73.4406C79.5253 72.2303 77.4884 70.2631 75.1902 68.32C74.5104 68.32 73.8306 68.32 73.1302 68.32C72.7903 70.7859 72.4504 73.2518 72.1002 75.7925C71.0805 75.4402 70.0608 75.0879 69.0102 74.725C67.7528 68.9909 67.7528 68.9909 68.8171 65.8514C71.4526 61.9698 74.2197 63.04 78.2802 64.05Z" fill="#1A1A1A"/>
<path d="M122.57 52.3075C125.551 52.9236 128.539 53.4386 131.538 53.9463C133.9 54.4425 133.9 54.4425 134.93 55.51C135.252 58.5123 135.252 58.5123 134.93 61.915C132.87 64.4503 132.87 64.4503 130.81 66.185C129.79 65.8327 128.771 65.4804 127.72 65.1175C128.75 62.9825 129.78 60.8475 130.81 58.7125C128.273 58.1772 125.734 57.6484 123.194 57.1321C121.156 56.7109 119.125 56.2524 117.098 55.7768C113.878 55.4664 112.044 56.1606 109.18 57.645C108.84 56.2359 108.5 54.8268 108.15 53.375C114.057 50.6308 116.445 49.6935 122.57 52.3075Z" fill="#191919"/>
<path d="M269.86 136.64C270.54 136.992 271.22 137.345 271.92 137.708C271.948 139.954 271.968 142.2 271.984 144.446C271.996 145.697 272.008 146.948 272.02 148.237C271.92 151.585 271.92 151.585 270.89 154.788C272.25 154.788 273.609 154.788 275.01 154.788C274.67 155.844 274.33 156.901 273.98 157.99C271.941 157.99 269.901 157.99 267.8 157.99C267.46 154.115 267.12 150.24 266.77 146.248C265.41 145.895 264.051 145.543 262.65 145.18C262.65 143.066 262.65 140.953 262.65 138.775C264.788 138.184 266.609 137.708 268.83 137.708C269.17 137.355 269.51 137.003 269.86 136.64Z" fill="#191919"/>
<path d="M316.21 359.747C314.774 365.701 311.989 370.253 307.97 374.692C305.009 376.294 305.009 376.294 302.82 376.827C302.48 376.123 302.14 375.418 301.79 374.692C303.603 372.192 305.428 369.703 307.262 367.22C307.776 366.507 308.291 365.794 308.821 365.06C309.322 364.386 309.823 363.711 310.34 363.017C310.798 362.391 311.257 361.764 311.729 361.119C313.12 359.747 313.12 359.747 316.21 359.747Z" fill="#1A1A1A"/>
<path d="M24.72 134.505C25.7397 134.505 26.7594 134.505 27.81 134.505C27.2059 139.298 25.9928 143.286 24.1407 147.715C23.672 148.846 23.2033 149.978 22.7204 151.143C22.3606 151.993 22.0008 152.844 21.63 153.72C20.6103 153.72 19.5906 153.72 18.54 153.72C18.9383 146.29 21.2535 140.975 24.72 134.505Z" fill="#1A1A1A"/>
<path d="M11.3299 178.273C12.6895 178.273 14.0491 178.273 15.4499 178.273C15.3043 180.853 15.1534 183.432 14.9992 186.012C14.9385 187.104 14.9385 187.104 14.8765 188.218C14.6602 191.771 14.3999 195.142 13.3899 198.555C12.3702 198.555 11.3505 198.555 10.2999 198.555C10.2019 191.688 10.1421 185.043 11.3299 178.273Z" fill="#191919"/>
<path d="M32.9602 266.875C33.9799 266.875 34.9996 266.875 36.0502 266.875C37.6676 268.789 37.6676 268.789 39.2689 271.345C39.8027 272.175 40.3364 273.005 40.8863 273.86C42.2658 276.552 42.8384 278.818 43.2602 281.82C40.1886 281.467 39.2288 280.855 37.1244 278.426C36.4938 277.476 35.8631 276.527 35.2133 275.548C34.2474 274.132 34.2474 274.132 33.2619 272.688C32.8225 271.826 32.383 270.965 31.9302 270.077C32.2701 269.021 32.61 267.964 32.9602 266.875Z" fill="#1A1A1A"/>
<path d="M286.34 160.125C286.014 163.255 285.689 165.025 283.636 167.397C280.234 169.16 277.731 169.089 273.98 168.665C271.985 167.197 271.985 167.197 270.89 165.462C270.89 164.758 270.89 164.053 270.89 163.327C271.512 163.365 272.133 163.402 272.773 163.44C277.976 163.727 277.976 163.727 282.671 161.726C284.28 160.125 284.28 160.125 286.34 160.125Z" fill="#1A1A1A"/>
<path d="M45.32 282.888C48.6317 284.391 50.8015 286.2 53.3025 288.892C54.2505 289.904 54.2505 289.904 55.2177 290.935C55.9267 291.707 55.9267 291.707 56.65 292.495C56.3101 293.552 55.9702 294.609 55.62 295.698C50.9311 294.268 46.9365 291.468 44.29 287.158C44.6361 284.814 44.6361 284.814 45.32 282.888Z" fill="#1B1B1B"/>
<path d="M13.3901 226.31C14.4098 226.31 15.4295 226.31 16.4801 226.31C17.1721 228.554 17.8575 230.801 18.5401 233.049C18.9225 234.299 19.3049 235.55 19.6989 236.839C20.6001 240.187 20.6001 240.187 20.6001 243.39C19.2405 243.39 17.8809 243.39 16.4801 243.39C15.9568 241.547 15.4438 239.7 14.9351 237.852C14.5049 236.31 14.5049 236.31 14.066 234.737C13.4243 231.804 13.2634 229.303 13.3901 226.31Z" fill="#191919"/>
<path d="M62.8299 88.6025C62.259 92.5941 60.7762 94.2631 57.8731 96.8756C56.8115 97.8581 56.8115 97.8581 55.7286 98.8605C53.5599 100.345 53.5599 100.345 49.4399 100.345C49.8136 97.327 50.3582 96.1885 52.4897 94.0234C53.3102 93.3794 54.1308 92.7354 54.9762 92.0719C55.7914 91.4168 56.6066 90.7618 57.4466 90.087C59.7399 88.6025 59.7399 88.6025 62.8299 88.6025Z" fill="#1A1A1A"/>
<path d="M16.4799 156.922C17.4996 157.275 18.5193 157.627 19.5699 157.99C18.5502 162.922 17.5305 167.854 16.4799 172.935C15.1203 172.935 13.7607 172.935 12.3599 172.935C12.6522 171.065 12.9546 169.198 13.2611 167.331C13.4284 166.29 13.5957 165.25 13.7681 164.178C14.3669 161.435 15.1495 159.356 16.4799 156.922Z" fill="#191919"/>
<path d="M33.9898 118.492C35.0095 118.492 36.0292 118.492 37.0798 118.492C36.6103 123.683 34.2974 128.545 30.8998 132.37C29.5402 132.37 28.1806 132.37 26.7798 132.37C28.1381 127.123 30.2562 122.373 33.9898 118.492Z" fill="#1A1A1A"/>
<path d="M44.2901 102.48C45.6497 102.832 47.0093 103.185 48.4101 103.547C45.9802 108.134 43.6501 112.518 40.1701 116.357C39.1504 116.357 38.1307 116.357 37.0801 116.357C37.4304 110.548 40.8941 106.818 44.2901 102.48Z" fill="#1A1A1A"/>
<path d="M21.6299 249.795C22.9895 249.795 24.3491 249.795 25.7499 249.795C26.619 251.301 27.4748 252.815 28.3249 254.332C29.0419 255.595 29.0419 255.595 29.7733 256.884C30.8999 259.402 30.8999 259.402 30.8999 263.672C29.0169 263.431 29.0169 263.431 26.7799 262.605C25.251 260.512 25.251 260.512 23.9474 257.935C23.5066 257.09 23.0658 256.245 22.6116 255.374C21.6299 252.997 21.6299 252.997 21.6299 249.795Z" fill="#1A1A1A"/>
<path d="M11.3299 203.893C12.0097 204.245 12.6895 204.597 13.3899 204.96C13.872 207.455 14.2414 209.974 14.5487 212.499C14.7213 213.877 14.8939 215.254 15.0717 216.673C15.1965 217.74 15.3213 218.806 15.4499 219.905C14.0903 220.257 12.7307 220.61 11.3299 220.973C9.98395 215.741 9.97322 210.338 10.2999 204.96C10.6398 204.608 10.9797 204.255 11.3299 203.893Z" fill="#191919"/>
<path d="M182.31 148.383C183.096 148.581 183.882 148.779 184.692 148.983C187.552 149.694 187.552 149.694 190.55 148.383C190.359 149.021 190.168 149.66 189.971 150.317C189.292 152.828 189.292 152.828 190.55 155.855C189.976 155.569 189.403 155.283 188.812 154.988C187.633 154.889 187.633 154.889 186.43 154.788C184.671 156.522 182.953 158.302 181.28 160.125C180.26 160.125 179.241 160.125 178.19 160.125C178.53 159.068 178.87 158.011 179.22 156.923C179.9 156.923 180.58 156.923 181.28 156.923C183.212 152.794 183.212 152.794 182.31 148.383Z" fill="#1C262F"/>
<path d="M86.52 314.912C90.8813 316.312 94.8363 318.055 98.88 320.25C98.88 321.307 98.88 322.364 98.88 323.452C94.1785 322.872 90.668 321.537 86.52 319.182C86.52 317.773 86.52 316.364 86.52 314.912Z" fill="#191919"/>
<path d="M59.74 296.765C63.443 298.536 66.8099 300.583 70.04 303.17C70.04 304.579 70.04 305.988 70.04 307.44C66.7921 306.792 64.6954 305.688 62.0575 303.637C61.4255 303.151 60.7935 302.666 60.1423 302.165C59.6696 301.792 59.197 301.419 58.71 301.035C59.0499 299.626 59.3898 298.217 59.74 296.765Z" fill="#1A1A1A"/>
<path d="M103 320.25C109.118 321.835 109.118 321.835 115.36 323.452C115.36 324.509 115.36 325.566 115.36 326.655C109.536 327.025 106.059 326.051 100.94 323.452C101.62 322.396 102.3 321.339 103 320.25Z" fill="#191919"/>
<path d="M141.11 174.003C141.79 174.003 142.47 174.003 143.17 174.003C143.17 175.412 143.17 176.821 143.17 178.273C144.53 178.977 145.889 179.682 147.29 180.408C146.334 180.496 145.378 180.584 144.393 180.674C141.022 181.158 141.022 181.158 139.179 183.677C138.605 184.701 138.605 184.701 138.02 185.745C137.34 185.393 136.66 185.04 135.96 184.678C136.64 182.916 137.32 181.155 138.02 179.34C136.66 178.988 135.301 178.635 133.9 178.273C133.9 177.92 133.9 177.568 133.9 177.205C135.398 177.007 135.398 177.007 136.926 176.805C138.487 176.474 138.487 176.474 140.08 176.138C140.42 175.433 140.76 174.728 141.11 174.003Z" fill="#1C2731"/>
<path d="M72.1001 307.44C76.7427 308.006 79.7776 309.784 83.4301 312.778C83.4301 313.834 83.4301 314.891 83.4301 315.98C78.7875 315.414 75.7526 313.636 72.1001 310.643C72.1001 309.586 72.1001 308.529 72.1001 307.44Z" fill="#1A1A1A"/>
<path d="M134.93 322.385C138.669 322.385 142.408 322.385 146.26 322.385C146.26 323.442 146.26 324.499 146.26 325.588C142.159 327.004 138.174 326.729 133.9 326.655C134.24 325.246 134.58 323.837 134.93 322.385Z" fill="#191919"/>
<path d="M326.51 255.133C327.53 255.485 328.549 255.837 329.6 256.2C329.802 257.889 329.993 259.58 330.179 261.271C330.287 262.212 330.395 263.153 330.505 264.123C330.624 266.752 330.359 268.653 329.6 271.145C328.92 271.145 328.24 271.145 327.54 271.145C326.178 265.849 326.418 260.565 326.51 255.133Z" fill="#1A1A1A"/>
<path d="M156.56 232.715C158.6 232.715 160.639 232.715 162.74 232.715C163.08 235.181 163.42 237.647 163.77 240.187C162.984 239.945 162.198 239.703 161.388 239.454C160.475 239.343 159.561 239.233 158.62 239.12C156.86 240.588 156.86 240.588 155.53 242.322C154.85 242.322 154.171 242.322 153.47 242.322C153.789 241.728 154.108 241.134 154.436 240.521C155.59 237.919 156.107 235.531 156.56 232.715Z" fill="#1C2833"/>
<path d="M281.19 136.64C283.229 137.168 283.229 137.168 285.31 137.708C285.954 139.642 285.954 139.642 286.34 141.978C285.32 143.563 285.32 143.563 284.28 145.18C283.26 145.18 282.24 145.18 281.19 145.18C280.031 139.042 280.031 139.042 281.19 136.64Z" fill="#191919"/>
<path d="M185.4 370.423C185.4 371.479 185.4 372.536 185.4 373.625C181.823 374.861 178.849 374.766 175.1 374.693C175.44 373.636 175.78 372.579 176.13 371.49C179.185 370.246 182.151 370.329 185.4 370.423Z" fill="#1A1A1A"/>
<path d="M119.48 323.453C122.879 323.453 126.278 323.453 129.78 323.453C129.78 324.509 129.78 325.566 129.78 326.655C126.381 326.655 122.982 326.655 119.48 326.655C119.48 325.598 119.48 324.541 119.48 323.453Z" fill="#191919"/>
<path d="M175.1 353.343C178.499 353.343 181.898 353.343 185.4 353.343C185.4 354.399 185.4 355.456 185.4 356.545C182.341 356.545 179.282 356.545 176.13 356.545C175.79 355.488 175.45 354.431 175.1 353.343Z" fill="#1A1A1A"/>
<path d="M184.37 362.95C184.37 364.007 184.37 365.064 184.37 366.152C180.894 366.82 180.894 366.82 177.16 367.22C176.48 366.515 175.8 365.811 175.1 365.085C178.638 362.64 180.235 362.76 184.37 362.95Z" fill="#1A1A1A"/>
<path d="M150.38 156.922C150.72 157.979 151.06 159.036 151.41 160.125C150.457 162.072 150.457 162.072 149.028 164.061C148.565 164.726 148.102 165.391 147.624 166.075C147.174 166.578 146.724 167.08 146.26 167.597C145.58 167.597 144.901 167.597 144.2 167.597C144.627 162.439 146.738 160.31 150.38 156.922Z" fill="#1C2935"/>
<path d="M154.5 195.352C157.756 196.815 158.612 197.476 160.68 200.69C160.68 201.747 160.68 202.804 160.68 203.892C158.749 203.225 158.749 203.225 156.56 201.757C155.272 198.422 155.272 198.422 154.5 195.352Z" fill="#1A1C1E"/>
<path d="M161.71 208.162C162.73 208.162 163.749 208.162 164.8 208.162C165.14 210.628 165.48 213.094 165.83 215.635C164.81 215.635 163.791 215.635 162.74 215.635C162.4 213.169 162.06 210.703 161.71 208.162Z" fill="#1A1A1A"/>
<path d="M168.92 147.315C171.639 147.315 174.358 147.315 177.16 147.315C177.5 148.372 177.84 149.429 178.19 150.518C175.131 150.165 172.072 149.813 168.92 149.45C168.92 148.745 168.92 148.041 168.92 147.315Z" fill="#1B2126"/>
<path d="M164.8 218.838C165.48 219.19 166.16 219.542 166.86 219.905C166.86 222.019 166.86 224.132 166.86 226.31C165.84 226.662 164.821 227.015 163.77 227.378C163.726 224.887 163.728 222.395 163.77 219.905C164.11 219.553 164.45 219.2 164.8 218.838Z" fill="#1E2F3E"/>
<path d="M143.17 184.677C147.987 186.254 147.987 186.254 149.672 189.081C149.905 189.741 150.139 190.402 150.38 191.082C145.563 189.506 145.563 189.506 143.878 186.679C143.644 186.019 143.411 185.358 143.17 184.677Z" fill="#1E2E3E"/>
<path d="M164.8 150.517C162.034 153.384 159.262 153.785 155.53 154.787C155.87 153.731 156.21 152.674 156.56 151.585C159.35 150.139 161.719 150.448 164.8 150.517Z" fill="#1D2B38"/>
</svg>
