<svg width="28" height="28" viewBox="0 0 28 28" fill="none" xmlns="http://www.w3.org/2000/svg">
<path d="M15.75 11.375C15.75 11.1429 15.6578 10.9204 15.4937 10.7563C15.3296 10.5922 15.1071 10.5 14.875 10.5H7.875C7.64294 10.5 7.42038 10.5922 7.25628 10.7563C7.09219 10.9204 7 11.1429 7 11.375C7 11.6071 7.09219 11.8296 7.25628 11.9937C7.42038 12.1578 7.64294 12.25 7.875 12.25H14.875C15.1071 12.25 15.3296 12.1578 15.4937 11.9937C15.6578 11.8296 15.75 11.6071 15.75 11.375ZM14.5833 14.875C14.5833 14.6429 14.4911 14.4204 14.3271 14.2563C14.163 14.0922 13.9404 14 13.7083 14H7.875C7.64294 14 7.42038 14.0922 7.25628 14.2563C7.09219 14.4204 7 14.6429 7 14.875C7 15.1071 7.09219 15.3296 7.25628 15.4937C7.42038 15.6578 7.64294 15.75 7.875 15.75H13.7083C13.9404 15.75 14.163 15.6578 14.3271 15.4937C14.4911 15.3296 14.5833 15.1071 14.5833 14.875ZM14.875 17.5C15.1071 17.5 15.3296 17.5922 15.4937 17.7563C15.6578 17.9204 15.75 18.1429 15.75 18.375C15.75 18.6071 15.6578 18.8296 15.4937 18.9937C15.3296 19.1578 15.1071 19.25 14.875 19.25H7.875C7.64294 19.25 7.42038 19.1578 7.25628 18.9937C7.09219 18.8296 7 18.6071 7 18.375C7 18.1429 7.09219 17.9204 7.25628 17.7563C7.42038 17.5922 7.64294 17.5 7.875 17.5H14.875Z" fill="#FF7700"/>
<path fill-rule="evenodd" clip-rule="evenodd" d="M7 25.3751H22.1667C23.0176 25.3751 23.8336 25.0371 24.4353 24.4354C25.037 23.8337 25.375 23.0177 25.375 22.1668V15.7501C25.375 15.518 25.2828 15.2955 25.1187 15.1314C24.9546 14.9673 24.7321 14.8751 24.5 14.8751H20.7083V5.76693C20.7083 4.10676 18.8312 3.14077 17.4802 4.1056L17.276 4.25143C16.8289 4.5688 16.294 4.7389 15.7458 4.73806C15.1975 4.73722 14.6631 4.56549 14.217 4.24677C13.4722 3.71671 12.5808 3.43188 11.6667 3.43188C10.7525 3.43188 9.86111 3.71671 9.11633 4.24677C8.67022 4.56549 8.13585 4.73722 7.58758 4.73806C7.03931 4.7389 6.50441 4.5688 6.05733 4.25143L5.85317 4.1056C4.50217 3.14077 2.625 4.1056 2.625 5.76693V21.0001C2.625 22.1604 3.08594 23.2732 3.90641 24.0937C4.72688 24.9142 5.83968 25.3751 7 25.3751ZM10.1337 5.6701C10.5816 5.35212 11.1173 5.1813 11.6667 5.1813C12.216 5.1813 12.7517 5.35212 13.1997 5.6701C13.9425 6.20107 14.8325 6.48701 15.7456 6.48806C16.6586 6.48911 17.5493 6.2052 18.2933 5.67593L18.4975 5.5301C18.5411 5.49907 18.5923 5.48063 18.6457 5.47678C18.699 5.47293 18.7524 5.48383 18.8 5.50828C18.8476 5.53273 18.8875 5.56979 18.9154 5.61541C18.9433 5.66103 18.9582 5.71344 18.9583 5.76693V22.1668C18.9583 22.6918 19.0843 23.1876 19.3083 23.6251H7C6.30381 23.6251 5.63613 23.3485 5.14384 22.8563C4.65156 22.364 4.375 21.6963 4.375 21.0001V5.76693C4.37514 5.71344 4.38999 5.66103 4.41791 5.61541C4.44584 5.56979 4.48577 5.53273 4.53335 5.50828C4.58092 5.48383 4.6343 5.47293 4.68765 5.47678C4.741 5.48063 4.79226 5.49907 4.83583 5.5301L5.04 5.67593C5.78404 6.2052 6.67469 6.48911 7.58777 6.48806C8.50085 6.48701 9.39084 6.20107 10.1337 5.6701ZM20.7083 22.1668V16.6251H23.625V22.1668C23.625 22.5535 23.4714 22.9245 23.1979 23.198C22.9244 23.4715 22.5534 23.6251 22.1667 23.6251C21.7799 23.6251 21.409 23.4715 21.1355 23.198C20.862 22.9245 20.7083 22.5535 20.7083 22.1668Z" fill="#FF7700"/>
</svg>
