<svg width="61" height="32" viewBox="0 0 61 32" fill="none" xmlns="http://www.w3.org/2000/svg">
<path d="M7.14844 18.2891C6.26562 18.2891 5.55859 17.9648 5.02734 17.3164C4.50391 16.6602 4.24219 15.8672 4.24219 14.9375C4.24219 14.0078 4.4375 13.1016 4.82812 12.2188C5.22656 11.3281 5.74609 10.5469 6.38672 9.875C7.02734 9.19531 7.78516 8.64844 8.66016 8.23438C9.53516 7.8125 10.4062 7.60156 11.2734 7.60156C12.1406 7.60156 12.9414 7.73437 13.6758 8C14.4102 8.25781 15.0586 8.62891 15.6211 9.11328C16.1914 9.59766 16.6445 10.2148 16.9805 10.9648C17.3164 11.707 17.4844 12.5859 17.4844 13.6016C17.4844 14.6172 17.3008 15.6836 16.9336 16.8008C16.5742 17.9102 16.0547 18.9414 15.375 19.8945C14.7031 20.8398 13.918 21.6797 13.0195 22.4141C12.1211 23.1484 11.0977 23.7266 9.94922 24.1484C8.80078 24.5625 7.61719 24.7695 6.39844 24.7695C4.42969 24.7695 2.91016 24.2656 1.83984 23.2578C0.769531 22.2422 0.234375 20.8008 0.234375 18.9336C0.234375 16.8789 0.84375 14.9766 2.0625 13.2266C2.67969 12.3438 3.40625 11.6172 4.24219 11.0469L4.59375 11.4805C3.90625 12.3086 3.36328 13.3438 2.96484 14.5859C2.56641 15.8281 2.36719 16.957 2.36719 17.9727C2.36719 18.9805 2.45312 19.8242 2.625 20.5039C2.80469 21.1758 3.07031 21.7812 3.42188 22.3203C4.1875 23.4844 5.33984 24.0664 6.87891 24.0664C9.07422 24.0664 10.9883 22.8945 12.6211 20.5508C13.543 19.2227 14.1953 17.6953 14.5781 15.9688C14.7578 15.1484 14.8477 14.3672 14.8477 13.625C14.8477 12.8828 14.7695 12.2109 14.6133 11.6094C14.4648 11 14.2344 10.457 13.9219 9.98047C13.2734 8.97266 12.2617 8.46875 10.8867 8.46875C9.85547 8.46875 8.91406 8.78906 8.0625 9.42969C7.21094 10.0703 6.55469 10.8867 6.09375 11.8789C5.64062 12.8633 5.41406 13.8398 5.41406 14.8086C5.41406 15.7773 5.57812 16.4727 5.90625 16.8945C6.23438 17.3086 6.66016 17.5156 7.18359 17.5156C7.71484 17.5156 8.25 17.3477 8.78906 17.0117C9.33594 16.668 9.80078 16.1992 10.1836 15.6055C10.5664 15.0117 10.7695 14.3906 10.793 13.7422L11.918 13.5547C11.918 14.3672 11.7031 15.1406 11.2734 15.875C10.8516 16.6016 10.2773 17.1875 9.55078 17.6328C8.83203 18.0703 8.03125 18.2891 7.14844 18.2891ZM23.2617 20.7969L22.5352 21.0078C22.4023 20.6641 22.2695 20.2031 22.1367 19.625C22.0117 19.0469 21.9492 18.6875 21.9492 18.5469C21.3633 18.5469 20.7695 18.6328 20.168 18.8047C19.5742 18.9766 19.0977 19.1602 18.7383 19.3555C18.3867 19.5508 18.082 19.832 17.8242 20.1992C17.5742 20.5586 17.4492 20.9805 17.4492 21.4648C17.4492 21.9414 17.5703 22.3633 17.8125 22.7305C18.0625 23.0977 18.3906 23.375 18.7969 23.5625C19.5781 23.9297 20.3945 24.1133 21.2461 24.1133C22.1055 24.1133 22.8438 24.0234 23.4609 23.8438C24.0781 23.6641 24.5977 23.4258 25.0195 23.1289C25.4492 22.832 25.8398 22.457 26.1914 22.0039C26.543 21.5508 26.8281 21.0898 27.0469 20.6211C27.2656 20.1445 27.4805 19.6016 27.6914 18.9922C27.9023 18.3828 28.0781 17.8125 28.2188 17.2812C28.6016 15.8672 28.9844 14.6836 29.3672 13.7305C29.7578 12.7773 30.332 11.8398 31.0898 10.918C31.8477 9.98828 32.707 9.22656 33.668 8.63281C33.1992 8.52344 32.6016 8.46875 31.875 8.46875C31.1484 8.46875 30.3203 8.62891 29.3906 8.94922C28.4688 9.26172 27.6094 9.70312 26.8125 10.2734C26.0156 10.8359 25.3008 11.4805 24.668 12.207C24.043 12.9336 23.5508 13.7383 23.1914 14.6211C22.832 15.4961 22.6523 16.375 22.6523 17.2578C24.3711 17.6094 25.6133 18.2461 26.3789 19.168L25.8867 19.6836C25.082 19.1602 24.4805 18.8516 24.082 18.7578C23.6836 18.6641 23.4453 18.6094 23.3672 18.5938C23.0078 18.5469 22.7617 18.5234 22.6289 18.5234C22.7227 19.1016 22.8906 19.7422 23.1328 20.4453L23.2617 20.7969ZM38.3555 6.93359L38.5898 7.48438C37.8711 7.61719 37.2031 7.8125 36.5859 8.07031L36.2695 8.19922C36.832 8.48047 37.2773 8.86328 37.6055 9.34766C37.9414 9.83203 38.1094 10.2773 38.1094 10.6836C38.1094 11.082 38.0742 11.418 38.0039 11.6914C37.9336 11.9648 37.8477 12.2109 37.7461 12.4297C37.6445 12.6484 37.5078 12.8789 37.3359 13.1211C37.1719 13.3555 37.0195 13.5547 36.8789 13.7188C36.7383 13.875 36.5625 14.0547 36.3516 14.2578C36.1484 14.4531 35.9883 14.6016 35.8711 14.7031C35.6602 14.875 35.3984 15.0859 35.0859 15.3359C36.2031 15.7969 37.0547 16.3438 37.6406 16.9766C38.2266 17.6016 38.5195 18.3867 38.5195 19.332C38.5195 20.2695 38.2344 21.1797 37.6641 22.0625C37.1016 22.9453 36.3516 23.6484 35.4141 24.1719C34.4844 24.6953 33.4961 24.957 32.4492 24.957C31.293 24.957 30.4062 24.6328 29.7891 23.9844C29.4531 23.6328 29.2852 23.2227 29.2852 22.7539C29.2852 22.2852 29.4258 21.9062 29.707 21.6172C29.9961 21.3281 30.3438 21.1836 30.75 21.1836C31.1562 21.1836 31.4766 21.2852 31.7109 21.4883C31.9453 21.6914 32.0625 21.9297 32.0625 22.2031C32.0625 22.4688 32.0156 22.6797 31.9219 22.8359C31.8281 22.9844 31.7148 23.1016 31.582 23.1875C31.457 23.2734 31.3242 23.3438 31.1836 23.3984C30.9414 23.4922 30.7773 23.5391 30.6914 23.5391C30.6914 23.8828 31.1172 24.0977 31.9688 24.1836C32.1172 24.1992 32.2539 24.207 32.3789 24.207C33.4648 24.207 34.375 23.7969 35.1094 22.9766C35.8438 22.1562 36.2109 21.1992 36.2109 20.1055C36.2109 19.5586 36.0898 19.0547 35.8477 18.5938C35.6055 18.125 35.3086 17.75 34.957 17.4688C34.6055 17.1875 34.2539 16.9492 33.9023 16.7539C33.5586 16.5508 33.2656 16.3945 33.0234 16.2852C32.7812 16.1758 32.6602 16.1055 32.6602 16.0742C32.6602 16.0352 32.7773 15.9375 33.0117 15.7812C33.2461 15.625 33.5312 15.4219 33.8672 15.1719C34.2109 14.9141 34.5508 14.6211 34.8867 14.293C35.2227 13.9648 35.5078 13.5664 35.7422 13.0977C35.9766 12.6211 36.0938 12.1445 36.0938 11.668C36.0938 11.1914 35.9609 10.6836 35.6953 10.1445C35.4297 9.59766 35.043 9.21484 34.5352 8.99609C33.0664 9.90234 32.0078 11.3047 31.3594 13.2031C31.0781 14.0156 30.8672 14.7461 30.7266 15.3945C30.3828 17.0273 30.1328 18.1602 29.9766 18.793C29.8203 19.418 29.5078 20.1133 29.0391 20.8789C28.5781 21.6445 28.0039 22.332 27.3164 22.9414C26.6289 23.5508 25.793 24.0312 24.8086 24.3828C23.8242 24.7344 22.7539 24.9102 21.5977 24.9102C20.0117 24.9102 18.7227 24.5469 17.7305 23.8203C16.9492 23.2422 16.5586 22.4375 16.5586 21.4062C16.5586 20.7109 16.7266 20.0859 17.0625 19.5312C17.3984 18.9766 17.8359 18.5391 18.375 18.2188C19.4688 17.5625 20.6602 17.2344 21.9492 17.2344C21.9492 15.9688 22.2461 14.7422 22.8398 13.5547C23.4336 12.3594 24.2188 11.332 25.1953 10.4727C26.1797 9.60547 27.3281 8.91016 28.6406 8.38672C29.9609 7.86328 31.3164 7.60156 32.707 7.60156C33.1914 7.60156 33.9766 7.66797 35.0625 7.80078C36.5391 7.26953 37.6367 6.98047 38.3555 6.93359ZM52.5703 24.2656L52.9102 23.6797C53.2227 23.8594 53.5391 23.9492 53.8594 23.9492C54.4766 23.9492 55.0391 23.6172 55.5469 22.9531C56.0547 22.2891 56.4805 21.4062 56.8242 20.3047H49.1367L48.1758 21.7344C47.4648 22.7891 46.6523 23.5586 45.7383 24.043C44.8242 24.5273 43.8047 24.7695 42.6797 24.7695C41.5547 24.7695 40.7305 24.5547 40.207 24.125C39.6914 23.6953 39.4336 23.2422 39.4336 22.7656C39.4336 22.2812 39.5742 21.8945 39.8555 21.6055C40.1445 21.3086 40.5 21.1602 40.9219 21.1602C41.3516 21.1602 41.668 21.2969 41.8711 21.5703C42.0742 21.8359 42.1758 22.1953 42.1758 22.6484C42.1758 23.0938 41.9648 23.4297 41.543 23.6562C41.5664 23.7344 41.6523 23.8125 41.8008 23.8906C41.957 23.9609 42.168 23.9961 42.4336 23.9961C42.707 23.9961 42.9688 23.9648 43.2188 23.9023C43.4688 23.832 43.7578 23.6836 44.0859 23.457C44.4141 23.2305 44.7578 22.8906 45.1172 22.4375C45.8906 21.4609 46.8555 19.9727 48.0117 17.9727C49.168 15.9648 50.293 14.2969 51.3867 12.9688C52.4883 11.6328 53.8008 10.4375 55.3242 9.38281C54.8711 9.08594 54.3164 8.84766 53.6602 8.66797C53.0039 8.48828 52.2656 8.39844 51.4453 8.39844C50.6328 8.39844 49.7812 8.54688 48.8906 8.84375C48.0078 9.13281 47.2578 9.52734 46.6406 10.0273C46.0312 10.5273 45.5156 11.1172 45.0938 11.7969C44.2734 13.1016 43.8633 14.625 43.8633 16.3672C43.8633 17.5625 44.0664 18.7383 44.4727 19.8945L43.7109 20.2578C42.8359 18.8438 42.3984 17.3438 42.3984 15.7578C42.3984 14.6875 42.6094 13.6641 43.0312 12.6875C43.4531 11.7109 44.043 10.8438 44.8008 10.0859C45.5664 9.32812 46.5352 8.72656 47.707 8.28125C48.8789 7.82812 50.1641 7.60156 51.5625 7.60156C52.5781 7.60156 53.3047 7.67188 53.7422 7.8125L54.5859 8.07031C54.8672 8.15625 55.1992 8.31641 55.582 8.55078C55.9648 8.77734 56.1602 8.89453 56.168 8.90234C56.918 8.55078 57.5625 8.32422 58.1016 8.22266C58.6406 8.11328 59.2656 8.05859 59.9766 8.05859L60.2695 8.60938C59.0273 8.60938 57.9062 8.90625 56.9062 9.5C57.8359 10.3125 58.5273 11.3516 58.9805 12.6172C59.4336 13.8828 59.6602 15.2734 59.6602 16.7891C59.6602 18.2969 59.4453 19.7344 59.0156 21.1016C58.5859 22.4609 58.0117 23.5391 57.293 24.3359C56.582 25.1328 55.8086 25.5312 54.9727 25.5312C54.1367 25.5312 53.3359 25.1094 52.5703 24.2656ZM56.168 10.0391C54.8555 11.0156 53.7812 12.1523 52.9453 13.4492C52.2188 14.5664 51.543 15.7344 50.918 16.9531C50.3008 18.1719 49.8477 19.0391 49.5586 19.5547H57.0352C57.4023 18.0859 57.5859 16.625 57.5859 15.1719C57.5859 12.7656 57.1133 11.0547 56.168 10.0391Z" fill="white"/>
</svg>
