<svg width="64" height="64" viewBox="0 0 64 64" fill="none" xmlns="http://www.w3.org/2000/svg">
<path d="M0 16C0 7.16344 7.16344 0 16 0H48C56.8366 0 64 7.16344 64 16V48C64 56.8366 56.8366 64 48 64H16C7.16344 64 0 56.8366 0 48V16Z" fill="#FF7700" fill-opacity="0.1"/>
<path d="M22.0002 37.9999C20.0002 39.6799 19.3335 44.6666 19.3335 44.6666C19.3335 44.6666 24.3202 43.9999 26.0002 41.9999C26.9468 40.8799 26.9335 39.1599 25.8802 38.1199C25.3619 37.6253 24.6792 37.3395 23.9631 37.3173C23.247 37.2952 22.548 37.5383 22.0002 37.9999Z" stroke="#FF7700" stroke-width="2.66667" stroke-linecap="round" stroke-linejoin="round"/>
<path d="M32 36L28 32C28.7095 30.1593 29.6029 28.3948 30.6667 26.7334C32.2202 24.2494 34.3835 22.2041 36.9507 20.7922C39.5178 19.3802 42.4036 18.6485 45.3333 18.6667C45.3333 22.2934 44.2933 28.6667 37.3333 33.3334C35.6492 34.3983 33.8625 35.2917 32 36Z" stroke="#FF7700" stroke-width="2.66667" stroke-linecap="round" stroke-linejoin="round"/>
<path d="M28.0002 31.9999H21.3335C21.3335 31.9999 22.0668 27.9599 24.0002 26.6666C26.1602 25.2266 30.6668 26.6666 30.6668 26.6666" stroke="#FF7700" stroke-width="2.66667" stroke-linecap="round" stroke-linejoin="round"/>
<path d="M32 36V42.6667C32 42.6667 36.04 41.9334 37.3333 40C38.7733 37.84 37.3333 33.3334 37.3333 33.3334" stroke="#FF7700" stroke-width="2.66667" stroke-linecap="round" stroke-linejoin="round"/>
</svg>
