<svg width="28" height="28" viewBox="0 0 28 28" fill="none" xmlns="http://www.w3.org/2000/svg">
<path d="M22.1668 21V11.0833C22.1668 10.0108 21.9556 8.94887 21.5452 7.95805C21.1348 6.96722 20.5332 6.06693 19.7749 5.30859C19.0165 4.55024 18.1162 3.94869 17.1254 3.53828C16.1346 3.12786 15.0726 2.91663 14.0002 2.91663C12.9277 2.91663 11.8657 3.12786 10.8749 3.53828C9.88409 3.94869 8.9838 4.55024 8.22546 5.30859C7.46711 6.06693 6.86556 6.96722 6.45515 7.95805C6.04473 8.94887 5.8335 10.0108 5.8335 11.0833V21M23.9168 21H4.0835" stroke="#FF7700" stroke-width="2" stroke-linecap="round" stroke-linejoin="round"/>
<path d="M15.75 23.3333C15.75 23.7974 15.5656 24.2425 15.2374 24.5707C14.9092 24.8989 14.4641 25.0833 14 25.0833M14 25.0833C13.5359 25.0833 13.0908 24.8989 12.7626 24.5707C12.4344 24.2425 12.25 23.7974 12.25 23.3333M14 25.0833V23.3333" stroke="#FF7700" stroke-width="2" stroke-linejoin="round"/>
</svg>
