<svg width="28" height="28" viewBox="0 0 28 28" fill="none" xmlns="http://www.w3.org/2000/svg">
<path d="M9.33317 25.6667C9.9775 25.6667 10.4998 25.1444 10.4998 24.5C10.4998 23.8557 9.9775 23.3334 9.33317 23.3334C8.68884 23.3334 8.1665 23.8557 8.1665 24.5C8.1665 25.1444 8.68884 25.6667 9.33317 25.6667Z" stroke="#FF7700" stroke-width="2.33333" stroke-linecap="round" stroke-linejoin="round"/>
<path d="M22.1667 25.6667C22.811 25.6667 23.3333 25.1444 23.3333 24.5C23.3333 23.8557 22.811 23.3334 22.1667 23.3334C21.5223 23.3334 21 23.8557 21 24.5C21 25.1444 21.5223 25.6667 22.1667 25.6667Z" stroke="#FF7700" stroke-width="2.33333" stroke-linecap="round" stroke-linejoin="round"/>
<path d="M2.3916 2.39172H4.72494L7.82827 16.8817C7.94211 17.4124 8.23738 17.8868 8.66326 18.2232C9.08915 18.5597 9.61899 18.7371 10.1616 18.7251H21.5716C22.1026 18.7242 22.6175 18.5422 23.0311 18.2092C23.4448 17.8762 23.7324 17.412 23.8466 16.8934L25.7716 8.22506H5.97327" stroke="#FF7700" stroke-width="2.33333" stroke-linecap="round" stroke-linejoin="round"/>
</svg>
