<svg width="28" height="28" viewBox="0 0 28 28" fill="none" xmlns="http://www.w3.org/2000/svg">
<path d="M22.75 19.25C21.1243 19.25 19.7663 20.37 19.3743 21.875H8.62575C8.46851 21.2737 8.15397 20.725 7.71447 20.2855C7.27496 19.846 6.72634 19.5315 6.125 19.3743V16.625C6.125 15.6608 6.90987 14.875 7.875 14.875H20.125C22.0553 14.875 23.625 13.3053 23.625 11.375V8.62575C25.13 8.23462 26.25 6.87575 26.25 5.25C26.25 3.31975 24.6803 1.75 22.75 1.75C20.8197 1.75 19.25 3.31975 19.25 5.25C19.25 6.87575 20.37 8.23375 21.875 8.62575V11.375C21.875 12.3401 21.0901 13.125 20.125 13.125H7.875C5.94475 13.125 4.375 14.6947 4.375 16.625V19.3743C2.87 19.7654 1.75 21.1243 1.75 22.75C1.75 24.6803 3.31975 26.25 5.25 26.25C6.87575 26.25 8.23375 25.13 8.62575 23.625H19.3743C19.7654 25.13 21.1243 26.25 22.75 26.25C24.6803 26.25 26.25 24.6803 26.25 22.75C26.25 20.8197 24.6803 19.25 22.75 19.25ZM21 5.25C21 4.28575 21.7849 3.5 22.75 3.5C23.7151 3.5 24.5 4.28575 24.5 5.25C24.5 6.21425 23.7151 7 22.75 7C21.7849 7 21 6.21513 21 5.25ZM5.25 24.5C4.28487 24.5 3.5 23.7151 3.5 22.75C3.5 21.7849 4.28487 21 5.25 21C6.21513 21 7 21.7857 7 22.75C7 23.7143 6.21513 24.5 5.25 24.5ZM22.75 24.5C21.7849 24.5 21 23.7151 21 22.75C21 21.7849 21.7849 21 22.75 21C23.7151 21 24.5 21.7857 24.5 22.75C24.5 23.7143 23.7151 24.5 22.75 24.5Z" fill="#FF7700"/>
<path d="M5.25 8.75C5.8975 8.75 6.496 8.56187 7.01662 8.25387L10.1378 11.375L11.375 10.1378L8.25387 7.01662C8.57541 6.48321 8.74682 5.87282 8.75 5.25C8.75 3.31975 7.18025 1.75 5.25 1.75C3.31975 1.75 1.75 3.31975 1.75 5.25C1.75 7.18025 3.31975 8.75 5.25 8.75ZM5.25 3.5C6.21513 3.5 7 4.28575 7 5.25C7 6.21425 6.21513 7 5.25 7C4.28487 7 3.5 6.21513 3.5 5.25C3.5 4.28487 4.28487 3.5 5.25 3.5Z" fill="#FF7700"/>
</svg>
