<svg width="64" height="64" viewBox="0 0 64 64" fill="none" xmlns="http://www.w3.org/2000/svg">
<path d="M0 16C0 7.16344 7.16344 0 16 0H48C56.8366 0 64 7.16344 64 16V48C64 56.8366 56.8366 64 48 64H16C7.16344 64 0 56.8366 0 48V16Z" fill="#FF7700" fill-opacity="0.1"/>
<path d="M31.9998 45.3334C39.3636 45.3334 45.3332 39.3639 45.3332 32.0001C45.3332 24.6363 39.3636 18.6667 31.9998 18.6667C24.636 18.6667 18.6665 24.6363 18.6665 32.0001C18.6665 39.3639 24.636 45.3334 31.9998 45.3334Z" stroke="#FF7700" stroke-width="2.66667" stroke-linecap="round" stroke-linejoin="round"/>
<path d="M32 40C36.4183 40 40 36.4183 40 32C40 27.5817 36.4183 24 32 24C27.5817 24 24 27.5817 24 32C24 36.4183 27.5817 40 32 40Z" stroke="#FF7700" stroke-width="2.66667" stroke-linecap="round" stroke-linejoin="round"/>
<path d="M32.0002 34.6666C33.4729 34.6666 34.6668 33.4727 34.6668 31.9999C34.6668 30.5272 33.4729 29.3333 32.0002 29.3333C30.5274 29.3333 29.3335 30.5272 29.3335 31.9999C29.3335 33.4727 30.5274 34.6666 32.0002 34.6666Z" stroke="#FF7700" stroke-width="2.66667" stroke-linecap="round" stroke-linejoin="round"/>
</svg>
