<svg width="64" height="64" viewBox="0 0 64 64" fill="none" xmlns="http://www.w3.org/2000/svg">
<path d="M0 16C0 7.16344 7.16344 0 16 0H48C56.8366 0 64 7.16344 64 16V48C64 56.8366 56.8366 64 48 64H16C7.16344 64 0 56.8366 0 48V16Z" fill="#FF7700" fill-opacity="0.1"/>
<path d="M28.8946 21.5147C28.968 20.7418 29.327 20.0241 29.9014 19.5017C30.4757 18.9794 31.2242 18.6899 32.0006 18.6899C32.7769 18.6899 33.5254 18.9794 34.0998 19.5017C34.6741 20.0241 35.0331 20.7418 35.1066 21.5147C35.1507 22.014 35.3145 22.4953 35.5841 22.9178C35.8537 23.3404 36.2211 23.6918 36.6552 23.9423C37.0893 24.1928 37.5774 24.335 38.0782 24.3569C38.5789 24.3788 39.0776 24.2797 39.5319 24.068C40.2374 23.7477 41.0368 23.7014 41.7746 23.938C42.5124 24.1746 43.1357 24.6773 43.5233 25.3482C43.9109 26.0191 44.035 26.8101 43.8714 27.5675C43.7079 28.3248 43.2685 28.9942 42.6386 29.4454C42.2284 29.7332 41.8936 30.1155 41.6625 30.5601C41.4313 31.0046 41.3106 31.4983 41.3106 31.9994C41.3106 32.5004 41.4313 32.9941 41.6625 33.4387C41.8936 33.8832 42.2284 34.2656 42.6386 34.5534C43.2685 35.0046 43.7079 35.6739 43.8714 36.4313C44.035 37.1886 43.9109 37.9797 43.5233 38.6506C43.1357 39.3214 42.5124 39.8241 41.7746 40.0607C41.0368 40.2973 40.2374 40.251 39.5319 39.9307C39.0776 39.7191 38.5789 39.62 38.0782 39.6419C37.5774 39.6638 37.0893 39.806 36.6552 40.0565C36.2211 40.307 35.8537 40.6584 35.5841 41.0809C35.3145 41.5035 35.1507 41.9848 35.1066 42.484C35.0331 43.2569 34.6741 43.9746 34.0998 44.497C33.5254 45.0194 32.7769 45.3088 32.0006 45.3088C31.2242 45.3088 30.4757 45.0194 29.9014 44.497C29.327 43.9746 28.968 43.2569 28.8946 42.484C28.8505 41.9846 28.6867 41.5031 28.4171 41.0804C28.1474 40.6577 27.7799 40.3062 27.3456 40.0557C26.9112 39.8052 26.4229 39.663 25.922 39.6412C25.4211 39.6195 24.9223 39.7188 24.4679 39.9307C23.7624 40.251 22.963 40.2973 22.2253 40.0607C21.4875 39.8241 20.8641 39.3214 20.4766 38.6506C20.089 37.9797 19.9649 37.1886 20.1284 36.4313C20.2919 35.6739 20.7314 35.0046 21.3613 34.5534C21.7714 34.2656 22.1062 33.8832 22.3374 33.4387C22.5685 32.9941 22.6892 32.5004 22.6892 31.9994C22.6892 31.4983 22.5685 31.0046 22.3374 30.5601C22.1062 30.1155 21.7714 29.7332 21.3613 29.4454C20.7323 28.994 20.2936 28.3248 20.1305 27.568C19.9673 26.8112 20.0914 26.0208 20.4786 25.3503C20.8657 24.6799 21.4883 24.1773 22.2254 23.9404C22.9624 23.7034 23.7612 23.7489 24.4666 24.068C24.9209 24.2797 25.4196 24.3788 25.9203 24.3569C26.4211 24.335 26.9092 24.1928 27.3433 23.9423C27.7774 23.6918 28.1448 23.3404 28.4144 22.9178C28.684 22.4953 28.8478 22.014 28.8919 21.5147" stroke="#FF7700" stroke-width="2.66667" stroke-linecap="round" stroke-linejoin="round"/>
<path d="M32 36C34.2091 36 36 34.2091 36 32C36 29.7909 34.2091 28 32 28C29.7909 28 28 29.7909 28 32C28 34.2091 29.7909 36 32 36Z" stroke="#FF7700" stroke-width="2.66667" stroke-linecap="round" stroke-linejoin="round"/>
</svg>
