<svg width="64" height="64" viewBox="0 0 64 64" fill="none" xmlns="http://www.w3.org/2000/svg">
<path d="M0 16C0 7.16344 7.16344 0 16 0H48C56.8366 0 64 7.16344 64 16V48C64 56.8366 56.8366 64 48 64H16C7.16344 64 0 56.8366 0 48V16Z" fill="#FF7700" fill-opacity="0.1"/>
<path d="M26.6668 45.3334C27.4032 45.3334 28.0002 44.7365 28.0002 44.0001C28.0002 43.2637 27.4032 42.6667 26.6668 42.6667C25.9304 42.6667 25.3335 43.2637 25.3335 44.0001C25.3335 44.7365 25.9304 45.3334 26.6668 45.3334Z" stroke="#FF7700" stroke-width="2.66667" stroke-linecap="round" stroke-linejoin="round"/>
<path d="M41.3333 45.3334C42.0697 45.3334 42.6667 44.7365 42.6667 44.0001C42.6667 43.2637 42.0697 42.6667 41.3333 42.6667C40.597 42.6667 40 43.2637 40 44.0001C40 44.7365 40.597 45.3334 41.3333 45.3334Z" stroke="#FF7700" stroke-width="2.66667" stroke-linecap="round" stroke-linejoin="round"/>
<path d="M18.7334 18.7334H21.4001L24.9467 35.2934C25.0768 35.8999 25.4143 36.442 25.901 36.8265C26.3877 37.2111 26.9933 37.4139 27.6134 37.4001H40.6534C41.2603 37.3991 41.8487 37.1911 42.3214 36.8105C42.7942 36.4299 43.1229 35.8994 43.2534 35.3067L45.4534 25.4001H22.8267" stroke="#FF7700" stroke-width="2.66667" stroke-linecap="round" stroke-linejoin="round"/>
</svg>
